<mxfile host="app.diagrams.net" modified="2023-03-14T18:32:41.908Z" agent="5.0 (Windows NT 10.0; Win64; x64) AppleWebKit/537.36 (KHTML, like Gecko) Chrome/111.0.0.0 Safari/537.36" etag="1nSJ21UEjxJtQ-a19luV" version="21.0.6" type="github">
  <diagram name="Page-1" id="mScG39xNwae3sNDc6WoO">
    <mxGraphModel dx="2087" dy="889" grid="0" gridSize="10" guides="1" tooltips="1" connect="1" arrows="1" fold="1" page="0" pageScale="1" pageWidth="827" pageHeight="1169" math="0" shadow="0">
      <root>
        <mxCell id="0" />
        <mxCell id="1" parent="0" />
        <mxCell id="QqtFe9Oyp5fte1WvcNWB-1" value="" style="rounded=0;whiteSpace=wrap;html=1;sketch=1;hachureGap=4;jiggle=2;curveFitting=1;fontFamily=Architects Daughter;fontSource=https%3A%2F%2Ffonts.googleapis.com%2Fcss%3Ffamily%3DArchitects%2BDaughter;fontSize=20;" vertex="1" parent="1">
          <mxGeometry x="-21.5" y="119" width="633" height="429" as="geometry" />
        </mxCell>
        <mxCell id="QqtFe9Oyp5fte1WvcNWB-3" value="&lt;b&gt;First Rule :&amp;nbsp;&lt;/b&gt;" style="text;html=1;align=center;verticalAlign=middle;resizable=0;points=[];autosize=1;strokeColor=none;fillColor=none;fontSize=20;fontFamily=Architects Daughter;" vertex="1" parent="1">
          <mxGeometry x="-9" y="134" width="130" height="36" as="geometry" />
        </mxCell>
        <mxCell id="QqtFe9Oyp5fte1WvcNWB-4" value="&lt;b&gt;&lt;font style=&quot;font-size: 28px;&quot;&gt;Discount Ruleset&lt;/font&gt;&lt;/b&gt;" style="text;html=1;align=center;verticalAlign=middle;resizable=0;points=[];autosize=1;strokeColor=none;fillColor=none;fontSize=20;fontFamily=Architects Daughter;" vertex="1" parent="1">
          <mxGeometry x="178.5" y="45" width="233" height="46" as="geometry" />
        </mxCell>
        <mxCell id="QqtFe9Oyp5fte1WvcNWB-12" value="" style="group" vertex="1" connectable="0" parent="1">
          <mxGeometry x="16" y="178" width="558" height="130" as="geometry" />
        </mxCell>
        <mxCell id="QqtFe9Oyp5fte1WvcNWB-2" value="" style="rounded=0;whiteSpace=wrap;html=1;sketch=1;hachureGap=4;jiggle=2;curveFitting=1;fontFamily=Architects Daughter;fontSource=https%3A%2F%2Ffonts.googleapis.com%2Fcss%3Ffamily%3DArchitects%2BDaughter;fontSize=20;" vertex="1" parent="QqtFe9Oyp5fte1WvcNWB-12">
          <mxGeometry width="558" height="130" as="geometry" />
        </mxCell>
        <mxCell id="QqtFe9Oyp5fte1WvcNWB-6" value="&lt;font style=&quot;font-size: 12px;&quot;&gt;Contract Addresses(Hashes) (comma seprated)&lt;/font&gt;" style="text;html=1;align=center;verticalAlign=middle;resizable=0;points=[];autosize=1;strokeColor=none;fillColor=none;fontSize=12;fontFamily=Architects Daughter;" vertex="1" parent="QqtFe9Oyp5fte1WvcNWB-12">
          <mxGeometry x="16" y="9" width="283" height="26" as="geometry" />
        </mxCell>
        <mxCell id="QqtFe9Oyp5fte1WvcNWB-7" value="&lt;font style=&quot;font-size: 10px;&quot;&gt;ff2f649f127c033d744f80e7c3bcf0561c716d8f6d1dadc0cd79d8b2d309c020 , ...&lt;/font&gt;" style="rounded=1;whiteSpace=wrap;html=1;hachureGap=4;fontFamily=Architects Daughter;fontSource=https%3A%2F%2Ffonts.googleapis.com%2Fcss%3Ffamily%3DArchitects%2BDaughter;fontSize=20;glass=0;sketch=1;curveFitting=1;jiggle=2;shadow=0;" vertex="1" parent="QqtFe9Oyp5fte1WvcNWB-12">
          <mxGeometry x="24" y="35" width="402" height="25" as="geometry" />
        </mxCell>
        <mxCell id="QqtFe9Oyp5fte1WvcNWB-8" value="&lt;font style=&quot;font-size: 12px;&quot;&gt;Discount Percentage :&amp;nbsp;&lt;/font&gt;" style="text;html=1;align=center;verticalAlign=middle;resizable=0;points=[];autosize=1;strokeColor=none;fillColor=none;fontSize=12;fontFamily=Architects Daughter;" vertex="1" parent="QqtFe9Oyp5fte1WvcNWB-12">
          <mxGeometry x="16" y="67" width="146" height="26" as="geometry" />
        </mxCell>
        <mxCell id="QqtFe9Oyp5fte1WvcNWB-9" value="23%" style="rounded=1;whiteSpace=wrap;html=1;sketch=1;hachureGap=4;jiggle=2;curveFitting=1;fontFamily=Architects Daughter;fontSource=https%3A%2F%2Ffonts.googleapis.com%2Fcss%3Ffamily%3DArchitects%2BDaughter;fontSize=20;" vertex="1" parent="QqtFe9Oyp5fte1WvcNWB-12">
          <mxGeometry x="158" y="72" width="47" height="16" as="geometry" />
        </mxCell>
        <mxCell id="QqtFe9Oyp5fte1WvcNWB-10" value="Counter :&amp;nbsp;" style="text;html=1;align=center;verticalAlign=middle;resizable=0;points=[];autosize=1;strokeColor=none;fillColor=none;fontSize=12;fontFamily=Architects Daughter;" vertex="1" parent="QqtFe9Oyp5fte1WvcNWB-12">
          <mxGeometry x="16" y="93" width="75" height="26" as="geometry" />
        </mxCell>
        <mxCell id="QqtFe9Oyp5fte1WvcNWB-11" value="10" style="rounded=1;whiteSpace=wrap;html=1;sketch=1;hachureGap=4;jiggle=2;curveFitting=1;fontFamily=Architects Daughter;fontSource=https%3A%2F%2Ffonts.googleapis.com%2Fcss%3Ffamily%3DArchitects%2BDaughter;fontSize=20;" vertex="1" parent="QqtFe9Oyp5fte1WvcNWB-12">
          <mxGeometry x="158" y="98" width="47" height="16" as="geometry" />
        </mxCell>
        <mxCell id="QqtFe9Oyp5fte1WvcNWB-23" value="" style="curved=1;endArrow=classic;html=1;rounded=0;sketch=1;hachureGap=4;jiggle=2;curveFitting=1;fontFamily=Architects Daughter;fontSource=https%3A%2F%2Ffonts.googleapis.com%2Fcss%3Ffamily%3DArchitects%2BDaughter;fontSize=16;entryX=0.997;entryY=0.302;entryDx=0;entryDy=0;entryPerimeter=0;" edge="1" parent="QqtFe9Oyp5fte1WvcNWB-12" target="QqtFe9Oyp5fte1WvcNWB-27">
          <mxGeometry width="50" height="50" relative="1" as="geometry">
            <mxPoint x="24" y="47" as="sourcePoint" />
            <mxPoint x="-97" y="-6" as="targetPoint" />
            <Array as="points">
              <mxPoint x="-26" y="47" />
              <mxPoint x="-61" y="28" />
              <mxPoint x="9" y="-4" />
            </Array>
          </mxGeometry>
        </mxCell>
        <mxCell id="QqtFe9Oyp5fte1WvcNWB-13" value="" style="group" vertex="1" connectable="0" parent="1">
          <mxGeometry x="14" y="349" width="558" height="130" as="geometry" />
        </mxCell>
        <mxCell id="QqtFe9Oyp5fte1WvcNWB-14" value="" style="rounded=0;whiteSpace=wrap;html=1;sketch=1;hachureGap=4;jiggle=2;curveFitting=1;fontFamily=Architects Daughter;fontSource=https%3A%2F%2Ffonts.googleapis.com%2Fcss%3Ffamily%3DArchitects%2BDaughter;fontSize=20;" vertex="1" parent="QqtFe9Oyp5fte1WvcNWB-13">
          <mxGeometry width="558" height="130" as="geometry" />
        </mxCell>
        <mxCell id="QqtFe9Oyp5fte1WvcNWB-15" value="&lt;font style=&quot;font-size: 12px;&quot;&gt;Contract Addresses(Hashes) (comma seprated)&lt;/font&gt;" style="text;html=1;align=center;verticalAlign=middle;resizable=0;points=[];autosize=1;strokeColor=none;fillColor=none;fontSize=12;fontFamily=Architects Daughter;" vertex="1" parent="QqtFe9Oyp5fte1WvcNWB-13">
          <mxGeometry x="16" y="9" width="283" height="26" as="geometry" />
        </mxCell>
        <mxCell id="QqtFe9Oyp5fte1WvcNWB-16" value="&lt;font style=&quot;font-size: 10px;&quot;&gt;fcb1239c12c1675ab123768761278638fff123f938a12bbdadc0cd79d8b2d309c020 , ...&lt;/font&gt;" style="rounded=1;whiteSpace=wrap;html=1;hachureGap=4;fontFamily=Architects Daughter;fontSource=https%3A%2F%2Ffonts.googleapis.com%2Fcss%3Ffamily%3DArchitects%2BDaughter;fontSize=20;glass=0;sketch=1;curveFitting=1;jiggle=2;shadow=0;" vertex="1" parent="QqtFe9Oyp5fte1WvcNWB-13">
          <mxGeometry x="24" y="35" width="402" height="25" as="geometry" />
        </mxCell>
        <mxCell id="QqtFe9Oyp5fte1WvcNWB-17" value="&lt;font style=&quot;font-size: 12px;&quot;&gt;Discount Percentage :&amp;nbsp;&lt;/font&gt;" style="text;html=1;align=center;verticalAlign=middle;resizable=0;points=[];autosize=1;strokeColor=none;fillColor=none;fontSize=12;fontFamily=Architects Daughter;" vertex="1" parent="QqtFe9Oyp5fte1WvcNWB-13">
          <mxGeometry x="16" y="67" width="146" height="26" as="geometry" />
        </mxCell>
        <mxCell id="QqtFe9Oyp5fte1WvcNWB-18" value="51%" style="rounded=1;whiteSpace=wrap;html=1;sketch=1;hachureGap=4;jiggle=2;curveFitting=1;fontFamily=Architects Daughter;fontSource=https%3A%2F%2Ffonts.googleapis.com%2Fcss%3Ffamily%3DArchitects%2BDaughter;fontSize=20;" vertex="1" parent="QqtFe9Oyp5fte1WvcNWB-13">
          <mxGeometry x="158" y="72" width="47" height="16" as="geometry" />
        </mxCell>
        <mxCell id="QqtFe9Oyp5fte1WvcNWB-19" value="Counter :&amp;nbsp;" style="text;html=1;align=center;verticalAlign=middle;resizable=0;points=[];autosize=1;strokeColor=none;fillColor=none;fontSize=12;fontFamily=Architects Daughter;" vertex="1" parent="QqtFe9Oyp5fte1WvcNWB-13">
          <mxGeometry x="16" y="93" width="75" height="26" as="geometry" />
        </mxCell>
        <mxCell id="QqtFe9Oyp5fte1WvcNWB-20" value="4" style="rounded=1;whiteSpace=wrap;html=1;sketch=1;hachureGap=4;jiggle=2;curveFitting=1;fontFamily=Architects Daughter;fontSource=https%3A%2F%2Ffonts.googleapis.com%2Fcss%3Ffamily%3DArchitects%2BDaughter;fontSize=20;" vertex="1" parent="QqtFe9Oyp5fte1WvcNWB-13">
          <mxGeometry x="158" y="98" width="47" height="16" as="geometry" />
        </mxCell>
        <mxCell id="QqtFe9Oyp5fte1WvcNWB-21" value="&lt;b&gt;Second Rule :&lt;/b&gt;" style="text;html=1;align=center;verticalAlign=middle;resizable=0;points=[];autosize=1;strokeColor=none;fillColor=none;fontSize=20;fontFamily=Architects Daughter;" vertex="1" parent="1">
          <mxGeometry x="-11" y="313" width="144" height="36" as="geometry" />
        </mxCell>
        <mxCell id="QqtFe9Oyp5fte1WvcNWB-22" value="&lt;p style=&quot;line-height: 60%;&quot;&gt;.&lt;br&gt;.&lt;br&gt;.&lt;/p&gt;" style="text;html=1;align=center;verticalAlign=middle;resizable=0;points=[];autosize=1;strokeColor=none;fillColor=none;fontSize=20;fontFamily=Architects Daughter;fontStyle=1" vertex="1" parent="1">
          <mxGeometry x="284.5" y="465" width="21" height="88" as="geometry" />
        </mxCell>
        <mxCell id="QqtFe9Oyp5fte1WvcNWB-25" value="" style="shape=note;whiteSpace=wrap;html=1;backgroundOutline=1;darkOpacity=0.05;sketch=1;hachureGap=4;jiggle=2;curveFitting=1;fontFamily=Architects Daughter;fontSource=https%3A%2F%2Ffonts.googleapis.com%2Fcss%3Ffamily%3DArchitects%2BDaughter;fontSize=20;" vertex="1" parent="1">
          <mxGeometry x="-352" y="111" width="254" height="276" as="geometry" />
        </mxCell>
        <mxCell id="QqtFe9Oyp5fte1WvcNWB-26" value="&lt;font style=&quot;font-size: 19px;&quot;&gt;Contract Address&lt;/font&gt;" style="text;html=1;align=center;verticalAlign=middle;resizable=0;points=[];autosize=1;strokeColor=none;fillColor=none;fontSize=20;fontFamily=Architects Daughter;" vertex="1" parent="1">
          <mxGeometry x="-322" y="112" width="178" height="37" as="geometry" />
        </mxCell>
        <mxCell id="QqtFe9Oyp5fte1WvcNWB-27" value="&lt;p style=&quot;line-height: 100%; font-size: 9px;&quot;&gt;&lt;font style=&quot;font-size: 9px;&quot;&gt;&amp;gt; Contract Address, is the &lt;b&gt;contract-hash&lt;/b&gt;, of your NFTs&lt;/font&gt;&lt;/p&gt;&lt;p style=&quot;line-height: 100%; font-size: 9px;&quot;&gt;Each NFT, is stored in a smart contract, So every NFT&amp;nbsp;&lt;/p&gt;&lt;p style=&quot;line-height: 100%; font-size: 9px;&quot;&gt;has a contract-hash.&amp;nbsp;&lt;span style=&quot;background-color: initial;&quot;&gt;You can grab this hash, from your&amp;nbsp;&lt;/span&gt;&lt;/p&gt;&lt;p style=&quot;line-height: 100%; font-size: 9px;&quot;&gt;&lt;span style=&quot;background-color: initial;&quot;&gt;&lt;b&gt;dApp&lt;/b&gt;, or directly from block explorer of Casper.&lt;/span&gt;&lt;/p&gt;" style="text;html=1;align=left;verticalAlign=middle;resizable=0;points=[];autosize=1;strokeColor=none;fillColor=none;fontSize=9;fontFamily=Architects Daughter;rounded=0;shadow=0;horizontal=1;" vertex="1" parent="1">
          <mxGeometry x="-349" y="137" width="257" height="93" as="geometry" />
        </mxCell>
        <mxCell id="QqtFe9Oyp5fte1WvcNWB-28" value="&lt;p style=&quot;line-height: 100%; font-size: 9px;&quot;&gt;&amp;gt; Below, We get the contract-hash of a NFT Asset from&lt;/p&gt;&lt;p style=&quot;line-height: 100%; font-size: 9px;&quot;&gt;block-explorer of Casper :&amp;nbsp;&lt;/p&gt;" style="text;html=1;align=left;verticalAlign=middle;resizable=0;points=[];autosize=1;strokeColor=none;fillColor=none;fontSize=9;fontFamily=Architects Daughter;rounded=0;shadow=0;horizontal=1;" vertex="1" parent="1">
          <mxGeometry x="-352" y="220.5" width="261" height="57" as="geometry" />
        </mxCell>
        <mxCell id="QqtFe9Oyp5fte1WvcNWB-30" value="" style="shape=image;verticalLabelPosition=bottom;labelBackgroundColor=default;verticalAlign=top;aspect=fixed;imageAspect=0;image=data:image/png,iVBORw0KGgoAAAANSUhEUgAABLcAAAMQCAYAAADVRofWAAAgAElEQVR4nOzde1yUZf7/8deuOsY6lGKyeIhgt6BwrCU1QnElytP3h8suLfvDPH3FzBNiSpooSpqnPEtWmqlr6cZXNnZd2a+HCm3FjJKlTbSVaiE31MVAi2Hdxvzt74+ZgZlhYAbDzan38/Hw8WDmvq/rvu7Ddcv94bo+9/duuvnOfyMiIiIiIiIiIuKDvv9NN0BERERERERERORqKbglIiIiIiIiIiI+S8EtERERERERERHxWQpuiYiIiIiIiIiIz1JwS0REREREREREfJaCWyIiIiIiIiIi4rMU3BIREREREREREZ+l4JaIiIiIiIiIiPgsBbdERERERERERMRnKbglIiIiIiIiIiI+S8EtERERERERERHxWW2vbfXDGJUeSTfHr778hL0bdnL82m5YPPDvPZH5M4fRP8SIoY31O0v1ad7du5unNuymutnStzE080nmxwdhAOA0O+5LYX1LGxGzhN2rouiGhXfXpzDllXNeFgwi5cWtTDYZ4NNCUn75pMfrqXPikzw//l5COxucF1wsYf7QWexradvl6vjHkTT9V4yKCaZbR9u5uGKhuqKEXWueYWuxt9eAiIiIiIiIiNW1DW6NGMbkpAicwwkWQs7sZEreNd3yt5t/JL3u7MQNto//+sdJjn/ifVAgdEQ2z0+PoLPL94bOwfQfNY0/9L6NSeNWuw8YmSay7skE+vcwuFvaAlFkPhZFN8BSupsnvA5sgf+IuYwyGYAa9q3zHNhi2Ep2zo5stL/yH+afxIqdE7k/0OX7NgY6/ziKyc/2JGbrMlJeKPpGmiciIiIiIiK+6ZoGt0bF3EbjEIiBO2JHQt7Oa7npb7eYh1mfFYm/7WNt4SbiHs/1rqz/ROZPtgW2qk7y/Jpt5B4qoTZwGCmzxzE+JgDDncN4YnoBo9aXOBQMou/YuTz1aASd2wBYOHPgBLWDIwm/il3olTGNhB6A5TS7lm2i1tuC/uN4OiUCf6D6UC7zCz0XGRXf07q/Z4uYP3Ee+6quosHytSUtGWcLbJk5lbeT+c/nUl4bRGhsErNmJdC3s5Feo8aR8koRW72+IEREREREROS77hrm3JpIXC/3o3v874wi6dptWJrhnxJFLwNgOc2OGWlsPVRiDSxV7WXr42k8X2wBIDz2l/R1KjmAkSNsga2Lp8ldkEbC9rr6AFuLmOYyf1gQYOHUrmdY/7G3BYNIWJRAX3+guoR1c7wL6HX2t16HtR+/p8DWNyaJ/mHW81D9xiZGrcilvBbgHOWHnmHKE4WcATDcRoxuDiIiIiIiItIC127kVkok4Q6xrdpaC/62IAP+t3H/CMh9xXM1/rfGcMcPbeW+vMBf/1Li3SifwCj6hnSwfajjb+8Uecgj9TXLtZKG/bXw2QeFtgBA6+l/SwAAlrIiN0Glc+zYe4KU3pH4d+1KP+Bdx8VXLJx5Yycp83Zaj8mwDlcR3IpkenoMoQawfFzI0xtKPBexG5bO5GgjYObI86uVJ6teEPdPTmdyfM+GnGJe5bG6jaGzH2dynEP+K4uZMx+8w/PzlzYfCPRPYHJWAgn3BlOfxuySmfK39rJy+SbebXTdBnNzR+tPn1XtbVxf6QnKL8bQrSMY3F5UQfQdO41Zv4p02sfaqtMU/GYX63MLvB/9JyIiIiIiIt8q1yi4FcTkfo5TEms4svVD+k6PsuU9MnB3zDh4ZVuTNXQePJf10+MId02UdMVM+aG9PDVvk9tcS/69J/LU7AT63+oyauyKhTOlhax7fCkH3TwF+8fOZf30GHp1dV/O3cP+9JdeZ1SY7YO7xOTTt/LuiOD6j6deeZBR692ULdtL38fPseKZkdzv1G6XYBLp7Hh7WKNpgP4xE3n37YktSo7+5cUa9wuuNFXiME+NO0x11ddL+O2fMpFf3WkAzrF32dIWvFhgGE89as2bVVu8m/n5SjxuFcX0bVmMutPlunXIY9VnwzKm7HDJY+WfQOaLE0lw7ScGI93ujuOp3/6E/ivS3B9nUzo7nhlGuJ/L935GQh9I4rmf9GT9E2nsKHVcWEL52WGEd4VutyQBLqPuYn7CHR0BzHxW5v0++ne9jYT0ucT07kzSnFwFuERERERERL6Drs20RP8k+oY5fD77IX945T3+erHhK0NEJKPcFg7i/owd/GGRm8AWQBvrA/TG/5lLf5dFvUZlk/tsUuPAFkAbA93ujmNFTjajfuym3PK4xoEth3JP/c9WppvcNrgV+JP53DiXwBaAgW4PjGPn8uthnta5rx3Ywn8cT4+wBj3PHNjJ4lKPJer1yhjJ0K6A5SN2zNnWbBBj6Krf8+7br9f/swcRrUHA153/7VvJ0K+xS9+00NnTbEEfC+X52xj1swfpe98ofjVnN0fOWgAjfR8dR4rLaKj+s0baAlsWyg/s5DF7ucUFnKoFDAEMHT+tUR+DSGbPtwW2Lp1j97J5DL3vQfoOmsXsF0o4YwE6RzD5sYkuo/oKWLGlhGrAP2YcuzJHEh4IEERo/Fx2ZFkD35YPDrPeZWBXwz6aOZVn38cHGTpuG7kfmAHoHDuSp4Z9/eMpIiIiIiIivueaBLf8R/R0mpJ45vgbvEsu+0rNDV/6RRCX4qZsfDrzE4KcEtHXfnKaUx+cpvpSw3eGW+OYvcjhadY0l/mPOr8B0FJlLVfuEFSjcwSTMxwevN2Us2/PqZxfMKOeWuLmYb8V/DjGmlz9igXLJQsWl9FTnWOHMd0f4BzlH5zm1MdmLA7LLdXnOPXBaU59cK7FUyj9UzZy5O3XObItndCvtROeOOfLen6Bm6lpTXHK0bVJycbrxZESHQRAbeE2frV4J6eqwJ7H6rExu3n3EmC4jYTUSIdySSTda52eWnt0G+MXbOOIvVz+UkYtLLLmv+oaycgRLpu895f0vxXAzJEVo1i82zZtt7aEg1tnMeqFj7AABtMAprsEkWvzZzFyQQGnqiE0fhw7/vA67769g12ZcYS3NVP+Ri6Txq2m3KlUDCPvDsByyUL53k2MWmHfR6j+YCcrxu3kyEUAI3cMTPhaR1NERERERER80zWYlhjEqHudpySeOlAAwL43PmR2TMNb/sL7TYStmxzKRjJ5dKTDiA8Lp15ZyKj1tilV/kmsy51If1vunm73xjGUvewDkh615nGyqy7cRNLj9mlKUczeuYQk28O2wRRFiv8m1tc2LncmfymjFhe4LUfXKMY/GsSRF1p5SlwbqC3OZfpU21TLwJGs2zaO/vURt2DuTgK27mT+uJ0wbCUFWZH1x/jLD3Yzytu3JbroH2ELJHYNIhxcAgutqMl8WUms22c9p47TNhs0k6PLPu3TZTrmvsd/7jQ10z4FtEVvlfQJkYR2BTDz/iE3+1W7iYOHorgxBD6r7eSwwJ7/ysz7B9xM5Sv8Le9+GkVCDwPd74wDChqWRXelG8DFDznoJj5Zu+MwBQ8YCMVMbWfAJa9bt8BOGAxuRkgaDLT3N3CDPzg3qJDFI/+Lxe52H4Bcyqus14+hrfsXWIiIiIiIiMi3W+uP3PIfSX/H6XtVH7K70Pbz3nd433FqYlgkToO3/OO461aHz5++w/z1DrmCanPZWXjOOrrpkgVLe3/baKOGN7EBcOkkOx53fGgvYsWBk9Tay10ycPO97svlLi5wLvfqSadn7fB7r8XokHMUrHHIIVa1k/kFzgE090m2fcXV58u6+hxd3zFN5ErLXZjCqHEpPLahwM3SGsrdDqArofaf1p/8f+BubrDVl26/3cn8cSmMGpfG+necl/SavpWNqZGE+jtOL7RNhfyngW73JrDu2XR6NblFERERERERkcZafeSWf0pPp4Tn1ccLOVL/KZcjZePof68toGS4jZhHg9hqHwkVE2QdFWJTW3Gi0UiidxePon+jYRwNb2ID4O+fsMN1le1pxG2/inJ5n3BmdkT9Phk6B9MXl7cIfl0Xz3LcZYRL7VcW9+u2siMnz2GJuQ3OnuPUNdpGS/JlOfkaObrEG8GMevv1JnLftbaRTI4Ptp7L3csYtcIetLZNhayAXc/FERo2jBmP7iTFaXSkmzclioiIiIiIiNi0cnArksn9gp2+6TxgGkcOTmv4oo3zw2n4vUn4v/DMdfyWs9N8dhHC7UEwPwNNj2W5eu5HwVx7tVsn0X/rtd1G3J22vFDvvNGyfFkxEdzhD3Cagpbk6JLrT/xPbOfyHEc2FDVeXrqUfWVxTDZBr+iR8MLq+kW9pi9l3YhgFNYSERERERERd1o3uPXjYfS51eU7g6HZh1JDWE9G+cPz10N0q017GqX8cR3ddcnSZNL29teqXd8S1rcVTryKkv/JEUbfJafZcV8KjdKcXQs/7mzNpVdbQ3kTff3MRTNghDYOX/pPY8ZD1sBW7QcFrH9yK7s/cZ7Was+pJiIiIiIiIt9NrZpzK/ShiJa/cc9wG/1TrCN7KDxnfUubjX/YTxq9nbBv5g6OHPxf27+NTAbso6vqhdzOZNccVWOzKagvt4OnHnBT7pZgRrmWS7zVaaqkpfq0+ymJHbvSy+XtcENvCXC35nWhfccm2tbG/ddynWvivCVlbWXHtq2sS41zs9Royz13ddwHc0fy1Lat7NiWzXTHumst1jd8+gcQ6jZ/XBDhgUbrj475w2KCCTEAnGNf2tJGgS0RERERERGRVgxuRZLUO8jhs5kjCx+k731u/q0/iWNGqfDeI22jOgp4/xOHBYGRTJ4e5fB5IuMGBmHwM1j/fVlry8mVy5EyhxoNt5GQldTw1kX/ODKHR+BvL+dn4bN3vChHFLMfisDxWfzUO7vrf651SosVxLCsufT1t/7cd2w2j8UYPRyzVtKCgNSRv9cAYAiLYvqPXZcGMWpYT+v+nj3LW63UvPVjmrgO7nuQvvdt4sjFJgrunUVck+UepO8rp1uphZ71enQjBUde5923X6dg0zSPSc97Td/asP6zEz0GfR3X37c8Ce/eH1BC+VkAI3fFJjVe7D+R+2ODCb8zmG4/uOCwwB7UDeCuB6IalyOI0Lvj6HtvHOGBLouOnrUGoDvezv3D3Gxy1ADi7gwm/M4A2jsOcXzzNJW2uvvPclPQNIk42+irM38vaby8Kf7jCO/q/eoiIiIiIiLy7dN6wa0fJ9DfcUrixQ/Z11SapFdK+Mslh89hPUnxByjh+ZdLHKYFGggfsYSC321lx7Yd7Ptdki14ZHXmnQL22X7OfaGQcodgU+eYiRT8cQc7tm1ld95cEno0LLOUFtXnfnJXbvfvrKNddr+2hCTHANDZIrY4JLrOfecjpyCdISyO5157nXeP7OC5yRF0tli4Jmnhy+qcpk76R0+0jkjbNK3JIna1W4s4bgEMwYxam01KbKQ1kBI4jJRV2UzubZ1EeurQb1s3ab5PS2B0wm3424KI/nc/wOgHPKw/OLhh/d4PkNLsCKkkxg9rWL9zbBKzvRpRVcDWQ6exAP4x49iVOdIWjAoiNHYa615KoK8fYPmIfc87BoxyyX3HGuTslpDBjtkj64NYne8cyfRN2ezaNJfnsic1nu73zm8pKAMw0n/2DjIToqw56PwjuT9lJTsetb4AwFJ6mOcdX5Lw8Vb2lVp7Q7fB09i1aBz9AwFuIzxhLjvWxlhHSFpOU7Dd4c2OhaepsFj3KeHFJ0m48zbr94FR3D/iSXbkJXHjpxrNJSIiIiIi8l3Wajm3Qn91m/ObDsveqw88NbaNt04m0be3PRtXMP0nR7J+RQm1+at5qtcqFicE1efq8u8a3Gh0hqVsL5mOScZLl/LUC0GsTI1oSPjeOYhw1+zv1SWsmLGpITjkppy77XHpNDvmz3N48yPUvrCbgmHp1jcBOmoDYObI7g+5Kymy9RNhf7ybgrIYp8CDwc8AtwaTAOxusiBQu4mnnu/J89Mj6BwYweTlK21TOxtYPtjL0+tdR88ksW7fRPp3xA3XnFj/wVxO1yUDhv/Q9M7y9ZvY0SuDFJOR0Phx7Igf57KGmSMrnmyUyP/IgtXsCMliVJiR8MRx7Eh0LWfh1CurmV/ousUS1q/Yzd1rE+jlH0RCxhISMlxWce1jAJxj64xt3LFzIvcHGggdPJJ1g0c6l7tSw8EVc1nvGBSrfYYt+VGsSAzCcGsMmdtiyHRs5ScFzH7vNtbd2dQREhERERERkW+7Vhq5FcVIpymJFv56aGezJXYUOo96Cu09zDZ16xwHl43iZwsKOOUuc/sVM+Vv5DJpzGqOuyw6viONpKm5HPnEzXipKxbO/KWA2cmz2F3b8nLz/28K60tdF+5l/phnyP3A7Px17TmObFjGYyfdtL9VlLB+qpvtduxKeA/3JRyVv2Ld34Mfm7E45DeyVJ/myPZnGDqu8bH9btvNy7s/otZ2rGr/8gYvv9Hc+rls2Xu6Yf3iN9j6jvfrVx/KZUWz6zsq4vlHJjF7ewnl1Q7X7xUzZz4o4vmpk3gs393IpiLWj0ljft5HnLnoWM5C9ccl7FiQxqj1bt5qCFD6DCmJz7C18DSOm6S2hlNv5DLFTR+zLs9l9silrMh32abFzJm/FLIiLY3Zbtp6ZMXjPPZ8kfP+XbLeBx57ZKlTwFlERERERES+e7530813/vubbkSzAqPoG9LB+vOXF/jrX0rw6sWK/pH0urMTNwBQx9/eKWryLYetWq72NO9+8JE3JVpHfXtb0FYRERERERERkW+J6z+4JSIiIiIiIiIi0oRWfFuiiIiIiIiIiIjIf5aCWyIiIiIiIiIi4rMU3BIREREREREREZ+l4JaIiIiIiIiIiPgsBbdERERERERERMRnKbglIiIiIiIiIiI+S8EtERERERERERHxWQpuiYiIiIiIiIiIz1JwS0REREREREREfJaCWyIiIiIiIiIi4rMU3BIREREREREREZ+l4JaIiIiIiIiIiPgsBbdERERERERERMRnKbglIiIiIiIiIiI+S8EtERERERERERHxWQpuiYiIiIiIiIiIz1JwS0REREREREREfJaCWyIiIiIiIiIi4rMU3BIREREREREREZ+l4JaIiIiIiIiIiPgsBbdERERERERERMRnKbglIiIiIiIiIiI+S8EtERERERERERHxWQpuiYiIiIiIiIiIz1JwS0REREREREREfJaCWyIiIiIiIiIi4rMU3BIREREREREREZ+l4JaIiIiIiIiIiPistq1Z2fe+35a2bW/g+23aAd9rzapFRERERERERORb59/8vyuX+eqrf/Hv//fVVdXQaiO3vvf9thja+/P9NgYU2BIREREREREREc++x/fbGDC09+d737+6MVitFtxq2/YGFNQSEREREREREZGW+54tttRyrRbcsk5FFBERERERERERabmrjS21YkJ5jdoSEREREREREZGrdXWxJb0tUUREREREREREfJaCWyIiIiIiIiIi4rMU3BIREREREREREZ+l4JaIiIiIiIiIiPgsBbdERERERERERMRnKbglIiIiIiIiIiI+S8EtERERERERERHxWQpuiYiIiIiIiIiIz1JwS0REREREREREfJaCWyIiIiIiIiIi4rMU3BIREREREREREZ+l4JaIiIiIiIiIiPgsBbdERERERERERMRnKbglIiIiIiIiIiI+S8EtERERERERERHxWQpuiYiIiIiIiIiIz1JwS0REREREREREfJaCWyIiIiIiIiIi4rMU3BIREREREREREZ+l4JaIiIiIiIiIiPgsBbdERERERERERMRnKbglIiIiIiIiIiI+S8EtERERERERERHxWQpuiYiIiIiIiIiIz1JwS0REREREREREfFbbb7oBIt8Vyb/6LxbMnULngI5fq57qmossWvocObv+t5VaJiIiIiIiIuK7vnfTzXf+uzUqau8X0BrViHxrnXwv/2sHtuyqay4S8ZP4VqlLRERERERE5Hrx5aWaFpfRtESR/5DWCmy1dl0iIiIiIiIivkzBLRERERERERER8VnKuSUiIiIiIj5h0ZNPeLXegiefvsYtERGR68n1G9y65W7iTV0cvqjlb0eKOfnFV14Vv/HOGPrwHgUfmJtc/lPjx+S/e5awn08lqcsxntlcxBctbeOPL/GnQ2UN5drdQvSD4fhVFlPw/oWW1CZyDQQycFoG6fHdCTAAV+qoOJDHpBV7MDus03tkGlnjwghoU8fRZeOYdaCJ6gYv4A8ZoZxa8QSz9la5WcFE6sYMEg1FpKVkU+rSlvjMBaTGBmJsY/2mLPdXpDwHTFlLYVJ3l7o8tMWTwQvYlxHKcdc6jMPJejaZQcHtbF9UknP/DDa4FA+ZuJatie3In5HKmpMN++B6PMt255D2zP6G4xkxmpVPxBEd3AEA8+lSfv30InJsdaRu3kXybS4b+7yUhT9fxGu2j6bkBcwZaSLECFy5TEXRPpbPe9nheHo4Zx6P53BW/n400Te5rPJRATETNtZ/DHggnez0KEL8HM6VA9d21pwsYOHcLRTbD4brsThXxqtPZbK5uWPh1I5JbD0YB2623RLNt9O7Y9FgOEteHU3vD1/ml3P2eH3eMQ5h5qpk4m/rgKENUFNJ/ovLWG7vR4MXsC/DhNFla87HvQV9tYl2GgeksWpKFKagdu7baWcczcZXhxNyIo9fzsxxul8MnJZO6uBQurq9Pq/mnFnPQa8TLzN03h7nRf0yyF0SCfnLSFpd4tA+l+NpruLNF1czb3e5m/qbuy81vY1BS7aR1bPcqW9+I1yuLUtNOa8sXs3mEvs92Jv7vGee+rtddOYLrHzAQv7UVJY7XDdeX1sEMvbZtUwILmfDiExyHBvpqR95oXX7exOuor/nrVvGmsMN/2+6tvNsSQELZ23x/j5/vfB4fV4b5RV/p6LiE7fLQkJuJTTklmu6fRERuf5cv8Gt8CgGxwXwaUUV/wS4oRMDBg3i3P8+y9rXPQeNgu6JIY4zTQa3gu6JYXCXtuS/e/brtfGnFyirD251YvDU8QzxK2aLF20UueYS0shIDOSzvTksLKiia8xDpCYks+pcEZNeqgJMjM1OZ0IElB0uh9jAZiobzpKJJgwleSx0G9iCkInjSQy/wIGpbh4gjckkPxDIZ/lbmPdmHQC1jr+Xfl7G5sX7HMpdpvqvV7PTzTOOG8KgoAvkL8zhNTNAHY0eh0MnsSCxO9UHljkEtsA4Jp2sxEDOOB7PxPFkX6kk5blSII6s+cOJNpSxeeE+SgkneWIcqUsXUO3wgGw+tod5/+Ow1S8vcsr+c78MsiaaaF+yn3m/OQURcaSOHM6qJRdtD/5enLPcl5j+TgfbBwO3/yKZRyMtnHXJy1ixN5u1BQ5f1FbW/zgo4wUyBneg+q1SKvqYGm+jT7pTO81BUcyYNoQlGVX17Zz5xHCijc7HYuz8DEpHLOOovZ7TRUx/pqi+rYOmTGKwpa7x9q6Wx3YW8ez8C+S0t60fdA9TH4mhW7X7a3zQokQGGsrYsNgxcOD5vCdmjSEx9AL567bw2rlABj4ynMTH0jl7+Am2m4G38nh8VgH2ZnSNfojUhI5U15+SlvTVJtppHM2qzBjCzhWxfFYRZ43hjJk2hNT56Xw4YjXF9aUDSV40FBPlbF6Q4xQgsfaBHpzZm8P0giqMEUNJHzecrIxykpYVenNGWiCSOVMi6XquhFmOgS1g7FLH49kB08PJTJiSRur7M9jg0qGbvS81s43rQ4zztWUOZNC0hxibNYkK+z3F433eM4/93S4inZkPdOTsGxudAlveX1tgTEpjRASUbst2Dmx5ef9sViv3d/c8tTOQsU+76e+ZGVgm2a7P0DTmTDRxo9N9fghZmeUkLS6gpf39m+PF9XmNVFR8wsFDR9wuuz8WBbdERL6Drt/gFsClj/n9s7mU2T52HjKVufcP4+7Xf8NfvK7kBjp370Tb2vP8o4lRX2W/f5YlLt+1u7ELP/SHL6rO88Vlb7bTicGPTSe+4wk2LtnDSYcyLa9LpHUMurc7xso/M2lFHhUAx8oIu2sD8VFD4KWXgVBCKGdD2iJyeixgX2zTdUVnDmegsfHDbj3jaOYkdqfa9aHHrl9HbqaO48f3U3zMXQUWzhwrdHoIcqp+QBrZj0URFmAbFeAyCshpRNaVixzN+5Rad/sR1AEulVN8qKltBTL28QGE1TR+2P3vfqEYPipg0oo86zE4VogxeCepfeIwUoo5NobeQXUcXZbJ9kMAhRR/0pHcrSYGD4PX9tp39SLFx9wHAgYODaPr56UsnLmFN23b+KTLBnYMiCSePeR7c87Ol1B83rov8YsWk9qnjrw5y1jj8uxuMRc2cS4g/KY68hdksuZwIlsPulnh3h50pZIcezsp5O2EXSQH2keMxWAKvkzxcw7Hwq87+2aHMrgPHD0GZ/5WSRnlDcciNI0ZoZc5vu5l520Zx7Px1SGYAgBzJfkrlrG8fgREJMlLxvPfUbYRgeYqju7cwqycEi/bWUXF8Spr/4iYxNYpMdz8fg4Pz8lrvM/9Mnh0gKHxQ7nH8z6c6NvbcfbARpbnW8MrxX/twT17YohOhO0vAeZSSm3nwjRlLTMTOlL8zCJm7bZvxPu+2nQ7Q+l2pZL8J1eTX25rZ4SJwqQeREN9fzAOm8R/R7ajLPdla+DNsYrbOsFHRWTW31MK6TVgF8k/MgEO13Sz58x5FGdNUQGnLjXeDdO08QzuXsfRZQ7BUACGYwpuh/nYfpbnW7dZHBDFiMhQbr0dnKLVHu5LTW+jQa/MDaTb23psD3NnOYyi9DRqxYsRZs2PNDJxaxCU5dqvLSguGkB8UifCgdfw5j7v+f7psb8DEMnMx6Os96fFBc6LvLy2MA4na2QYho8KWO4aePPm/ulyvBuNgGyl/u58TuqoKCpoGJ3osZ2JDIxoR1nuIpbnW9tVfMzArf+byH3xgWx4pgqGhRJyqYwNDvd5/4htzOkZRW8KKPaqv7sZsXd4D2kL86j/O4bL9WepqSTfcQSZF9en07Vz5TI1HxWx+vFs3vTy+mx0j77KkZfCHP8AACAASURBVIXeTkUUEZHvLp9KKF9d/DE1HYz8ECA8icXrHmWww/LBjy1mxoMOX7S/m9Rlc5ibOp7ZTz7J4olRdHZTb9jIOWQ/Zv/NoRMDJs5h9ZNTmZY6lcVPz2HSTzt5aFlbIkZOJL7jCbY8nesQ2Gq6rrv/O5Psx2JpV19HV5IyFzPv5562Jd9WEwb2cfrXai7VUQEEBJswUoXlChgM9lE9e1iY5sWUj34ZzHygA6U7Vzd62LUKZOzTQzHVlLDG9aFnyloKD+6iMMOEkQ5EZ+yyfj64i61THFfsQGz2Nuuy13fyh+zx1I8fsI0KuLnyMMtnZTN9YR5HLaGMnZ9Ob9sqY5cmW0dkrc5m+px9VN/RA3+H2lM3W7eZ1a8D3GQi66C9HWtJdVjPOCadsRF1vPaMm4fdNmCx1DX9C7kBDFzG7OnNtX4mNr5q2/7+bWwcF9lQRRvg0mWarsLLc2YLbM2JvMD2GTNY42aKiCE4gx17bO3Ys4GsYQ2jAzbMmeE0haaRveVU0J2BGUMIAIyRadwTDGc/KXNYyYLlc8BoIqQLcAWgHcYA69K8ZTNIWdbwUBk9xkTI+VJyduMkJCqMsm3ZTF+4n6Pm7sRPG0+0fdlj40ntY+D4S1uYPmsLm9830HviZLL6taSdWB90Vw3A/62XeXhOnpvjH0fWtEg6n9zH464P5V6e99pLpUAoIcGBYLZgAQwu8xBNU9aSHd+BN1c/wSynKXbenvdm2pm/iJ/91wzWOFQb4tcOLBaHQHAc6WNMGCuLWPNc43FO+QseJW5CtjU4YG0xRj9rv3DU3DljZDozH+jEZwdymD4rmxdqQgl3nY9pHE1qfCCWkv0sbDQVaw9HP7yMsWcMYyMDgVAS40IxWqoofctxvWbuSx63YeMXzj3GEpbNyWb57koMfYaTOs7eT6yjE3sbytm8MJvps3I4YO7B2KxJDLKtkZg1hsTuF8lfl229Pj/swMApaaSG2lYITWPOxHDav7+febOymb7uz3wRPoQlGcNtKxRSehpC+qUzqAtgjGFmZCCcq3IOzjd3n/fi/umxvwPGMcnEh16meOfGxiNyvLq2IPqx4UTfVMWBtRsdriEbj/3IOmKqN2VssB3vnMqOxD+Wzlj7Kq3R322jqtqfsJ6TeS+V077PcLIy47xsp5XF7GE0mMVCNWAMNhEAfHkF8GuH9fboRX9PSCMjsSOf7bX2o3kvVXJjbDKrpjSMvHO+/nLIP9+RxMx0xhrdLXdzfZLIktkxdKspsl4764r4rHsMWU+Ptk2h9nx9RmdOJrUPHN20hemzslmeW8WNw5JZNbL5w+NOecXfOXiotUeIiojIt8X1PXLLRbuIbgRc/go3f+B168a7winbvJj0E1/BzVGkzhjGmAdPsPb1pv9WdGP8wyR1P82Web/hL5egXc8ksiY8TPz7z5J/0X2ZkMSpDLmrhvyVufzlkktdXT9my7zchrrG2+p64wTV6WHc3+4QBy4D3fsQcfNZig9pOqNcA7EL+HVWKMcXjqPlE3Gt03Y6nypg1ktVtnxOOOWpsk4zsfDmsmUcdc2fY58iFz6UJY9059SLW3jJNgfPaVriTT249dNXmf5SFV3jkpk5bAhzHiti1LpSML/MpCHOo3mKI6IYVD8qwDqS4+zhnIaRHF1MxPaq/w2d36zK5qg/mP7veCbcXukwBdJhWqIxmSVJoZgPv8zCtxrn3Mk/UUVyQhwrE0tYmFeK4YF0HurZDvOxcmvA60App6aZGDgxjehPsjl6KYax00x05SJvHm5ou7FndyqeyWbzOesUjvgx45l5KJU15fDaO5Wk9zMx9bE4Hl9XgCVyNDMGBML5Ug616LxFMfCujmDsyNi124jOd8kNBoTc3oHNq7MpxTqFaNCUNI7vzcTNmKXGyrOZtAA2ZoznD4PHA5c5+0YOs9wEEVJXLSCZAmKaq9g4mrH9OlKxd0+joGL1Wy+zJr8UKKS4SygFU+yjvwJJvCsQy4k8Zr20H4DiY5fxXzmczvaUjd62MzacML928MBofnt7ZKM8P6b0RAYFVJIz92XMrnmlvDzvAAMXLWBJz3LmPeT+wTc2sjsGPxiU/jS3xxS45FrzrNl2NhLH2D6BWD7aw6u2b0KmDGdgUB1nT9/DxoO7wHyR4rznmb6tiSl7/YbTu/tlyg7sd/q66XMGgyICMZwrZe2KPOsD8LFODOwXSi+H8oMy4jBducjZHonsO5jYaIRO3qxlsDKdmWs2MAGgppycxc7B92bvS15sA4Ar5eTPsY+uuYipzwIG9xkC217GOjqxjuIVixpGreSYiJ3dg3594LVj1hF7FQeWscY+guev4QzaE4NpANYRZsNCCfn8FMvnNYw0yonZxpwfmejNHoopZc3UjZA9nqxdu8gCLJUlrHnCTfC9qfu8x/unN4aTlRgK56oInbiBwilQU17EC2mryXf7K1Xja4vQSUwY0JGayipis3cRj0ueKY/9qICFI5z7bXGAifheoZgGAwdolf5ujA+zjqqa0zCqymJczISbOlpX8NjOQkpPx5GYsIDEQxvJO92BQRkx9PKro/iUa7+fRPb2OMj5Fa94dR4aDLq3O8byEtLW2UcSl9E7dgPxPSOBUsA2YvTQFltfhOK/GvBfZcL/DsCr69NEuLGKQ0uz60fkpfl1ILt3B8LBq+vz6OJHiXFs+LFODBw2ml4RwwGXHHse2Kci3h8b43llERH5zrm+g1vtAuk97EHCAL8fhnP3XV34R8EmDnssaFPxNq+csE1F/KyIA6X3kxrxE3i9qb/6GInr2ZV/HNteH6S6fCKXzMea2caNdxMf9S8utfMj6Idt4TP71EdrXZ++/weqA7rSA+DiXzhxfgy39wFef5uymqn8ZIiRA/lmesSE0bmimP1NBNBEvhZzHV9eubo5saZp4xncpZK8pW7+0g7100wsb73MMnejH+xT5AKsf/W2nHczFe65GcQ4PnwfKyPsjg0k3hGD9Zd02/SLhO4EtHEsWOlUTW2NQ9++4ryJmlOF1AABvxiP+ymQgcRnDqG3pZTlK9z/wl2xbgs5dzxO8rQF7JsGFvNlDIYq8nfa189j3nMmfpMew8pdMXDlMmZLO8wl+/m17QFww4RfOSWvL57aA9OeGOvD2SZgdzYbei9mTsIk/pAwCcyXsRgvU7wzr0VTOBxzy3SNS2Zm4hhWfV5iy8Gzh1k/d9zHhimDvWMhz5soWugksjNjuPGEY86YZFZmXCRpmfODZK3lMhiav/5CHonCRDnbX2wcyrGOeLL53IKlfvRXFF0DwHLWcdRQARtmOWzf23bag7D1uYIy+MSeGywijTmDO1G2e1WjfE5Wns+7nfnSZWimL9qDsPW5rDIrbTl4vOCxnY4iSV4z2iEQBhDD2AHdMZgrOZr7Km/acwWNmUzWqUdZ+JZLFRGjWZ/uEPh20PQ5szFfaCaoMpqH+nTAUlNK/qaX6nMaxTvkKBu0KJ2Zd9WRv7ohp1FyRjq1JbYcZp7uS15sA6gfXWNVivmS48hXgA5Ez95F4WzHuuuc9jUkcQOFic5bL3McqXaTiTkHdzHHcYXP7SN4TKSuGk/iTeVO+Z1mPp3O2RGrnQNcTd7nvbt/NmtMDL1vukz1iRI2rLb3oyhmPj2aQ1Nfdrk3ubu2oPfIewgz1FF2rIBnC+25wRzzTHnuR07TBes59P9W6O/RQR3AUuVw3uHoc5kOx9pTO0tZ83QBplVxzNy+gZlcxnypHYbKIrY3uhbrsFjAcMX1ey+FxrDvoEug5yP79dmdzje59EVzDgsnOa/e7PUZ2gkjlzE73E/MuctIybV/8uL6jBjNyieGEh3czmkbLfv/TERExLPrO7jV1p9bfhTMP4GvLn7M/ue3cPjDf3ld/Ivzp3H8Na/sfA38sLldDuTGDvDPf7bkv1wzx15axR+7pjB3TAqDV77Agc8a6uoRNZZpfR3X/xflFoCz/PG98yy+8z5uzD/BgHB/yg4VopRcck0cW02SbcpuaoumAgxn7AOBWEpeZkNT0yPGxBF9UxV5y1qWP6N51mk12B/E+o0nPTGQL2wJkwGIS2b9sFbbIJBIYlQHKvI2NjESAaCEDZNG8uvgKMJvCmPM0uGEF+13OjbmvYv42d5QwvoE0jVuNEsegLwXm8hTBvXT0+r3lSryFzxKfpdIegd1YtATkxh8vpDNuS1985RDbhl7sLBfIrzUxBvBbA9XBoN3tfceeQ9hl0pZ7pAzxhz8AuujYoingHyHdbenjWQ7wOAFTdQWx4R+gVg+2s8rrfzE43U76/OU2QN9YcTHwtFDMGhkJCGXTrH8uaYTjnt73ouX2UcxTGqYSuXAHoStz8ETGcNACmyjeprnTTsB69ShVZNJDK4ib84yh0CYPX+Ow0gOW66g23sHwlsN16AxMo3sJTGEnC5k1uNNBL6v1uBQQgx1FG9b1CinkWkAsHc0D0V1oCL/CYecRh0I2z+cQeMC2f5Mlef7ksdteNvYOoodRqNaOb8Mo9GLG/D0Mg0aXjLRZzgDwy0cXeGQ38kcSO5KE4nD4KhjO5u6z7fC/XNQeCCGz0/xwjzXXIChxEJDP2ry2oLoWzvCRwUOI41sOQt/ZMJIAWY89CPjeFLHmeoDV2aoHxFs1xr93Rse+/vJjaT8Vx4hvcIw3jWUVY905+hOd6MwG0bVDXJN/uoNpxdy2NS2IGiJF9dnczxen4FMmOrwYhEzQChjMocT3qJWioiIeHZ9B7dcEso3z8gP2jt/c2NQMO34W33AKOyHAfD/3CeVt6riizq45QdGvP6b0hcf8/aJr6g+8Rv+GPE4/2dsLMWrD1Ftq+vTI8tZsd/9Nr/40wk+jQ3npz39CfM/TcGfmmub+DrXPFqb32wik7eX5eEG7wr6dSAEbA+fgdakspda9jY6Y9RoCg+OdvjG9ZfnQBL37MLxj78tiVH0TpzEQL9yXthpnzZnbac16gP8JJAAqjhgn8YEGKOTG9XjHxBDfVLrNo0We6XRX7E/b7yO+XQ5t69Js+Z+Wezu4bmcsn8msmRYIGfzHd+4GEPilHvwP57D9vqEvgYMYA3mOTpfwpdjNhDfvYp8t295a1pixlriOeyUz8pJ9+GMTexO7RsbybO3zXa8LBb3RVwF+LVr9J2h0TE3YLjJ4WMbwF2umoQ4ene5zPGdW9xeN/5+JrAfgZsMDvluijhbM5refo4jaeJIXTmczoUzWLjbi3b2mcTKR3rwyYuZbGiuS7oZXdP4/6amzrub/bCdd7Nth3tPXMzU0E95ds5GL6eJXWU7I0az/klb3qLHM73I4dWYKXkxSx8Jg5I9pM1yP22y6XNmY+xEb5qYEmdp6PrudWgchDW6i8o2c1/yuA0bg8EhV6ctv9jnjvfPDrRv0/SLGQDaG2jyBRIA+LWDpl6mEdDOKXegtU3Q3vW75u7zXt4/m9Po/uSOp2vL8Q8WzWqiH/XrToihjuP7tlD/32eXOKeSrdHfj56rg0iDU47W6CmLmXDTn13uqc33d6iiojyO9UvDwN1bhg3O22jvMd+iGwZD09cOlVR/DiFO951kslaZqHbY/2avz/ILmAnEGEr9ixqMSRlk975gvVd5vD6jCOsO5hNFbK/PldWJll197oWGBEPs95pYpjclioh8F13fwa3m/O081fSk55AuHNx/gYDon9GnK07DyLnlPkb0LOSlE1/BzbH8n7tuoOyPbzdTqZmCE2eJu/dn3P2aNeeW310PMy+lE28/2XTOrfqyz/+GHvPGMGPkGRbuLLPWFf0L7v6TLedW1wdJTb2bcztW88oHwMVDvHc6lgce7gQn8ryfbiniJWv+pntYPDuRtbZXxA8OvUzZNnt+nEBCeoXRuT3QxfpwaOgSQ+8+UPtJIWXnXV6bDo3/4m+f3lGv5X+Vre4STnxyFKYuHazTVeKsiYtLt9keJN6roibJxH2zEzlaUIUxIo4JfQyY60PXeyg9nUz0gGTmxMNr5wIZlBCKl4OQbPazfFap0y/q1vxcjde0vk0OynJyXF5lb2d7q1hNKQud3rh4kW53RZE8LJTON1mnfQ2aFkWIpZzNO12qiEhjzuBAag6/7PKWN0/nDP78OaQmDWfrJZyOZ1mO7eGiEsJi44juF4j/pgJrzq1HTBjPlZBvG7kQEB5DqD9AB+txNFq38WVVGaWnq+pzgz26Zjy19uk//Tpifn+fbXSELe9M8mLGnrdNVxkTjvFcKQeOOe/PhMFhGM+XNEokb9e532hmntrDm+ZwxiSHYThfYqujirz3q0gcFsfKMRfIOQmmXzxEYh9483fWsh7beawSMuNITF9AreOxqCnlkO1YHN20kem/c3xojmLGyqgWnPc9HP0wmejBk5hzKsc2jS7Set5tl3hxuYVuyQOYs+QyG353CiKG8mhUB2oOl9hGbXk+7x7bGTqJraviCKkpYcNzh/nwB9by1pFGRVSY83jz5AAmDMtg5mnr9Rk9Zgi921SSYxshFTJxLdnJgVQf2sOaP5bTvk+MNSn5lxc5dby0PnjU9DmD105WkdHPxAz7fSkujl5+Ds0+VEjxRBMDxy1grKWAUnoQP+4eun5+ihf2Qv21Fb+AOeX24xmDyVBFnq2dHu9LHrdh0yaU+OXjOfvbU/jHJTO4O5S9Yb9/2nMrLWbs6X2Umm3TOLtXsmZ4Jnn2815/X+qA6RcPMbafhfwUa4499pZTkRTDQ2vGU/GbU5iD7mHqxBi6/TWHobPy6vM7RT+ymLGX7NO+TASYy+tHbXm8z3u8f3ru72/uK+PsABOPLhmP5XenIHQAEwYHYj6239qPPF5b8Ou3ykkcF0X2Y1XW+1Lv4Twc2Y6y3IJG0xrd9qO3KqmwmAgfOp6BNbZjldDDKUjZGv3dnF9GRWIMD9nOOxFxpCaEwWHX6cFN9Xc721R3QyU5z7iM4rSd94fXjOesrZ1jIztw9nCRLVDlub/b99Xej4wRcaSONPHl3kXWXJX26y92PDNP2acZD2FQaBWb/0rD8mavz1JOTUkmdm4apZv+zNmge5g6JpKQ03usIws9Xp9FlFWOJvqOKMbGXrD1kQGEePlHlOaEhAQTEhL89SsSEZFvje/ddPOd/26Nitr7BXheqSUefJTsn15gw4KmRm61JSJxKmN/2gU/4NLfXufo9x8ktDSTta9b34A4ps3bnAiJpY8f4NeWL977HRt+XUw11uWpXd4mbd0hp5+hE9H/ncIv7/KHL6Fd+39x8veb2PgnN4ne3bUx/Bcsnnw35/KWs+FPfs51+X3FP/60ixV5ZfW/Urb7aQrLE7tx8teL2fJe6x5Cub78LNR5Sq3ryC1PI7tcl/+h3JuRW41fFV622zGxuDXJcvRNjUuWNZWE2k1CeWeNEzcDMHgB+zJCOb5sHLMa5R1xyQljqaPMKQF6IPGZC0iNtb5K3Hy6lF/vhf+e2Il8ezuMw8l6NplBwe3gSh2lO0sxjDFR7bI91yTxzXG7rnE4K7ePpvfnhaSluB9RZZqyluykjhSveIJZrn+tt716PTHc+uDd6NXsAESSuvlxkrucYvmoRS7TJL05Z56OJ43yoJhPlzolVU7dvIvk2xpvw/yW/bwG0vuRNOYkhNHVCFyxJodevnALxWbHbcQRHdzB7Tas66ST+2wUX+62P5A5siVE37sfS78hmG4CzJXkr1jG8vrjFUpiVjqPDrC9Zt5cxdGdW5iVY3/Y9LadTR+LxtwnavfmvMff1sE6kqSmkjyX8+6UT+hKHRVFjgnlr6KvurZz8AL2ZZhwfTEh1HHU3k88tHPQkm3WN466+rzU1k+8OWfO/bnm+H7e8htCbJXDPcPTtdMlkTlPDyc+1NaWmkryX8pm+e6mko25uS952Ia9/+cdCyT+gUAMQM2xPcx1HK3mUoelppxXFq9ms/3tpK7H01zFmy+uZp5DO53P+2VqThawcG7D9WmMHM+S2XH0DrJdn+fKeHVFdsM2PN7nPd8/Pff3xu2sKNrXcH16c215bKfteDTTj0zjnmbpyFDrfa2mkrx15ZgWRTrc51unvwckZJD9SGQTfdFzOwGMwxbwm9kmvshbxqhnGge/mj2eLbnPOxzPisN7SFvo8PZHYwwTlo5nRIT1+mv0/40X16cxcjyrMuMwBbSzXp8fFbH68Wze9Pb6jBjPxqeGYAqg/pyX3jWewVUuvyN4sOjJJzh4qJCDh464XX5/bH/uj41hwZNPe12niIhcv7681KKxzMD1HNxqNW258YedoOY8X7QkoVU7Iz8MbMcXlRe8fjvj1dTV7qcpLI+9wNpFv+PTr7sdua59M8EtEREREd+26MknqKg4TXnF390uDw25hZCQYAW3RES+Ja4muOW70xK99hVf/ON8y4tdNvOPluXkbGFdXekz7G76RP2Imj+vVmDrO6ClObY8lf9DsF6FLSIiIt8NmoooIiLN+Q4Et65Tt/ekz4+6cbloK2v2upnyKCIiIiIiGpElIiIeKbj1TfnwdTZ++E03Qv6Tqmsu0jmgY6vVJSIiIiIiIiLw/W+6ASLfFYuWPtcqQanqmossWuo2e7SIiIiIiIjId853IKG8iIiIiIiIiIj4gqtJKK+RWyIiIiIiIiIi4rMU3BIREREREREREZ+l4JaIiIiIiIiIiPgsBbdERERERERERMRnKbglIiIiIiIiIiI+S8EtERERERERERHxWQpuiYiIiIiIiIiIz1JwS0REREREREREfJaCWyIiIiIiIiIi4rMU3BIREREREREREZ+l4JaIiIiIiIiIiPgsBbdERERERERERMRnKbglIiIiIiIiIiI+q+033YCmtDUYv+kmiIiIiIiIiIhIM76ymL/pJly/wa3r4eCIiIiIiIiIiMj1TdMSRURERERERETEZym4JSIiIiIiIiIiPkvBLRERERERERER8VkKbomIiIiIiIiIiM9ScEtERERERERERHyWglsiIiIiIiIiIuKzFNwSERERERERERGfpeCWiIiIiIiIiIj4LAW3RERERERERETEZym4JSIiIiIiIiIiPkvBLRERERERERER8VkKbomIiIiIiIiIiM9q+003QOS7IvInvRg8OJYOP/jB16qn7p//5MCBQ5S8d7yVWiYiIiIiIiLiuzRyS+Q/pDUCWwAdfvADBg+ObYUWiYiIiIiIiPg+BbdE/kNaI7B1LeoSERERERER8WUKbomIiIiIiIiIiM9Szi2R64S/0Q+AWvMlt59FREREfNmiJ5/war0FTz59jVsiIiLfNj4Q3DISEXsfQTXFFLx/4ZtuTCuw7s8PPn6dY393XtKj74OEmd+m4APz1VffMYy4aD/K9v6FT79eQ+U/yO+G9gwccDf8+9+8Wfg+ADH9TLRt04ZDh/9yDQNcw1n5+9FE3+Ty9UcFxEzYWL+814mXGTpvz1VvxTggjVVTojAFtQPAfLqUXz+9iJyT9jUCGTgtg/T47gQYgCt1VBzIY9KKPTj3hkDiMxeQGhuIsY31m7LcX5HynPXngAfSyU6PIsTP+Xvnxgwn69lkBgW3s31RSc79M9gAEDGalU/EER3cAQBLTTmvLF7N5pIq5zoixrPxqSGYAmyfPy9l4c8X8ZqbOlz3NXXzLpJvc2mTY3mPPJ2zpss0nMdJbD0YB00dIwDjEGauSib+tg4Y2gDmKt58cTXzdpcDMGjJNrL6dWhczr4vgxewL8OEsdEKdRxdNo5ZB2x19Cxvwb5fI67n7FwZrz6VyeaTDut0GcKcp8cQH9rOw7F2x7t+ZEpewJyRJkKMwJXLVBTtY/m8lyl1qKNl573lvLo+jTGMzRrDhD4d3V+7HvoARJKcNYaHB3QnoA1wpY6y3TmkPbPf1t+931fTuKdZOjLUWg9gfqvhGLsez5qTBSycu4Vi+03FQztb5fqMGM2Sx+MYGGrrKzWV5K1bxprDVU0WSd28i2Ra8bx60Rcb9feaSvJfXMbyvU23073m79H2dcY+u5YJweVsGJFJjtl5We+RaWSNCyOgjUP77Ny0s+njaSJ1YwaJhiLSUrJt/Qgv7vNu/j86vIe0hXnUAF7dP73QfH93FjJxLVsT25E/I5U1XvcjB/0yyF0SCfnLSFpd0ngDxtFsfHU4ISfy+OXMnPryHu/zV7frlFf8nYqKT9wuCwm5ldCQW66yZhER+S67/oNbHe8j/uex9PiiE5++n0vZN90eLwyYmEnPDxaz8U/ulgbSJy6Wzm0bB7ci+sfy0/N/+3rBrR/eTdyQTrRVcMsn+N3QHj+/doSGBNGlc0fq6i4REODPjf4/ICiwM/+8ZP187YJbRTw7/wI57W0fg+5h6iMxdKtu6QNNM4yjWZUZQ9i5IpbPKuKsMZwx04aQOj+dD0esphggIY2MxEA+25vDwoIqusY8RGpCMqvOFTHpJYe2GJNJfiCQz/K3MO/NOgBqbb8fD8p4gYzBHah+q5SKPqammzNuCIOCLpC/MIfXzAB1WMM1MWTNH060oYzNC/dRag5k0LSHGJs1iQqXX+Ljx8RgalPGhln7+BDgy4ucAiDOuQ7CSZ4YR+rSBVQ71GE+tod5/1PeUGF9eW/8B84ZMHbpGBJDL5C/bguvneuA6eFkJkxJI/X9GWywN/3zMjYv3lf/MHb7L8eTeutl2wMgQB3FL27hJfvOhQ4la0og5hquIyZmPjGcaKPzORs7P4PSEcs4CjA4ndz0KDqfL+VouYnoa9GMfhlkTTTRvmQ/835zCiLiSB05nFVLLtqCNf+Z8w4ers/Q0WzMHo7pSiVvlsDAH7mW9twHojMnkxrbjuJtW1h4so6uccnMTBzDqpr9TNrZUFPF3mzWFjhUXVvpsq3hjE0IxVCSx/T/sf6P92WV7beEPulOx9McFMWMaUNYklFlO57e9dWvx7qNgS73lMTMdKqHPMH2VtmGt5rvi4lZjv09kIGPDCfxsXTOHn6C7S35laSZe3T9KklpjIiA0m3ZLoEtKnjqDgAAIABJREFUE2Oz05kQAWWHyyE20KXyQMY+7aadmRlYJjncl2xCJo4nMfwCB6Y6BLa8uc+PTCcrMZAztv+PjBFDSR+XzKrzZaQ85y70dBU89ncHoZNYkNid6gPLHAJb3vcjiGTOlEi6nithlrvAFoEkLxqKiXI2L8hpHBjzeJ9vuYqKTzh46IjbZffHouCWiIhcles+uNUj7m56VJZRFhDOgJ9A2XuN1/EL6Epnv39RXXkB1xBAuxu78EN/+KLqPF9cdi15A527d6Jt7Xn+8cVXLW6bte6vGm3Xz+8G/Awtrs49v070CLiBSzVnqXbdueaWYTsu7Wr5xz/MNNp1uS5ER93BLd1/CIDB0I7vf//7xMb8xOlzvygTAR0/oeT9j69qG85/Ha6joqjA4a/DVVQcr6ICIGISW6fEcPP7OTw8J8+5kjahZG3faR3tdOUixS8+z/Sckia24TJCIjaUblcqyX9yNfnlAIUUR5goTOpBNFAMDLq3O8bKPzNpRZ61LcfKCLtrA/FRQ+Cllxva0a8jN1PH8eP7KT7m3MTwm+rIX5DJmsOJbD3Y9PGIDuoAl8opPlRoDaw17AW3BkFZbibbD1m/KS4aQHxSJ8LB6WE3pHMHOP8pOccKnSuPjaF3UB1Hl9nrKKT4k47kbjUxeBi8tte2nuUixa5l67mOGrjM2ZICFs7a0oJz5jx6oqaogFPu4qPG8Wx81TYCzVxJ/oplLD9cBQzHFNwO87H9LM+3trM4IIoRkaHcejtQDjWnKylr8ymlx+zHMZExWR2oeGOP9XNN1f9n7+7Dqqrz/f8/T7K37NiiYKIEecCTMCFJCoU0kAyTkmcgHRoa0iOWZDppTEmmjh7vDo6WNxVjjeVYSWX+8gyngvNVtCFNJnIGMgxtpBLHRBQSDTdtZaPz+2NvYHO/NTtJ83pcl9fF3mutz/qsW1lv3p/34pNDRv5+qLD5WCX98ld4H93LpjbH7uaF68ho6mtxLr+Z86rrWRbdZJh1vz+jCR1so+R5p2Nm8mP7E4GMjYCiYiDQi7N5G3ngd/ncv+HNjoNbrmT9dXEdjb4rCN+vy1g6eyO7AYoL+fuAdbwWM4IEcslz8bh3nXHiYj+7Oj+H+sD+XGYseBXf5S8zuu30bq+BIML9Paj94I/8OjvfvkyxF6Nvn8zNIYlAy4N9g6Ww3XXemh/9+8Lxii3t57vNH18q2dK0Pynkw/FvkuLj52I/W5rq6vw0x6ST9WgkQd6OrFTnrD+/IP617xmKXnC6p7weSuz8QELHAo6MJOfsM8vnhexqAJx/h2hzjjfUVpLXKltpBCnL07g/0pEt1TbztdtrMZGooQaqdqxnZZ59y0r+5s/I3GiikmBTdgfbesFG7ed7WfN4FrudoyFd3KPtjSSyeFIQxs8LWJndNjAbSAAVrEtfxhb/RWxv91LgJEaHGCjfuoyVefZlS4qN/Ov/S2JUgg/rfuf8h5DJzEvy49Sf1rPSOQPThfv8mBAfjF8fYtNTOfZ7WbEXCUlB3OwXCM55VZ3eP2l3nbXNhOv+em/iw5THYwiqbRuYcv06Cn0kjbF+9RStcATr2x6ScTO4f4SB8q2vtgtkdnufd5GrQxFFRES+jas8uOVLTKgXFR88yx7/eUwcGQYfl7ZMNgSRPPteYq5zw3oRTBdPs+e159h6oBHwImb6dJKD3bGeB1Pvcxx86wXWv28f2tj/jlQemxCE6fw56O1OY2Uh67O2U2GDoEnzmDXgQ9KfcfzmQyyPPRPEgUdfZAexPPbMME7tdSfsFhNc446h4TBbn36JPV8NIXnuREYNBIPvQp4ML2Xjk7mXmW3m6P9N7tisjdDbnbq/ZvPbN8qx4UZI0kymRHlBYyNublD7580sf+uwY1kTw9IXEu+HvX9nS1i/4n84qAjXVecf/7jIxX/8A6PB/mDU2NgI/wLX/Ms1zZ8vXrzI+YaGy1tBYDrzpofSe28+C/675a/DixdWkpzplBIRMoOXVsfQ54NXmZjZdiggGIcFYd6aza8PejB6+j0kPZDCtLx9bLA0rSOY3h/ks+B/OsiQyFvG3Xmt2wswGaChnrPOX1rrOQJ4Dw6l4WgZDRfAaHQ8GDz8NIXJfs2zRs1/k8L59p+bhrysm/dYl7ui9XCrUBa/9yaLgZZhiYWUHY0j4fYMxmxdw05rNLNH+MCJMscv8W2HSsVR+F6c/cemIRpGMGLrPjPJFMr6P062PxQ11FO2JYsZL9sfXMypGSxO6kf5li0sLanGHBjDtAfjWTz/EMkrnAIOXR2zSRnM/qkXx7dtYUFBNb5xiTw0rH03AiKDyHs5iw2WYFKmx5PwSBq796ygiFyKPkshalg0U0bsZdM+D5LiAjE3VFP2gX3ZkhcWMtWpLfMDkdxsrOCNPzge/orXM8f54dacxtjhBsq2bLEHaJr3RTAjzQWsmHeIPtH3MGt8IrMeyGfGy9U0ZVWFG8vYsLSgwyyLpMWpJPlVk/PMRnZ3kGHm2v5soOFrwBxKgKmMIxcADJibhp222db2uu8ndH0dGXsBVheyIbo67uPTmZ/Uj+Nvb2FpYUcZJ671s6vzkx1rmOEIyvh21L9ur4Fy1s2YZB8G3MwDoxHOWluXHjAOns9ruSPsQXNLNTufX8bSbdXth9klv0lhsv3H5mGJ2yo4khzN6PnxbF6RT8OIdEYOhqo95S72s2lfdHF+OrJSrztUwMoVZVSZ/Ul4IJEp/5nBR/etoaRyPVP/vU17fY2t1xuRweLUQGjO4LmLaUk2qGlZpPU53pStlMGpe+xZVVELf8WsiAZ2vrCRvIp6fMMTeSglhdWVufYMHhevxbPWMiCQgMH1HDnaQANgbN7JSSx/IprrTxSycsVHVA0ayczp0Sx+8jR3z3wViwv3aICoRxOJ6ltN3m/Wt74PAJDL0nRHUMa/80PSYOkuW9GHKU/eRWjtPuY4/z8H0O19Hnb+pZKM2wNJmBRN0euFGMePILivjSOH9rZqqfP7pz1jL7xhH+uW7uEziw9RqYmkPJpB1TZ7xp6r17s5NYMpIfXsXNA2MOXidWSezKwEHxr25bB0Bx2IIyM1FHPlXtZ2kJXW7X3+EjQNRfxJbPQlLysiIuKKqzu4dcMogryPUrS7kdJhh5k4KZwYStnjmBw26V5GNX7I8t+8y0kb9I+fyW8m3kv5gs1UJEwk2e8oGxdsptQKhmHJLJ42kYT9z5HHnaQlXU/FS5ls3H8ODEGkLkgl7RflLHzjcJddsvMl6Jps5s0tx2YYwITZvyZ+zBD2vHGYrU9m8vWjmQwry+TpdztvwWD2xd+v9XfX9nL6MDScCO9q8jJfYsdXwHV3sWDhOH62rZy3uJOf3wFFmUt46yswDElk+s+DCOMw9tCfFxx8loys0/Zt+89Ufj5uJwff+RbDHeU7seeDg/hdf5LwsCC8vDw58GkFVSdrCb9lKAN9+vNp+d/5/ItKak9f3rEzJwQRYC1n3byWvw43mDOZ1rdf6xljgwkyGeCnk/nvoSPa1McBPitkjuOvwyWnAol6KZLwJNiQDYwLJODrQ6xc0JIhsSX6ZeYNCSWcjv66G8eUCB8aPs/lj20nxS7ilcWBfLL0Aaqcv9+aza//4gHBd7H8QT8OOQ2vaTvkpTObV2dR1AdCf5nGtKGVTsMsmoYllrF25nrISmPxm/bAV0PlPtbObXqoaBkWNuaRdBLYy69/53jYaRq2taOMQ4+EMnp6OlF/z6LIGs2UR0Lx5Qy797T0xTzMjyO/y2LDCXtwISE1jdm7ZrG2AizZc4nLdup4cSE3j32TlCGhgFNwq4tjNibEB+OJMp52yjwYfXsgN7fZJ6c+eJW1eWVAISUDAil4uCVbKWfOCliVwey165gGUFvBlsw1nQxRiiNjbCAN+7fYA54diHo0ktCGcta+3ObB9EIFec3n5xlCIxYxNiIeXn4Ve1ZVPSVPLWvJstgSSuwT/tweATuL7RknR3asYG1TJsffghmTG01oDHAp+xOYtXqRvdZRm8TF7nXXT8dsXVxH9gfqUGY+GsfjzxTQMGIyj8X4QE0Zu5xX1dVxv80Pc8U+0p/JsQe9issJj11HwrAR2DNOXOtnV+dnt1y8BpyZU0dws+kMuwtaH4+AoR5sWJNFGfahzGMeTueTbQvJ+SCHx+cU0JtIHlsVCU7DF5uHJVZkMWMRrJ+fxjtj0wAbVX/a0hLscLWfXZ2flleZEe+UWQqUhEQyxikrtTUfpsQGYjxRxo6mc+I2f3wbKtjQnMFjP2YBzcs4sqp2bXRcq1DyNyN9VofS50dAMRRlPkSrcEGxF6PHtc/gadLptQiMXraI5cMqWHBPm2njQgk2V7Prt1nNGbjpJg+ywj0IBkpcuUcHzmBaTD9qK6uJzXqTBNpmUXbHHphKGr+IpF3ryTnqwZj50dxsqqfkUEt/7cMeG9i9YgVF7erddXefB95eyAwyyXo0ne0PpsOFesq2buTxNplmnd8/C1h6X+ugWol3KAk3t2TsuXS9m1NYnhyIZc+rLP2g+xpwHV1HY+bHEXrhDFX+SWx/L6ldBlnAw4mMHlRP1dGRrH/vTbCcoSTn9/z65Y6GL3Z/n+9K01BEBbdEROS7clUHt8J+OgzPz3byng34+EMOJKUSdocbe95vBMKICIaDW+2BLYBT+c+RkQ9gZsIwX04Wb6LUMRTHdmArCx+1/+x59zD8qz5m/f5zjonlvFFwmJVxYQThSnDLQnlxuX2on62Gg8csxA0cDC4ta+cflcYjka2/c+sN1hOOD5+9y9Mr7D+avH3pf70JN0x4DgQOneZrmxdB0SEMLCjn5OFc1q1xbuk4B9493bxtB4+cI6iPD7SvpCDfM5O7EW+vPvTta8ZSX0/Nqa9xdzfSt28fGhps1Nefo+7s5dfbihrkAQ3VnHL6ruj5he2HJjQ9mDTXw5rP3+9r+WW/wVrfMm+FPePK6FyduG8o8957k3nObX5twJu2RpCydjJjvCvZ8ptX25+RlnrOX+ggxbBmHyU1gLc9U6qhprvhSu3VHiqkFvD+eRrQwPHi9sMSZ61OI6lvRasaPLOfzKDqvjUUOQ0Li2pIB+o7GLqVw4LnQ9mcEc2qN6Phgg1LgwHLvnxecWzsumn3tvpre8lMf0Jzo+0PPS/QPAQpKbhNEd/P26yqm2OG5XS3w0bsmRoOXzfQ4JStNGZZBrOH15O3pqW2Tcr8DM7u66AGz/g4ogadoeR3nUWFkkiJ7Edt8RbazdHQ4HR+lmGxOmXsAeBB1BNvUviE80L1LVlVQEDSOgqTWjdb3nR+uro/gbMNNjBebopr9/3s8jp6O4t14ZnMGz+Dd8bPAIuNBrONktdzWl8n3R33wGi2v9fm4fFz1/dnt+dnt7q/BpyZYzJYP6nlAd4ulzkTnIMyLUNFw2MhZ1cZZcUAoTQAdDR8MXAGWQuj8TzgXNMohVXzz5C8osD1fnZ5fjqGgY73ay5ob9e2Nphj3oxFTGkOujix1nO8+UM1DRecJ9qHXra6Vi1bWDrDaZaQyayaexdRzS/JcMzWQS+6vBYBi9UGHd2DA70wY8PiFOC0bF3B1K2ODy7co8MnjSTIWE95cQHPFTbVVoxn8cKK1pnEnSpj7ZMFhK6OY/amdczGhsVqwFi5l01NWUmOYY8NH7zKig4zlbq7zwNjF5H1aCB1zjUgk9JYbSlrVQOyq/tnq6H6zZyu/26vdx8SFsYT3lDGyqe6f5lLx9fRZO6J8KChtoy8F7KbtzWhuZZaNFNi/DBaKina+seWrMDUX7H40ENO7Th0e58XERH5fl3Fwa0QIoa602gNY/pM+3iaa3HDf2Q0hvd3YcMLT1Mjp+o7WtYHTw/45puOf7Ub1McE589R5/Sd7eRZrJ5eDAROXulN6UDFzvaZXWMfzeSOpg+GICbMTCJmsDucb6Su9izXNs+5l42vejFjwr08EesG9TUc3LmZ7F01HdbWqjt/6fXE5LsX8qMbGHrjDbj3NmA0Grh48SKjbr0JAPfeRhoabNwUPJjr+nuyu/CT77YzTQ8mzQ+RQSTEQtGu7hZ0aFNwFmhfJN0czezVvyJpcDU581a0K/4LQPEaku+0/zhr0qVvxrcSkcjo4AaKnnKqwWPxYeuqUJLGQdG27hqws2xbxt3bAgmK8ME3bjLLfwo5f+igSG/zAvbhPzgejqMy7iEpsCmoZP/OninWxrc9Zl2azD2RHhzJm+tU28aDoPxExjzgwybn2jb4MG1sEOaafeS1fRhyMD8Qyc3mMxTtdOUBtq02hbABsHHqby2f2hUepyVbxOX9CWxKn2Qv8j120XfSz65Vk7foIfIGjCB8kBdj5s5gbE0hG7a2yaDp7rgfdcoobNKqEPsl9rPN+ekKV68B7/GLeOWRUNi7hfsXdfMA7wj4GF2sZxk+aSRB1jJWOtU0sgx+kWcjo0mggLxL6Genbk8jI8mnOQgCQFwKz45rO2MgScvnMzsSip5ZxoIOgy6Xy4dpM51eiGCxry91YSLBHczd3bVYsqIpC2wGU65kN4Gof+0Hnxc4ZRYWYh78OrOGhGKmwLX9fnA9U/89h4CbgzAPv4vVD/pR9LpTjb7UOKL6VpOzov3wesCl+/yU8aF4VxQy8amWfvYf+ibTYlMwZ2d1309zGrMeCG0OrFqgOaOtRXfXexJJkR4cyVlPXjcr7PQ6GhtIgLGekpeXtasrFxoDbGuqP+aU+eqoYTY03Ac+uLT7vIiIyPft6g1u/XgUIcYaSgsPt9QkqATP2GHE99tF3pnT1FndMHTwhmKopq4ebrjWTEd/uzxx1gr+7nhCc4DLMLAPprrTHQe2+rk7BZb+b/gnJhLX+wDL5+Y6MtNieeyZUc3Trfu38/T+7YA7/j++lxnJE/nZZ8/y1v9xP+XyXWtyx7OPR3O9LQB3995c8y/XcM019n8eHiZqT9d10UrXik7Uwwgj/Z2+i3o4k2l9P2LqihyImMGqB/35+x8Wsq6LTCijyelCC/SgD3DK+dIyGaBdJpSTkMk8uySRcMpZ9/jC1kMem9vwIAAcdVh87IWTrR1Gr78b3gb6tP3OCL07mrdbFZR/k8TycT5U5Tm/4SqapIdH0ueTLWxqKjxsNmKE5myNcP9+cLSguZA7+DDaOZPDxWOG2YtwOhoa1aKPKZTmAsmtagF5tA8imDuJKgSmMDoEjryd22GxYgjlodhAjEcL2dDRQ5HR+fwMxWyChq+dj7sHvXt1nanX20inBdC73Z/2TmDs6/SxF+BKPaZWuu9nt9cRQM0+zqeuI8Gvmjznt7y5etyNxq6vxS772f356brOrgFoymJaPM6L49s2MmNNfuv/qf0SmZLkx9k/rSenaTlHcM3V8oPeJkO774wdBui66iddn5+3+OBNNTuahv8C5qiU1sub45mXlUrCoNPkLV3WUnDcmcmD65s/2O99NO/vSk59DQHO16o5hcWrQzn1h4WsK44kyA8sB/ayaVfTOe5Fm14097+ra7HV/cBx3C1NB6biNBZ8MAeCYxw35uT5ZIWf5rl5610rLn6BSwqSdq6aIxVxPPvbINiXY6/D1ooPSblv4pzM2Xx+uXCf79PuVudDR3e/Tu+ft/sRYKznk+0b2d10nQ2I63hTOrveHdplpX7dul9dXkcNcJnVOtvr9j5/ic0FDIbYf+lkmt6UKCIil+cqDW65EXPLYBo//R+ytzkVkMeXPsNnEnaHmbx3Sik+lEjqT+5k4CfvctLmxsBx03ki+jTZCzZTcKCKuNvuJmynveaWafhEFkz14sMlz5H3/gGOxUWQPHxXc82t++KGULf/OcoBw8laGB7EWN9CdnzlRVTSLQy8xJce978+CAPl3/IthTYabfb9MTA+CH+wD4+4dSKZP4P/fXIzRdZznKw6i40BtP9VXq5mH39yGEu9lZDgALy8PPnsi2NU15xm6I3+DPYfxJGjx/nyWA2Vxy//hduWvHKOJEVzz8o0qpoKyo8Pgj2Ov9oXV8LCOJIyFnH2hQJ7bZsHQzHXlrHLOQNoaDSrUk+z5aAHYx4ZiW9DBTuaRiY4CjffszaNI5sPYXEUGr7+b1u4a04OBM7gpdVxBNTuY93ze/js2mjCI8CeLbKXI5am+iMjyXwiiacdw0DGBtoofznf5W31Do4msA+Ah/1BxGxfz/nqcsqOdleAmOYaPFEPZjLF2jRcJRRvS4XLWVstRjD78Uh8a8tY2uoNV2e4fngkKeMC6d/XPgxkzCORBDRUsMHx6vaSY2dIuT2UeQnR7DzhQejPExlprm95qHHhmO08WM3820N5rGl/xsVxs6l9L/vfPpnZh3LZbQkmNSUIY80+Ry0gR22bhEXMq9jiGJYYTaixmpy81vsyKjWUgIYKNnVWYPj2RGIHQ1n2lg4KSAO9AklwnJ994lIY6wflf2o67k01djKZcnQ7ZRbHsBm/StYmLiSnqfB9TArzEnDsr3uYcnsDeVPtNaK63Z9N60jJZEqN47inBmN2ros0YATh/2oPTNljfB6ER0TbsxM/KcPSbT8durqOmoSkM2+sD7V7Xm39ljdXjrujjk/TcTeHxDFrUijnty3jP54pc2F/dn9+Yg4l9Ef96A1cbwQwcn1ENOHUU1G8z+l/ys6uARizOJPFMQbK3v4jG4rqCY5wDKM8W0nJoQqohKDYOKJu96GP87ae2Eeei5mJTfviobVpnG0alnh7Pyz7t9P6/Rad9xPo+vz8uJra5FBGPZFEkWN/T4sw0vJ+4kSWvzSZ0b0qyHk+l93WIMIjguyb+vdCymuAvxyjKjmy+f5JyF1EDcJpZKPjHI9NY/ahpqFj8YwJrGbD3wD2Ul45magfRTIl9rTjmMYQ0FFUo9Nr0bGOsTOYd6jpeh9hP+7N9/kyDj2cQuxv0il7wVFQPnUEAUdzW2foduGVDypIeiCSrEer7cMSwxOZOMJA+daC5qF4ATcH0b83MMAeTjIOsN/Hm/eXY76EhfGEGyvZ8rstHQ/bbdYmi82F+3zegWpSxkey3un/o3tC4MjbrbPLOr1/mis50hBK8F1pjK51/J843r/jQFNn1zv5rJxT1ioQZ68X2fK52+toVyEl00MZ/cAipjQUUIY/CQ+MxPfrQ7y4DSCH3QdjmDZuPrOP2s+tqNR4wntVsuVS7/OXKCBgMAEBg69IWyIiIk2uzuCWIZywgEbKXy9tM6GKPWWnibplDP7v/A+lr29iz8wpLHgyGqut6W2Jb9qLqudt5o3rppK6fAmcB0PvcxzMeYG8MwDvsvENH2ZNXsiai+fA4I71UC5P59hLWNt272JP+L0kzF1CAueoyCumYrjr/wm/t7OEqLRU1tx8mK1zXqKTGrpdOpabS9H8VBavGoX1IlB5vOWh4a/byB85nfuWL2HCeTD1buTY+2/yViV0OA5BrkqNjReoPH6KwABfGmpO8cmBCs5arAQEDOL06ToOHznB310JynSlIov0ZzzIejCe5ZHx9lfE781lZXN9k1zm/KYfq+bexbTFoQBYjpax7snWBWsbDpRjGZvKsw8Y4MIZSv7gVFC2IouVL/Rj3qR4lq+Kt78i/mA+C5Y6noqG+nC9CYx+I5i1fIRTq/UUrdjLnB3A21msGDyfjATHkJ4L9ZTnZLcr4NuViY+nO70NERiXzrPjnN6e1q0cFizyYvkTcUxbnG7fFyfK2bQoq8PaNF0JfTiVhMB6ip5a36bwbxnrHs/GuDqFpIx0koCG2kpynAq1F63JZeeQFBIy0km4YOPI3u3kfRbHLJ+mNlw4Zq+vYW3gImaNte/P2k/y2XXUj9g2/Tyyt5ygB9NJ6ovjVfYbHX+VL2Pt41swPplo7wfYCxE/k9W6qLg5hZQIe8Cg4wLDPqT8IhRvSzmvdFC8GgDrIT6yjGDxqniMQG1xLuua5y1j7ZO5+M5tOSYNtRWtjknO0mwCVqeQ8Gg6Cb0ASzW7n1nT3M/u92f7ddj3p1NdpORUnk12HlIUybOrIh1vySxjpwv9hG6uIwBGMOuxSAKsHdXZceG4d3AdHdmzhfRnmh5Iu+tn9+cntyex2vlNhQQxbVUQ9reO7muu19X5NQDB/v2gF4QmpfCsc1bK5wVET1sP5LLgPzva1rZvjOvC21ksGJDOvPEt96WqfU73JRf6CXR9fn6wkRf/1HKdWY6W8cq2Y9w/3cuxsB++AwACm/dnk/KthfY3CBavYWn2k/x2UjzLR8RjObqPHfvrSXJKt81Z+nv6/zaN+x5NJ6lX22NSzYbn8gn/r3imLQ6y3zvf3kLR8DTGttqQrq/FdtdR2+PuuD+uXhjHvFX2GmW1nxeydG4HtRM7Yclew9K+jvNzPI77/EbSm9/SF8nM/3J+Iy2EP5hOuPP+AszjZvBQpAdHcrLaD29vHrbbpG0WW/f3+SPPrGGtMZ37xzpdR9ucryPHfJ3dPy0bWbclqPmYUltJzjNlhC4bQWtdXe8VlBe33jh7vcgW3V9HBSz9Lz9Wtb23/abpnlHNprnZ9Hcc96Tm496mbEC39/lLs2jJk+2++0nsj/lJbHSH00RERFz1L32vu+kfV6Kh3qb2paP/z5i88Pe0cfKkpX2mlMHMQB8DdZWnaV+W2w3PgQMw1FVx6vJrdn+H7P3ztJ3mWO259pO73Da52ixbMrfD7/uY7Sk1Zy32o2hy743JZOj2DYn6JVBERESudsuWzOXIkaNUHPmyw+mBATcQEDBYv9eIiEiz89ZLH710dWZuXSrraY51Ft2xWTjZ0YuLAGik7mTVd9SpK8Hev04rLnW5bdJTNAW1mljPncd67vz31BsRERGRK0tDEUVE5Lv2wwhuiYiIiIjIVUcZWSIi8n/hmu+7AyL/LOq/+eaqbEtERERERESkJ1NwS+T/yI4du65IUKr+m2/YscPFV4aJiIiIiIiI/MD9MArKi4iIiIiIiIhIj3c5BeWVuSUiIiIiIiIiIj2WglsiIiIiIiIiItLOy1gaAAAgAElEQVRjKbglIiIiIiIiIiI9loJbIiIiIiIiIiLSYym4JSIiIiIiIiIiPZaCWyIiIiIiIiIi0mMpuCUiIiIiIiIiIj2WglsiIiIiIiIiItJjKbglIiIiIiIiIiI9loJbIiIiIiIiIiLSYym4JSIiIiIiIiIiPZaCWyIiIiIiIiIi0mMpuCUiIiIiIiIiIj2W2/fdgc64Gc3fdxdERERERERERKQLjQ2W77sLV29w62rYOSIiIiIiIiIicnXTsEQREREREREREemxFNwSEREREREREZEeS8EtERERERERERHpsRTcEhERERERERGRHkvBLRERERERERER6bEU3BIRERERERERkR5LwS0REREREREREemxFNwSEREREREREZEeS8EtERERERERERHpsRTcEhERERERERGRHkvBLRERERERERER6bEU3BIRERERERERkR5LwS0REREREREREemxFNwSEREREREREZEeS8EtERERERERERHpsRTcEhH5oTAEMWH6VJJvdW8zwUxIbBj+30unOuARRvKvpnLfj83fd09EREREROQHQMEtEZEfCP/EROJuhBMfn3P61g3PgcFExcUSNdQLU4dLuuE5MISYcZGEDTRjcGFdBs8BhP34TmKGD8CzkwU6nae+lKJaL6LuvpcYV1YmIiIiIiLSBbfvuwMdMxMSO4ohHT6FneNwUSEHz1zB1fULIi7KRPm2Uo61meR5UzR3BDhnQZzl8J9LOFjXeAU7cIXcEEbCv1l5f1c5dZew2Pe2jcF38USSD0W/z2bPlTyegP+tdxJk+ZCCTy1XtuEfipDJrJobR9RgDwAsJ8r5438tZMPBK9iGOZ7Zq1NIuNEDYy+gtpK8P6xg5bbq5iZCUxYxb1IoAWbggo2qfQUsnbORMpf76cPoR+aTkeCHtxG4UM+RHTnMeCoX14/8CKat+hX3jOiHuRdgqWb3H9aw4O2KTvtZ+/le1jyexW4LQCKr3ppMVF+nJhvqKduSxYyX99k/P/w0hcl+LdM72tZvyxDJhCgvrAe2scfm+O66SGakJxLi6fg8M4MYaw17XnuOrQcc17fhBiakTyHuBsc9ID4R28m9bFydy0Fb25UAuBF493RmxPk6AmWxJJ+vYU+2U5suzHMs/wAno6KJijezJ0/XqYiIiIiIXL5e7tcOWHIlGnIzdJwPcHn6c3NsBEMH9qWf1yB+NOJmAvte5Jpr+9LPywPr4U+oONvV8pHMWPFTTH8q5agrq/vXONJSbuSb7SV80XZS/ETuC/figpuJfl596ecXSvz42xnw5YeU1ly87C38Ttw2nlmxfTn43kFOXcJi39s2XncjP77Jg2PFpRw91/3sl2LUvVOJ7VtOwSenr2zDPwihzF79EGPNR9jw1Otk7z6DT8RIEkYH8+kfC9sFeC+3jaTly5j6ozq2ZW3kuf+pwPqjMMaPC+PCW+9S2gAEprP2vyLwPJBP5tr/R8FxT24bczuxAafY+n6Fa/0cP58XHvDn9I6tLH6xgNJzQ4hNiOS2fxSSV1rv0pZELVzGnNug5LXXWb15H8f8RpL0szCu/XM+fznTvp/vlPViZPztxN90gdd2fgoEMzYljAvvZbH4xb1s37mXL0w3M3b87QRVvU3BF8CtdzHV/wQb/vN1snfupbDdtl4BUfH88mYTf9vxR/ZVAfiSPPs/iLi2ioKN2zkV1Ieyde9jGT6C2yKu58y79mB+0C8f5pchRiq2/Y7M57ZT/PX1jIwMY6TPCd79uKb9eoLH8/i9QfQ+8i4rl7/E2/u+5oYR4USE+XC84BNOujrPuXoGRdzGzYMMfPL+pQXkRURERETkh+tCo/WSl7lKM7eqKHjlJQoAGELqsqn0/+tLrHu37Xzu9Pfzwu1sDSdbZRmZMJncOxh+44bnwAF4cpaTJy10mJTQkZpS1j23q/mj/y8zeOLn4yg4kNscCDB4DmBgH6irrqHO5YY7YPLC39sda20Vpzo4niZvXzwbnbbXYGagTx8aa6s6DGi53K9vvY32Y2GynuZYbftIlcnbl/6mc5yqPE3zZh3azlMruuhTO12vw96/Rk5VKqDVtWhCB9soeX4hm3YBFFJi8mP7E4GMjYCi4ivRRiJRQw1U7VjPyjx7blLJ3/wZmRtNVBJsygbGBRJgLWfd7I3sBigupE/Iy8wbFkk4BZS40M8xt/lhrvyIGU/lcASguJyg4etIiIyH7Fdd2o6xw/ph2fcqc7Lz7f0sNtI/K47+w4EKYGg/rqOaHSs2srvG3o/nBmcyzc+LUGjOvGqwFFLi2HclxV6Ej5jMzdHxsCO/aQ6OFxdS4rytI6IZTYF9+7+lkH/zwcBpvvyk6Ztg/K+Dur9u461PIRVo+HIv2e/4MD2qDyY/oDKMmOFmqNzFxvwabMDJos3kj1xI8rBRxHCQPW3WE/HjYXhSxY5XdnHSBlSVsPHdMFYmBRHzYyj9s2vzQBUVx88RM9yXIHAxqCoiIiIiItLeVRrc6l7/O1J5bEIQpvPnoLc7jZWFrM/aTkVAIgumhjMQN/xXLOTWjzazfOthDMMSeeI/Ihl4zTmsuGG6eJy8NS+y46tLX/exIzXYhrlzLQBexEyfTnKwO9bzYOp9joNvvcD6909Dv7tYsGQY5avWsLUS8Etk8ZxIGgtWsvwdCxBG2oqfY9qWybr3+9jbuckdm7URertT99dsfvtGOTZieeyZYVg/9mLoTVD70WaW/3+H6X/nQzyRMBg36zm4xkrxAeeAj71fE250p7ER3NzO8dlb61j/Z9eG/7i8jdC8b72vOQfXuNP41V42rXUMaTIEkTz7XmKuc8N6EUwXT7cMiQpOJvNXXrz/6It8mDCTzNuqWbdoK+WOPsT8agkJjbks3FACXa0DL8amzyQhwA3reXCzluJi0s4/sQYavgbMoQSYyjhyAcCA2fvKtnHWWgYEEjC4niNHG2gAjM41xBsaOAWYB4diPFrG+QuAyYD3JawDaz1HAO/BoTQcLaPhAhiNHi5ugxdmE3DB+btc1qbntnz87AxfEUrUg/F4r8inFih6fiFFLrRu7GXsdNr5C0Av6HyOS+PvbYa6LzjWHHiupq4eAoePY8JHhc3z2T7KZd1Hjg9+g/E3wakvDjhlTjXy4ec1JA/1ITAY9hxyXosvgde7w1dH+dhpKLGt6DAnk4YwKGAI/NnqwjyHAThxxgp44x8MtFqPiIiIiIiI63pmcKvfnaQlXU/FS5ls3H8ODEGkLkgl7RflLHwjl+Xzz/LYM0EcmP8iOwBwJyJ8CLb92WS8UY4NN6KmzWPC3WHseKn0ElfuRkjw9RjOFnMC8EyYSLLvF2xcsJVSKxiGJbM4bSIJ+58j70whB6qiGRZuhkoLnuFD8DzfiGFIBAZ2YQsOItDtKPlFjTA0nAjvavIyX7IH3K67iwULx/GzbeW8dQbAF39bNvPmltszzm5IZNa/e3NgwxKyDzSCKYS0+RMBRz2jkeNICDjOf/8mmyIbmO6YyCPBtzDwz4X2IUFXbBtDSJ0Yju39Z5m3rQYbXozN+DVTJn3B3FcOEjbpXkadL2T5b+wZHP3vfIjfTLyX8gWbcd7zdfnFlI/+CaOCofwQQCRhQxopf70EGyGkTQznm13P8lS+Yx2PtqzDP2kqCd6HWD93KwdtYBo+kQVTgROXeGj/Cc1avYgUCojO+e7aGL1sEcuHVbDgnuqOZ2AGWZviYMu9vHG5/YxdxCuLA/lk6QNUXWL/u1WRxcqtgWQlp/FObApHivey5YUc8o52tj0+hD8SR3hfG5/8JbfDOcwj0rkvwgPL/jJ2XuHutuSwHiR7QyGPTY8mbnoyAHVzJnLtzp3878f2LC3M7hiAU3Wt95rtQmdpniZMRqD2bOtMKxtOmbCuzGN3rO4scEkRVRERERERkXZ6ZHDL845h+Fd9zPr9jkwlWzlvFBxmZVwYQRxuzvxpcY6i7GftmRYGMwN9fOhjBJPBy7UVDo7lyRXR9p+vcXNkH+2iDjMThvlybP87nPL2xR/gTCkHalIZGgG8a6H4s9PEDYnAQCGjhnhRsfND+sYPYRS7qBg2GM/KEj60AZ+9y9OOIXomb1/6X2/CDROeA4EzABbKi8ubHw49Rwyhf+WH/LapgLP1IFuLawiLcMxw8izfmIYRctsQyj86zKn3N/PU+9/BNtbeQtA15Wzd5nhY5jQ71ixxBBXDiAiGz/IOYfBxLPvpQSrGRBMWTKvgFrYSSo+MIyEqBA4dxHDHMAKth3jhY2DkLQRxmLwyNwb6+QJwcP9R4mOHEcRRQoZ6cazo2ebi19b971BcFUIE0p2zDTYwfptxtN23YbHaoNNgCUA9DQ1gvND5HN3201LP+S7X8e2UPf8YcVvjSJkUTUJMHPM2RTL6qbnMcSqOH5T8JoXJTZ9sVP1pCwvedmqkbyiL33uTxY6PDZX7WLv0W0QVXWA7sp2n5u+i//Bo0u6Lpr93CHH3hxB1+F2eytrVfW2+S/0fopcbzuG1zucRERERERG5cnrkU8agPiY4f65VAWLbybNYPb0YCB0Et6D/HROZMS7EPizx/FnqLro5gkYuqD3MnpLjcN7E0Phw+NNGxxu/fPD0AP/IKTxyq/MC56hosP907K+HORU1hFFYCfI9TvlzpfQdFUHQSDP9h3px7ECxPShkCGLCzCRiBrvD+Ubqas86hgR2sQ8utM6EqPvGqUhX5TbWv9WHB+NTWZzshq32KHveyuat/Z1Ubr/cbfQ2Y7Kd7qQYtBeeJnf8707jEee69BfPUnwRuMZ53kb2FJWTcM8thFGO582DqTvwgv1YepsxeVzPhFlprR6bG8+UNvfPdsF5ioVvzne8mdLapvRJbAIYu+g7a6NkxUPYw6YzmNLhHK8yI95eH2vM8svsZ/Eaku+0/zhrkmv9vmQ1BWx5poAtz4xg9kvzSUpNI3zbCnsNLeDItiyeLgCwcepveznSdgTw1+VsyNxOWXgiq1K82P38Cq7kSwIbLwKmPh3cA89xav9hTvxiCB8veoljqY8zY2Q0E27Zxcaac9gAT09fcMp587zWXrHQ1tB2LVasDYC5D/441cnq5xjCbGt0cR67oIHegJW67tNJRUREREREOtUjg1snzlrB3x1PaA6qGAb2wVR3upMhd5HclziEUzmZLC+yB3eCJs1j1gAXV2g5St42e7F1/35BPPGTu4nYvZlim72mzbE/r+Sp/E6yFb4spcI6kaDkc9xQe5RsWxWDKhpJDR2Hp28N5S/Yn279ExOJ632A5XNz7QWYieWxZ0Zd0j7w9+wDNBVTb+Tkrs0s3wUYzIQkppE26V5O7s/uuFbQ5W7jSAtWgwHPDnt5mjqrhdLXVpJ9oIPJwW0+f/Qx5fckETEyHFPAWQ6+5XjYrrVgrTvApkVbOdiuETMh9XDDtWagKVLgS18z0MGL3qSJEWNfp4+9AGxYatvOF0hQRD++Kt5Hu0kutNHH5FRy3WzECFicAzpGI/2dPvbuBVhtTutyoZ8mDwLAXlAeH4y9oMHqatG101isTe02SWLx+kjO581lZR6ET89k5o3H2DBnvePa2ceL+6pJSuhHKDQHt5wLynfMUVC+2Mju2BmMfmAGAR+sd/T72ys/dhqGeDHID6gEbp1IZtIQTuSvZF3zuyIa+exINbaRQ/DsB3x8gIq6SCKGhtGfppdSmLkjeABYD/LZZ23XUkVphYWYW4cQcR0cc9Qs9Iz+NwZyjtJD9lparswD4N/fDNajHHP1Dw0iIiIiIiIduKb7Wa4+de8f4JjvLSQPd7d/YQjivrgh1O3/0CljwZtBw9rE7i46gjOmEEYNNXM5juW+Sykh/CzRF7BQcKAK/6ifE+Z4NaPB904eW57BfTc1LXGYDw81EhYVwjeflVIHlH96FMPNw/CvOkRBq4c6G402ADcGxgfZh/G5ug9M4SSEtwyzHJgwkzUZdzHQANgsVNRa4Ro3l6KZl7SNH31M+cUg4sYNwABgGEBCxhKevD8EKKX4kBthY2Lt/QBMw5NZvGIqcR3W+z7InoONBN0zhqDqUvIrHV9/9DHlvYYRH+9YB+6EpWbw5K+iMTn6NzDi7ub+mSLHEHGdCxv6T6uQsqMGwlMymRIbTXhsGqtSgzGfqGBHm+BM0qpMXlo1n//OmnyJbeRS9JkN37EzmJcQTXhEErNXjyCgoYKippF42yo4Ygpi4to0RkdEMzp1EVNGeFB1YK8jYNR9P3f+pRKL30gyn0giPCKahEfnMzbQRvnefFxTyI4DZzCPSGRVajzhEfFMWZvImEAjFkdAtuQEXB8Rw+zl9n6GJ6STNdYHTlRe5lsOC1izrQJujGTm2MtqoEPH/nqYU3gROMJxb/v4C05c407QuJmkxQ3GgIG+tyby2LghGM4fpvjPAIf53+Ia8B3FjEmRBPkNIWZSGj/xg1N/fY9iwDN2KpkrMkgbab97lOd/zEkGEDMtmZihvgT9OJlHYnzhq1LyHYXqXZkHwgj0BdvRL3DpBZ0iIiIiIiKd6JGZW5x5l41v+DBr8kLWXDwHBnesh3J5OqdpWE0h+XvDmTFtCWGHcsn4/V7eyA/jifuWsGaC/c2Cx6ovczyQrZSt70WyOD6Jse8/x468zbxx3VRSly+B82AwNXLy/Tf5709bFin/9CjWWwdTccDRv4++4Mv7QujvCHYBHMvNpWh+KotXjcJ6Eag83kGmTJt9kHM9j92/kDW2RrjmLMWfVMGN9skn83fy4bB7WfBbe3uma85xMPcF9lzxbTxI9oYPmTX916yJPYet6U2Gr9tzrEpf38SemVNY8GQsVhuYDPY3LRZ0klhT/v4hvrk1nFNFHzoNdXRaR5x9HQZrOVuzCrEC1rzNbPWbTtqKJdjOA/WllH4JQa5s6z+lMtY+mYvv3DimLU4HwHK0jHVPrmiX1XfWUg/0w3KmbWpN923kLM0mYHUKCY+mk9ALqK0kJ3MNm5ouvYosVr7Qj3mT4lm+Kh4u2DiyN5eVmQWu9/PtLFYMnk9GQgrPjgMu1FOek83j2Z0Ve2+vKPP3bFr1K+5JTSOqF2CpZvfzWayraFnHggHpzBsfz/Lb4wGordjL2rlZl511Zcnewo6x80lIzSB0x5qm3LZv58tdlFaFE3fTKDzz3qXOtpcXfm9i+v2xhN3tGLM5yResVezJzmaPY0zzqXeyecN7Kr+4NZFZjqHHdZ/mss5xP/Xs1wdPkxf9B7gDFvhqO+vf8GbWL8JInhnmWKCcretzW4YgujLPyGEEmc5xsGjvldh6ERERERH5J/Yvfa+76R9XoqHepu/jjVdueA4cgKGuilPW7ufG5IW/txt11TXUXena0wYzA30M1FWexpWudMy+PZ620xyr7aQ2Vjvu9Pcz8U1n6zV54e9p4+RJS7s3lV2ybrbR5O2LZ2MNJ+s6GL54hfrR7TpM1kvYdyI/LIaRE8lMHcyB368k+5DTBFMYafOjObn6BfI6unbAcX33obHWxfupS/erzubxYsLcDGKs21maVdhJzT4REREREflndN7aZapPh3p4cEtERFrYg0kma9sAsBueA/tgO/ltgu9X0CUH0kRERERE5J+FglsiIiIiIiIiItJjXU5wq0cWlBcREREREREREQEFt0REREREREREpAdTcEtERERERERERHosBbdERERERERERKTHUnBLRERERERERER6LAW3RERERERERESkx1JwS0REREREREREeiwFt0REREREREREpMdScEtERERERERERHosBbdERERERERERKTHUnBLRERERERERER6LAW3RERERERERESkx1JwS0REREREREREeiwFt0REREREREREpMdScEtERERERERERHosBbdERERERERERKTHcvu+O9AZN6P5++6CiIiIiIiIiIh0obHB8n134eoNbl0NO0dERERERERERK5uGpYoIiIiIiIiIiI9loJbIiIiIiIiIiLSYym4JSIiIiIiIiIiPZaCWyIiIiIiIiIi0mMpuCUiIiIiIiIiIj2WglsiIiIiIiIiItJjKbglIiIiIiIiIiI9loJbIiIiIiIiIiLSYym4JSIiIiIiIiIiPZaCWyIiIiIiIiIi0mMpuCUiIiIiIiIiIj2WglsiIiIiIiIiItJjKbglIiIiIiIiIiI9loJbIiIiIiIiIiLSYym4JSIiIiIiIiIiPZaCWyIiPxSGICZMn0ryre5tJpgJiQ3D/3vp1OUx3ZrIrJk/J6bf990TERERERG52im4JSLyA+GfmEjcjXDi43NO37rhOTCYqLhYooZ6YeqyBTc8B/ri79fRfG54DgwhZlwkYQPNGFzoj8FzAGE/vpOY4b70b9dg07ra/HO0bf1rMaf6hzPhvkiX1iUiIiIiIv+83L7vDnTMTEjsKIZ0+BR2jsNFhRw8cwVX1y+IuCgT5dtKOdZmkudN0dwR4JwFcZbDfy7hYF2jS03733onQZYPKfjUcsW6Kz3cgHjmPZlKQqABPi8getr6S1veHM/s1Skk3OiBsRdQW0neH1awclu1ffrYRWyfH4q5zWLlW+9l6vOODyGTWTU3jqjBHgBYjpbxypPL2HLQ1U4ksuqtyUT1bfN1m+3x/mkGWRmRBJjarN/Ffppj0ln9cCShgwyd9NOH0Y/MJyPBD28jcKGeI3tySV+aQ62rm8IIpq36FfeM6Ie5F2CpZvcf1rDg7YrmOUJTFjFvUigBZuCCjdrP97Lm8Sx2WzrZFw31lG3JYsbL++yfH36awmS/lukXbFTtK2DpnI2UudzPbhgimRDlhfXANvbYHN9dF8mM9ERCPB2fZ2YQY61hz2vPsfVA+3uY4cepLE4egoGj5D36IjuaJ9zAhPQpxN3guBfGJ2I7uZeNq3M5aGvXDOBF1P1Tue8WL8fnWLh4muLXXiD7o6Z74WAmzJxKhGebRetKWbdoK+VU8b8f1xAVF0F8v73kXcl7voiIiIiI/KBcpcGtPgwKGEyAB4CJQQG+GGoP82UdwDm+2U83wa1IZqwI5sD8bPa4srqBYcTFe+HWQXBr0MhoxoZYKT9+1v7FtT6Mjf8JxRtWk93Bw2FbIT+O5Y6awwpuid3YDLZmRNK/poyiilCiLqOJpMWpJAWeJu+Zjew84cPoBxNJejSDqj1z2WQBPsjh8TkF9HbM7xt1D7PG9+NUZVMLcSz+z0SijOVsWLqdMoJJmR7HrN8u4tSEZey8hL4c2ZbF0wVOX5xtXglj5r/I/LEenPqgjCMRoZ20UE3enC2t1nn2744fzJNZvTCaoBN7WTlnL1XmYFIfiWfWf2bw2X1rKAGYlMHiJB+Ob9vC0oJqzCF3kfFACqtrypn6vGtho6iFv2LKcCjK3siWgxA6MYVpD6cza/9jrKsAAtOZNz0Uz335LNh8CMugSB57JJr5i4+xe05Oh/ti6M9SeSg1neWVD7CgKUL0dTkbMrdTBphD4pg1KZ7FCytIzixo26XLc9swAg3nOLi/KfLnS/KMREJ6V1HwQiGe90VSu6GUgWmJxKRO5NjcbIqclzeEkfrvQ+B8I80nj0PQLyYRd4MbFdueZV3+abyjJvLILyOZMukL5r7SPiJquOPn/OKWPpx8/yXW5hzGagohde5EIu65m9KPNlMKwAA8TVC3/39Yn3+8ZeHGs5x0/FhXcphTcZGEx/mSl1N1ZfaTiIiIiIj84Fylwa0qCl55Cfsj3xBSl02l/19fYt27bedzp7+fF25nazjZKpPKhMnk3smwmgF4cpaTJy10mHDQkZpS1j23q/lj2P0LSb0jHA7sdVqlF/7e7lhrqzhl7aqx7vrQ2TY5VuPtS3/TOU5VnqbtagyeAxjYB+qqa6hzeePk/1SgF2fzNvLA7/K5f8OblxHcSiRqqIGqHetZmWcP3pT8zZ+RudFEJcGmbMBSRlmxfe7Qh59m9vh+lPxuGXPedjQRG034oHqKVixk0y6AQkr+3o+tL4Uydhzs3OZ6bxoshZQUdzwtuG89eYsWsnZPEi+911kLNizFhfZAVVuxgVx/oZK8JWvIq3D0MySUwmR/ooASYEyID8avD7HpqRx7G8VeJCQFcbNfILiUExXN2GH9sOx7lTnZ+QCUFBvpnxVH/+FABTC0H9dRzY4VG9ldY+/Hc4MzmebnRajTWpz3RUmxF+EjJnNzdDzsyG+ag+NN21pcSJ+Ql5k3IprRFLDbhZ52J+TffDBwmi8/afomGP/roO6v23jrU0gFGr7cS/Y7PkyP6oPJD2iORboRct84wtyO8tafYUKcc8thxAw3Q+UuNubXYANOFm0mf+RCkoeNIoaD7f6IYKop5738Ej7edth+n7IeZOveKiLivbjBA0rrAYOJaw1QV1nKscpO/lBQeZRj1kjC/P8NUHBLREREREQ6dpUGt7rX/45UHpsQhOn8OejtTmNlIeuztlMRkMiCqeEMxA3/FQu59aPNLN96GMOwRJ74j0gGXnMOK26YLh4nb82L7Pjq0td9ymrF4NlUBcaLmOnTSb7JHZu1EXq7U/fXbH77Rnm7wFVXfQiaNI/Ua7/gVMAwBl0DJhOcfH8zT+U42jEEkTz7XmKuc8N6EUwXTzsNLXL0Idgd63kw9T7HwbdeYP37p7/VPpbvwAsLmXoFmjlrLQMCCRhcz5GjDTQAxjbj+0IffpqsBA92r5nL0qYhiwBGMGLD4vq4vU4ZB8/ntdwR9uF6lmp2Pr+seV3r5j3mQgsG/nXhOrbH+mDuBZaj+1g3cwV5FiBvGXfntZ47wGSAhnoceZTs/EslGbcHkjApmqLXCzGOH0FwXxtHDu1tu6JOeGE2ARecv8tlbXpuy8fPzvAVoUQ9GI/3inxqgaLnF7bOeuqEsZex02nnLwC9oPM5Lo2/txnqvuBY842nmrp6CBw+jgkfFTbPZ/sol3UftV7WMOznTBzpzrFtWym4kMwE54l+g/E3wakvDlDX/GUjH35eQ/JQHwKDYS39UkwAACAASURBVM+h1u3VfVpI3qfOK7iBhHBfqD/Il/WO74YMwJNGTnnEkjZzMCbAengXm5sCYk7bwHW+BAHll7NjRERERETkB69nFpTvdydpSddT8UomGfMzyZibzYE+0aT9Ygh8lsvy+buo4Cj58zNZvvUw4E5E+BBs+7PJmJvJ3LmZvHHYh5/eHeba+nq52wsdDw0jLvkhZtzSyJ4/fWifNjScCO9q8jKX2Pvy20IaI8fxs3Zv+Oq+D543enHg6SXMnb+EuW8cxvOOWGIc08Im3cuoxg9Z/pslzJ27hKW7Ghk18V7CAM+EiST7fsHGBfZlMzZ+gf+EiSToLWM/aKOXLeK1p2cwupPpsSP8MJr6MSbjSV5bPpnmgYE7yjhk6cfo6elEDQDM0Ux5JBRfzvB3l8bxtggY6sHONVn8emk+JQ0+jHk4naRLasGHYO99rJiXxYKXy2kYPIJZiztrIY4pET40fF7GH5u+enshM56pJPDBdLa/9ybvPBLI8a0beTy7upM2LkNFFiu3VtJ/bBrv5L/Ma8tnkDDYp8tt+v/Zu/e4qup8/+Ovk2xy62bLRUGCHLHEE5KkYEiBMntM5AyUQ9F4mXBGp6Q0K83U0ZPp0dG8ZRxrdBydkWnMX5whC+Z4ySEvFDlBhoENmOIYhMqghtu2stHz+2NvEBF0eynbzvv5ePiItdZ3fddnLWT74N33+12RT1uI7GSn7G85rbYw9Z3IiKiOWPeVXNE0UFecHwO1l8xV+VSeC8QyLpUoczcGThnJsHu6tFigvQePpEZgrv6I1ZtbCcRN7TEAdXUXjpyyn3VheGjPZGbMf4kli8YxgGKylr/lnJIIdPbCiAchMVH4AR3MtxGRMIa5E2M5vwxXNV9rRreIiIiIiFyGW47cMg/sTXD1p6zY43wjmL2cN/MOsMASQSgHWvm/+6cpyHzVMdLCYCLA3x8vTzAafC5q2aqgATw9Icq54YHHuZrzx/Zt5ZX5ji+NvoH43WbEAyPmAOCCdcFcqKG6vGkkmW3XIQ6PGEBwL6AsgqhesDdrK0ecv0/Wbn6NyZsBTAzrHUjlnnep9Q0kGOBEMaU1afSMAi6ayik3C6vNDpcIGNYtzqDAC+c6VMnMmlnlXN8pmxmvh7NuciyL3oqFs3as9QasuzfzB5eDhBymDGse3ORTZAxi0wshRMZD9rY2TzxvyxyGbmm23ThVr2c4g8huMVWvL8OXPsYDvlWs/9UfaSpzyItkPBtCnXPNrcDYh5mQMpbF1hLSr2PAVfL6c1iyLAwfFUtSnIVpa6MZtHAqU5qNiAtNfYv81MYtO9V/Xc+Md5p10imcWe+/xSznZn3VbpbOzubbZD+4iYXTt+HXJ5axI2Lx8w3D8vMwYg5sZWHGNmqB4JSfEON9nJ2rN1F7NRe51L8iNWUU7LBh9u1BVGQEqY83UDv/bcci9B+sYfInJswNVuc0ag/C0p4nvV8sw3rlk1l2iX5FRERERESacctwq6uXEc6cbjZFBuxHTmIz+xBA61NX/AaOJD0xzDEl8MxJ6s55tAifLuHQNqYuO//bul/CeH418lHKZ6yj2BDKsPEpxHVrD2caqDt2kg5tdHP1NfhgNjZQe6q1Y/6YO0Jw9Gie7t98/2kq6l28P3FLRfOfIBaAdEa3cvxYWb7jjYGtrO9k3TiHBzeGEBrlT6DlMeb9CLJ/t55rGiTjnNrneQ3z7FqdqmeKZdLiJ0npdpTsafMdi7w7jX4oHN+KfEYuzHbUXpiPX8+3eDx+OKbMjGu7n5Zq8li/LI/1y/oyac10UtLGErlxftN6YecXlLdT+/ddHGx58cYF5SOTWTTch+2vO6dfXicN5wCjVyufgaep3XOAw4/04NMX11DZGCDds43VBwczcqAPdZ9mUXAukOAgwOQY19UhKBC/Y9XUWk9jB8zmQJqve2Xu4FjV0H6pz5kT5eRtdFTzly/SmDsikqSE99jbeOM26wVTHffu2k9dvwj8bgfKAHrQ1Rc4dZLDV/9oRERERETkJueW4dbhkzYIbo8Zmn4xMgR4Yaw73vSWrQtFMyK5B7XZc5lX4BjtFTpqGhO6XN31a3eUcSSxBwFAcHIylltLmTc1xzmqKp7nlg24zjUcp87mgaFja8cca9JUfrCAhZsv//ZGcRfhjJ4zlkH+R9n+X/NZW3XhUS9js6XMTZ54AlZnXhA5bi7jQyp5bdqK1hdqb1JB+TcpzEv0pzp3PksvfukdEEJolDf/LNzNBUt0BSUzOiWIk39dQXbjee0c/6l3MVQN/NFYRtx5nC0rs5sWZb+1HXAWmroIe4xXX0omknKWPz+T9S1q9LooSPO/wjWsjmO1na/dIYVZK6I5kzuVBbnO53lnJaumrHCus7Wb3+4+SkqSN+HQ9Iwvtbi+s4VjQflCT7bHpzPoF+l0/3AFB6+o3raVVx6HHj50bVwovv9I5qb04PDmBSxvyuYb2HfwKPZ+PTB7AwE+mAHzPam8cM+F/VmmjCckdyavbC2loi6aqJ4R+FHtHN1lYmCvLmDby759F9cSkTKGOO8DbFizrekNtHarDTtg9PQCrARbRjLsrpN89NscCp0DEA0BXhhpwN606NZt+JnBdrD6gv+ZISIiIiIi0pxbhlt1O0qptESR2mcbq/ecBkMoIyw9qNvzWrMRC7507e0Bpc0Cn3POr41hDOhpcn3kVnMGE1GpUQSfOsTmpp12GpzTagISQgmGtqf3XFUNxRSWJZP2w8EEfLaVI3YPAhLH8ULscTJnrCOvtBpLzE+I2JFFsQ0MgYOZMCGCw28s4c3PL9+7fIe69CXyB46U0uQJ0JHIqFg4c4Kyz0qajTSKZVBcEKGHKphzQbCVQ8G+4cQMSWda2XreO+zPoF/2pXt9BaucM9yKKuq5bXgc0+bZWf52GYQN5YnojhzbufuiqX6Tno8m8FgJs5fsbrXclEVzmRRloP6zHCwT/3j+QBWExluIuc8fr5V5lNCLtF+GYzq8m1xnkOLbK5YQL8c9egKYYomMgjNHyyk5dJTqdkHED7cQ083ngjqr/5rvqDMknTWLLXQ/tpvlr+9kXwfH+c1HRuWWHmX4Q9GseCGFV5zTEh8Og4Pv5Lk4aiufLaVpPBCXzKK0etbvhfCRyTwQcoL1pc7neRhuGx7HJOfztHbtx/gh/nA4/yrfcpjHko0JDPpFNOOHrGDKlsuf4YrKjw9QOzCSkL4mqLLCp/s5/EgYoYnjGXtLMWCgU/9knkvsgeHMAQo/AOxZzHw268KOBj9BRhLkPvtbHKUd4C+FNURZBpA+6jhZ22oIiE/mh0FQu+N9CgG8Y5kwKR6/Azn8+g/F1OJDaJ/BpI9rICt3P7V+d5A0LAIzx9n5sWP0V2WVna4PRjPiWTv2dcXU+kUwMrEHhlN72fmBs5Z+3ehKA1+WFSMiIiIiItIWtwy3OLGV1W/6M+GxmSw5dxoM7bGV5fBKduOUmXw274ok/fGXiCjLYfJvdvHm5gheGPESS4adhltsVB69gvlA3QeTsWxw06b92AFyVzkXRs7JoWB6GrMWDcB2Dqj6itZfQndtNRT/aS07x49mxsux2OyNb0t01pC7jjc7jyFt3ktwBgzGBo7seIv/UbD1/ZOaxqupQc12RPPqomj4uoTZw5otLp4aTHegZNv6i0b2ZM/OpPvi4SQ9O5GkdsCxKrLnLmFt41+nLXN43vdFpo1KYN59CXD2FAc/zGHBixcubh7+VBpJIacoWLiizUXNT1pPAd5YT7RMYXOY8Z/eLJo6lMdnOZaqtx4qYfnL85veIjjy+YkMv7PZKYkTeTURrB/+kaEzcmDLHH7VWp1z8xzte/pzmxE8g/oyYV7fZh2domD+LqZsgYPLlrDUcyI/HzKcVxNx9LFxPROXleCqgrm/Ye2iJ3k4bSwx7QDrUba/nnF++uM7GczoMpFpDznrBI5V7GLp1IyrHnVlzVzPliHTSUqbTPiWJbhe7SV8uY3i6kgsdw3AnLuVOvsuVv7GyLifxxPxoPPza1Qg2KrZmZnJThfWg29U+24mb/qO4ZH+yUxwTn+u+zyH5Y2fuR1NdDK3x8/PByNQmb2GN40jGRY5lLF3OTuxVVP45jqyvnRul73Nf28w8vSPYxk7xTHB1n6inA0rzy86H3VPD4ynys+HXSIiIiIiIq34t06d7/q/69HRrUbf69HNFfLAHNAFQ101tbbLt8boQ7CvB3VHa5wLGF/fOsz241QeO/3t1mD0Idhs58gRKxedbjAR4G+gruo4rjwO+f4aNOf3zOtbxdLkmXy7S47LzcTQbyRz07pR+psFFy7Iboxg7PRYjixeSW7dNUxfNpgI8Pei4ZiLn7nOz0ajrYYjbV63jTadhzJj5gC+2bCYV7bplYkiIiIiIv8qzthaHzJ0KW4eboncjMKZ9saL3LdvBQ/OzrvRxYhbaStM8sAc4IX9iPsE3wZzFwK8GqhVWC8iIiIi8i9F4ZaIiIiIiIiIiLitqwm3bvkW6hAREREREREREflOKNwSERERERERERG3pXBLRERERERERETclsItERERERERERFxWwq3RERERERERETEbSncEhERERERERERt6VwS0RERERERERE3JbCLRERERERERERcVsKt0RERERERERExG0p3BIREREREREREbelcEtERERERERERNyWwi0REREREREREXFbCrdERERERERERMRtKdwSERERERERERG3pXBLRERERERERETclsItERERERERERFxWx43uoC2eHiabnQJIiIiIiIiIiJyCQ311htdwvc33Po+PBwREREREREREfl+07REERERERERERFxWwq3RERERERERETEbSncEhERERERERERt6VwS0RERERERERE3JbCLRERERERERERcVsKt0RERERERERExG0p3BIREREREREREbelcEtERERERERERNyWwi0REREREREREXFbCrdERERERERERMRtKdwSERERERERERG3pXBLRERERERERETclsItERERERERERFxWwq3RERERERERETEbSncEhERERERERERt6VwS0TkZmEIZdi4MaT2b9/igImw+AiCb0hRV8fYP5kJ439CnPeNrkRERERERL7vFG6JiNwkgpOTsdwJhz893WyvB+aAXsRY4onp6YPxkj14YA4IJDiotXYemAPCiEuMJiLAhMGFegzmLkTcP5i4PoH4XdRh47Va/HH2bfu4kFq/SIaNiHbpWiIiIiIi8q/L40YX4LZujyDpDhs7tpVT1/JYr6G8kOJPwW8y2XniWi5iIu7xscTU5LBww4FWWwT3H0yo9SPyPrdey4Xku9QlgWkvp5EUYoAv8oh9fMWVnW9KYNLi4STd2RHPdsCxKnJ/N58FG486jg95kU3TwzG1OK0861HGvO7cCHuMRVMtxHTrCID1UAl/eHkO6/e6WkQyizY8RkynFrtb3I/vjyaTMTma7sYW13exTlPcRBY/FU14V0Mbdfoz6OnpTE4KwtcTOHuKgztzmDg7m2Ou3gp9eXzRkzzc1xtTO8B6lO2/W8KMdyqaWoQPf5Fpo8LpbgLO2jn2xS6WPJ/Bdmsbz6L+FCXrM0j//W7H9lOvkJ8adP74WTvVu/OYPWU1JS7XeRmGaIbF+GAr3chOu3Nf52jSJyYTZnZuj59MnK2GnW+8RlZpw8Vd3J/GrNQeGDhE7rO/ZUvTgdsZNnE0ltudI8ISkrEf2cXqxTnstV/UDeBDzM/HMOIeH+d2PJw7TuEbK8n8pPGzqhvDxo8hytzi1Lpilr+YRTnV/OXTGmIsUSR47yL3mj5LRURERETkZqZw62r1imbIwOOUtxZufYfC7o9nYM0BhVvuYshksiZH41dTQkFFODFX0UXKrDRSQo6Tu2w17x32Z9Avk0l5djLVO6ey1gp8mM3zU/K41dk+MOZhJjzkTW1VYw8WZv1nMjGe5ayavYkSejF8nIUJv36R2mFzeO8Kajm4MYNX8prtONl0ER6Y/lumD+lI7YclHIwKb6OHo+ROWX/BNU/+w/mF6TEWz4wl9PAuFkzZRbWpF2lPJzDhPyezb8QSigBGTWZWij9fbVzP7LyjmMKGMvkXw1lcU86Y112LjWJmPsnoPlCQuZr1eyF85HAef2oiE/Y8x/IKIGQi08aFY969mRnryrB2jea5p2OZPquS7VOyW30WPX+cxhNpE5lX9QtmNCZEX5ezau4mSgBTmIUJoxKYNbOC1Ll5LUu6Ovf2JsRwmr17GpO/QFLTkwm7tZq8lfmYR0RzbFUxAWOTiUsbSeXUTAqan2+IIO0/esCZBpr+8jiFPjIKy+0eVGx8leWbj+MbM5KnfxrN6FH7mfqHixNRw8Cf8Mg9XhzZsYal2QewGcNImzqSqIcfpPiTdRQD0AWzEer2vM2KzV+dP7nhJEecX9YVHaDWEk2kJZDc7Orr85xEREREROSmo3Dr21C2iYXzW+5sj1+QDx4nazhSd/GIidZZ2bnqVXa22GswdyHAq4HaquPXXqt8t0J8OJm7ml/892Z+vuqtqwi3konpaaB6ywoW5DrCm6K/B9MvJ5aYFFibCVhLKCl0tA5/6hUmPeRN0X/PYco7zi7iY4nseoqC+TNZuw0gn6J/eJO1JpwhifDeRterqbfmU1TY+rFenU6R++JMlu5MYc37bfVgx1qY7wiqWooP4bazVeS+tITcCmedYeHkpwYTAxQBD4T54/l1GWsXZjv6KPQhKSWUu4NCwKUxUbEM6e2NdfcfmZK5GYCiQk/8Miz49QEqgJ7edOYoW+avZnuNo47Xus3l8SAfwptdpfmzKCr0IbLvY9wdmwBbNje24KvGey3Mxyvs90zrG8sg8tjuQqWXE3aHPwaO8+VnjXt6EdwZ6j7eyIbPIQ2o/3IXme/6My7GC2MQ0JRFehA2IpEIj0Ns+ACGWZr3HEFcHxNUbWP15hrswJGCdWzuN5PU3gOIY+9Fn1HGmnLe31zEpxsPYAOw7SVrVzVRCT7c3hGKTwEGIx0MUFdVTGVVG5+JVYeotEUTEXwHoHBLRERERERap3Dr29ArlblP+rDDOa3H0Psn/GpsJGa7Yx2cyj2H8Ovf3nG8RVuAIc/OpXfJTF7Z6vh6YM0aZv7pAODDkInjSeruge0MeNiKHb8kivtYOZMx16Gbk7YSIITu3U5x8FA99YBni/l94U+9QkZSR7YvmcrsximLAJ7giR2r6/P22uTZbTpv5PR1TNezHuW91+c0XWv5tOdc6MHAD2YuZ1O8P6Z2YD20m+Xj55NrBXLn8GDuha27Gw1Qf4qTzu33/lbF5PtCSBoVS8Gf8vF8qC+9Otk5WLbLxTvwwWQEzjbfl8PSiTnnN/ed4J+EE/PLBHznb+YYUPD6zAtHPbXBs51nm8fOnAXaQdstrkywrwnq9lPZNE3wKHWnIKRPIsM+yW9qZ/8kh+WfXHiuofdPGNmvPZUbs8g7m8qw5geDuhFshNr9pc1GqTbw0Rc1pPb0J6QX7Cy7sL+6z/PJ/bz5BW4nKTIQTu3ly8bPrB5dMNNAbcd4xo7vhhGwHdjGusZArNk90DmQUKD8ah6MiIiIiIjc9LSg/LfNEM24tAjq/ncJk6fOZfLMlezr2oOWy8y4IjhlDEm+ZayY+hJTp7/EzA1GQm+/7hWLmxg050XeeCWdQW0cj+8bhKfRmwcmv8wb8x6jaWLglhLKrN4MGjeRmC6AKZbRT4cTyAn+0XIIzmV079mR95Zk8MzszRTV+/PAUxNJuaIe/Onlu5v50zKY8fty6rv1ZcKstnqwMDrKn/ovSvhz4653ZpK+rIqQX05k0/tv8e7TIXyVtZrnM4+20cdVqMhgQVYVfkPG8u7m3/PGvHSSuvlf8p4in7YQ2clO2d9yWm1h6juREVEdse4ruaJpoK44PwZqL5mr8qk8F4hlXCpR5m4MnDKSYfd0abFAew8eSY3AXP0Rqze3MhrU1B4DUFd34cgp+9lWF9u6UM9kZsx/iSWLxjGAYrKWv+Wckgh09sKIByExUfgBHcy3EZEwhrkTY5t9PlbztWZci4iIiIjIZWjk1rft7ju4/Uwpa7c6f2m015D7fjlxaS2X0b4cE1E9fagseLVpAWfbnncprA4j6roWLO7CarPDJQKGdYszKPDCuQ5VMrNmVjnXd8pmxuvhrJscy6K3YuGsHWu9AevuzfzB5SAhhynDmgc3+RQZg9j0QgiR8ZC9zYUutsxh6JZm241T9XqGM4jsFlP1+jJ86WM84FvF+l/9kaYyh7xIxrMh1DnX3AqMfZgJKWNZbC0h/ToGXCWvP4cly8LwUbEkxVmYtjaaQQunMqXZiLjQ1LfIT23cslP91/XMeKdZJ53CmfX+W8xybtZX7Wbp7Gy+TfaDm1g4fRt+fWIZOyIWP98wLD8PI+bAVhZmbKMWCE75CTHex9m5ehO1V3ORS/0rUlNGwQ4bZt8eREVGkPp4A7Xz33Z8hn2whsmfmDA3WKmzOzoKS3ue9H6xDOuVT2bZJfoVERERERFpRuHWt83XhJHjXLCizCk7Lox5aMEfc0ewn23ek5VvzlxrgeKuiuY/QSwA6Yxu5fixsnzHGwNbWd/JunEOD24MITTKn0DLY8z7EWT/bj3XNEjGObXP8xrm2bU6Vc8Uy6TFT5LS7SjZ0+Y7Fnl3Gv1QOL4V+YxcmO2ovTAfv55v8Xj8cEyZGdd2Py3V5LF+WR7rl/Vl0prppKSNJXLj/Kb1ws4vKG+n9u+7ONjy4o0Lykcms2i4D9tfd06/vE4azgFGLwJoOX3vNLV7DnD4kR58+uIaKhsDpHu2sfrgYEYO9KHu0ywKzgUSHASYHOO6OgQF4nesmlrraeyA2RxI83WvzB2MANjrL1HUiXLyNjqq+csXacwdEUlSwnvsbbxxm/WCqY57d+2nrl8EfrcDZQA96OoLnDrJ4at/NCIiIiIicpPTtMRv2zErNoPhwmmInb0wtnmCiQ63trbfsfZMhw7NR3wF0ulKB4CJmwhn9JxXWLNiOqODLj7qZWz29kGTJ55AvTMviBw3lzUL0om87DUqKP8mlgmJ/lRvWc3Si196B4QQGtUX35a7g5IZ/XQ6KWHN9rVz/Kf+UmFHM4E/GsukcSk0f4/ire2As9DURdhjvLpmIim+FSx//jmW7r5wNJbXRUGa/xWuYXUcq+187Q4pzFrxMtOSHFuR4+ayZlF6s8X/d/Pb3UfB1/uC2h0LyudTVNhKsOVo4VhQfuVmth/2ZtAv0ul+RbVeWnnlcTD40LXx70v/kcydP5MJ8c3/H0YD+w4exU57zN5AgA9mwHxPKi9MGe/4Ex8IBGKZMp60+4GqUirqwK9nBH5N/ZgY2KsL2A6xb9/FtUSkjGHCmHiCm+2zW23YAaOnFwDBlpFMGJ9MVLM5koYAL4w0YG9adOs2/Mxgq6m+oW+lFRERERGR7zeN3Pq2ffIp5Q8/iiWxC8Uba7AbujAstgcGDjmOH6ihlt70TujC+5uP4xvzIFGBtDI9yEpeaTWWex8k4r11FNvAGP0AUZ3BXnFRY/m+6tKXyB90BMDkCdCRyKhYOHOCss9Kmo00imVQXBChhyqYU9W8gxwK9g0nZkg608rW895hfwb9si/d6ytY5ZzhVlRRz23D45g2z87yt8sgbChPRHfk2M7dF031m/R8NIHHSpi9ZHer5aYsmsukKAP1n+VgmfjH8weqIDTeQsx9/nitzKOEXqT9MhzT4d3kOqck+vaKJcTLcY+eAKZYIqPgzNFySg4dpbpdEPHDLcR087mgzuq/5jvqDElnzWIL3Y/tZvnrO9nXwXF+85FRuaVHGf5QNCteSOEV57TEh8Pg4Dt5Lo7aymdLaRoPxCWzKK2e9XshfGQyD4ScYH2p83kehtuGxzHJ+TytXfsxfog/HM6/yrcc5rFkYwKDfhHN+CErmLLl8me4ovLjA9QOjCSkrwmqrPDpfg4/EkZo4njG3lIMGOjUP5nnEntgOHOAwg8AexYzn826sKPBT5CRBLlNL7k4wF8Ka4iyDCB91HGyttUQEJ/MD4Ogdsf7FAJ4xzJhUjx+B3L49R+KqcWH0D6DSR/XQFbufmr97iBpWARmjrPzY8for8oqO10fjGbEs3bs64qp9YtgZGIPDKf2svMDZy39utGVBr4sK0ZERERERKQtCreuhTmCCcsimu2wUvibBWRe0GgvmeuKeOFnz7Ak/jT2W6Dy03LqAts7Dtvz2bwjgtGJz7AkEWwHtlJwMIyQVi5Xl7uOrKBxjJ3/EvYzwKliir+E0G/r/uT6S03j1dTmQ7GieXVRNHxdwuxhzRYXTw2mO1CybT0HW3SRPTuT7ouHk/TsRJLaAceqyJ67hLWNac6WOTzv+yLTRiUw774EOHuKgx/msODFCxc3D38qjaSQUxQsXNHmouYnracAb6wnTrQ4ksOM//Rm0dShPD7LMX7JeqiE5S/Pb3qL4MjnJzL8zmanJE7k1USwfvhHhs7IgS1z+FVrdc7Nc7Tv6c9tRvAM6suEeX2bdXSKgvm7mLIFDi5bwlLPifx8yHBeTcTRx8b1TFxW0sYdXaxg7m9Yu+hJHk4bS0w7wHqU7a9nnJ/++E4GM7pMZNpDzjqBYxW7WDo146LvjausmevZMmQ6SWmTCd+yBNervYQvt1FcHYnlrgGYc7dSZ9/Fyt8YGffzeCIeHOxoMyoQbNXszMxk5xXMja59N5M3fcfwSP9kJvR37Kv7PIfl2c5pih1NdDK3x8/PByNQmb2GN40jGRY5lLF3OTuxVVP45jqyvnRul73Nf28w8vSPYxk7xTHB1n6inA0rzy86H3VPD4ynys+HXSIiIiIiIq34t06d7/q/69HRrcaLJi7JBTwwB/jAsRrqeqQy90kfdjSNjLhCRh+CjTYqj52+3kXK98SgOb9nXt8qlibP5NtdclxuJoZ+I5mb1o3S3yy4cEF2YwRjp8dylbKzCwAAIABJREFUZPFKcusa2jz/8hcwEeDvRcOxamptl2/u+NzrgtFWw5E2r9tGm85DmTFzAN9sWMwr2/TKRBERERGRfxVnbMeu+ByN3PrONFB3pOb6dGU7TqVLv1iKewonpkdHjhXmKdiSK2L/5C3mVXXBaPOA5q+xsJWS9doh7NcSbAHYrRypupKgqYG6I5dbL6v1Nob6ItYu2kXtFV1PRERERET+FSncuhGs1VTsO82RG12HfE+VsOBnj97oIsQttRUmNVB35PgNqOfq2etqqNQq8iIiIiIi4gJNSxQRERERERERke+Fq5mWeMu3UIeIiIiIiIiIiMh3QuGWiIiIiIiIiIi4LYVbIiIiIiIiIiLithRuiYiIiIiIiIiI21K4JSIiIiIiIiIibkvhloiIiIiIiIiIuC2FWyIiIiIiIiIi4rYUbomIiIiIiIiIiNtSuCUiIiIiIiIiIm5L4ZaIiIiIiIiIiLgthVsiIiIiIiIiIuK2FG6JiIiIiIiIiIjbUrglIiIiIiIiIiJuS+GWiIiIiIiIiIi4LYVbIiIiIiIiIiLitjxudAFt8fA03egSRERERERERETkEhrqrTe6hO9vuPV9eDgiIiIiIiIiIvL9pmmJIiIiIiIiIiLithRuiYiIiIiIiIiI21K4JSIiIiIiIiIibkvhloiIiIiIiIiIuC2FWyIiIiIiIiIi4rYUbomIiIiIiIiIiNtSuCUiIiIiIiIiIm5L4ZaIiIiIiIiIiLgthVsiIiIiIiIiIuK2FG6JiIiIiIiIiIjbUrglIiIiIiIiIiJuS+GWiIiIiIiIiIi4LYVbIiIiIiIiIiLithRuiYiIiIiIiIiI21K4JSIiIiIiIiIibkvhlojIzcIQyrBxY0jt377FARNh8REE35CiWtExgtQnxzDiftONrkRERERERG4CCrdERG4SwcnJWO6Ew5+ebrbXA3NAL2Is8cT09MHY6pkemAPCiEuMJiLAhMGFaxnMXYi4fzBxfbpgbuOENtucKqbgmA8xDz5KnCsXExERERERuQSPG12AWzN0IWJwPDE9vPA4VUPxB++xc9/py5/XGu9QLDFGyjcWU3nNhZkIix9Ah/1bKfzyEs1ujyAp3IPSrUVU2K/uSua7YhnYvdkokTM1lBaWUlHX4GIPgUQl3sE3BfnsPXF1NchVCHuMRVMtxHTrCID1cDl//q+ZrNp7HfswJTBp8XCS7uyIZzvgWBW5v5vPgo1Hm7oIH/4i00aF090EnLVTvTuP2VNWU+Jynf4Meno6k5OC8PUEzp7i4JZs0hfmYHX5Rvry+KInebivN6Z2gPUo23+3hBnvVLRZ57EvdrHk+Qy2WwGSWbThMWI6Neuy/hQl6zNI//1ux/ZTr5CfGnT+eGv3eq0M0QyL8cFWupGdjT/PnaNJn5hMmNm5PX4ycbYadr7xGlmlzp9Rw+0Mmzgay+3On+OEZOxHdrF6cQ57W/1c8CDkwXGkWwKdQVk8qWdq2JnZrE8X2lRuLuVITCwxCSZ25rr+3RIREREREWmpXfsOXV66Hh15GFofD3DT8o4mfUYaA7vUsX9vJadMd3B/UgIRZ4v56IAj4IobN5P/6LiDwn+40N8PLIwdfiffbCpi/zUXF0zimJ/w76fy+OhA260iUh4nNfZuutbv4KMD567qSj9IGMmISB/Oehjx9unEbXdEYflxLP07Huajz2u5fK9R/HTCffh8nk9x7VWV4LLQ1GdI713Dzr3Hv90Lfe+FM2nxEwwxHWTVwj+Ruf0E/lH9SBrUi8//nO9iuHr5PlLmzWHMv9exMWM1r71dge3fI3goMYKzG7ZSXA+ETGTpf0VhLt3M3KX/S95XZu594D7iu9eStaPCtTofms7KXwRzfEsWs36bR/HpHsQnRXPv/+WTW3zKpTuJmTmHKfdC0Rt/YvG63VQG9SPlxxF0+GAzfztxcZ3vlrSjX8J9JNx1ljfe+xzoxZDhEZx9P4NZv93Fpvd2sd94N0Meuo/Q6nfI2w/0H8qY4MOs+s8/kfneLvIvutfrICaBn95t5O9b/szuaoBAUif9jKgO1eSt3kRtqBcly3dg7dOXe6Nu48RWR5Ae+tOn+GmYJxUb/5u5r22i8Ovb6BcdQT//w2z9tObi6/R6iOcfDeXWg1tZMG8N7+z+mtv7RhIV4c9XeZ9xxNU2p0/RNepe7u5q4LMd5dRdn6cgIiIiIiJu7myD7YrP0bTEqxRsiSWsLp+FczPJ2riVrD+8xuwNhwgeOJgwZxujsT1Gz4vPNfoGEhzU1vSgSzCYCAgKJMDc+oA7o28gwS5OKYJo4nrD3s9rCOkbj7mVFgZzF4KD2p5y1KSmmOWvrWH5a2tYOH8u01aXYRw4knH3X1iny/1xmWfkfA5+bT1Aow/BrR33NLb6/YD2+F3iuTqudxXfr++tWMK72SlaP5O12/Ip2raaKZllWLuGMCTqevWRTExPA9VbVrAgN5+iwmyWPr+bg54hxKQ4u0gMobutnHWTVrO9MJ/tmXNYu/sUgb2jiXSxzgfuDcJU9QkzF2ZTVJhP7rL5bKkwEBqd4PJ9DOntjXV3DlMyN1NUuJm1k7LJLgO/Ps4mPb3pzFG2zXfUWZS7hNfeKeereh/Cm/VUb82nqNDxZ/3sHIq+7sjdsc3rqOcr5/Gme+0byyBXH/llhN3hj4HjfPlZ455eBHeGuj0b2fD5SUcFX+4i891dlB9qwBgEEEFcHxNU5bN6cw12GjhSsI7N+xow9h5AXCvXibq/N2aqef8P2zhiB3t1Eau3HsDeMZS4+11vA9VUfHUaOgcSep2egYiIiIiI/GvStMTryL5jDZN3APQgdepIBgSAIXAmL0cWs/rlHMobpwgZG7A1gPHWkxSsfpU3S1tO4fMgLGU8oyNPsnl5JnnVDfgNTOO5YaEYz5yGW9tjK8vhlZW7qAUwhDJiehoxXg3YzgFVpVxuLIhhYG9CbGWs/H/HMb/UG4v3VjY0TQv0IW7cOIbd2Z6GBvDwOM2+DctZ8YFrU4fspVlkfnwHE/rHYvhgG3Znf6m92mM7A8ZbT7N3w0pW7GhlBJUhlNRJjxLX2QPbOTCeO37BFCq/wU/wQlI3PGyn4RYbhaWnibnzKMtfzKK88Tp3tcdua4Bb21P3cSa/frOcAeNmMuzO9hhI4+XwA+ROz2QnXPRcG6ryWZGxiQo7hI6aRpr3IeqCQwm45RB/mbqGPJeegDuop/5rwBROd2MJB88CGDD5Xt8+TtpKgBC6dzvFwUP11AOezdcQr6+nFjB1C8fzUAlnzgJGA75XcA1spzgI+HYLp/5QCfVnwdOzo4v34IPJCJxtvi+HpRNzzm/uO8E/CSfmlwn4zt/MMaDg9ZkUuNC7Z7tW01QAx722g7ZbXJlgXxPU7aeyaSrhUepOQUifRIZ9kt/Uzv5JDss/cW4EdSPYCLX7S5uNnGrgoy9qSO3pT0gv2FnW/CqBhNzWHv55iE+bTSO2FxzgSEoPunbvAR/YXGjjGFJ6+IQN8CW4F3DBdURERERERFyncOsqVe7IpzwymVlzulFYsIuPdpVRfqxxva0DZL08l6+fnUvvkrm8stWxN7R/BH5HtjL7tW3UAn7DnmFW0mD+Urqp2S+WjrVqRkeeJPeVNez8J+A9mLHDbqP8D3PJ3HMaDKGkzUhjbFIpC3NPE/fLkUTVbWX2nG3U4kFA4jhe6MElppd5MODubtjKMik/cZS9VfFEWgLZkF3tONwvkaTuX/E/v8qkwA7GgSN5utc9BHyQ75hO5ILyg0ex9+pCCHA4aSSpgftZPSOLYhsYeqcya+xIkva8Rm6LdbYiRj3KgDP5zPuVY8SH3+An+NXIRymfsY7i25OZ8B++lK56iczSBjCGMXb6SMC5hlPPSKJ8j5I7dw1b/gl0HsqMmYn8eGM5G1bO5cioaaTxFjP/5Jyr6T2YsSm3UbFmLqubP9dHypn5pqONuZuJHYtecvR3E5qw+EWGk0ds9rfXx6A5LzKvdwUzHj7aegPSyVhrgfWP8ubV1hn/In+YFcJns39B9RXWf1kVGSzICiEjdSzvxg/nYOEu1q/MJvdQW/fjT+TTFiI72fnsbzmttjD1nciIqI5Y95Tw3nUu93xUvpfMVfk8Ny4Wy7hUAOqmjKTDe+/xl09rsAOY2mMAausufGr2s20twucc/Xjs5IWfL3awX1Ebh8q6k8AVJaoiIiIiIiIXUbh1tf65i+UvlRIWl4glOpFxD6RC3QE2/yGTLQdbX0y9fONvmQc4psH5EGz0gI5edAVnuGXA78Fx/Cjadj7YAswDexNcXUpWrQ/BQQAnKfy8hvQ7o4DjhHY7TfEbjsAMGjiyMZ+9A1NbnWoIgHc8MT1PUrrEEeBs3n2IIfcNIDj7bccvo0dO8o2xN2H39qD8kwPU7ljHwh1X+nxO4pgla8LSO5DKPe9S6xtIMMCJYkpr0ugZBWxtflIEUb1gX24ZBn9n28/3UvFALBG9oLZ3KH5VH/HrxpFutr1kFdYQ0TiVbt9WXpnv+NLoG4jfbUY8MGIOAFpZrN7xXD9lxR5nKGkv5828AyywRBCKMwCrLr9pgy2Ak/V28LzKtwm42IfVZoc2wxKAU9TXg+fZtltctk7rKc5c8hrXpuT157BkWRg+KpakOAvT1kYzaOFUpjRbHD809S3yUxu37FT/dT0z3mnWSadwZr3/FrOcm/VVu1k6+xpSRRfYD25i4fRt+PWJZeyIWPx8w7D8PIyYA1tZmNH4mXEJV/ovRDsPmsdrbbcRERERERG5fvRbxrWwW9mbl8XePMDQhZjHxjLi8Uc5MmMdxa00N/QeyoTUAYR0BFvDSWrrWq7iFEhMXAOc++qC9Z26ehkhMJL0CREXtLYdtAE+mI1Qe8HvkyexX+L3fHNsL4LPGeDBMUwAaOeFzdcXSy/ILAOqNrJigxe/TEhjVqoH9mOH2Lkhkw17XH8TpKG7P+b6Q3yDP+aOEBw9mqf7N29xmor6lmf5YDa2J/jBsTzdfCX6cycpPAcdjAY4e+Hoj7pvmi00Zwhl2PgU4rq1hzMN1B07SYdL1NjVywhnTl+wkLX9yElsZh8CwOVRau5s7cRRrAUY8uK31kfR/CeIBSCd0a22+CPpCX8E4IF5V1ln4RJSBzu+nDDKtbqvWE0e65flsX5ZXyatmU5K2lgiN86nyHn44MYMXskDsFP7910cbDmL9+tyVs3dRElkMouG+7D99flcz5cENpwDjF4EAOUXHDlN7Z4DHH6kB5++uIbKtOdJ7xfLsHu2sbrmNHbAbA6EZmPezB0cn0D2i35GbdjqAZMXwTQbHerd3vGzZm9wsY1DaIAvYKPuX+GHTUREREREvjUKt65Ke0LvjyX42Efkfe787dReQ8G7n2KZ2Y2AVs8JZNhPYumw51UmZzunBA1+goyBzdtUk/urdTD+GZLGDqXo5U3UAodP2qDqI2Yu2XbRtB6IoM7mgeGCJYa6YG5z9fNAEu4JpG5fPnubRpgdos4YS++YMCjbCzRwZNs65m0DDCbCkscydtSjHNmT6dI6Q+DDj+8JpK5iI5XOdX8qP1jAws2XGdHBcepsVorfWEBm6cVHzXfZILg9ZmgKpIL9vADH2l3ByclYbi1l3tQcjtgB4nlu2YA2r3b45MX9GQK8MNYd/xcItjzx7NRssx2AHeuxlu1CCI3y5p+Fu7nokAt9eBnDgRLHhskTT8DaPNDx9MSv2eat7QCbvdm1XKjT2JHuwEEA/PFsB/U2196UCMex2hr7bZTCrBXRnMmdyoJciBw3l/F3VrJqygrn3//d/Hb3UVKSvAmHpnDLsaD8pa7VuKC8J9vj0xn0i3S6f7jCWfe1K688Dj186BoEVAH9RzI3pQeHNy9g+bbGVg3sO3gUe78emL2BT0upqIsmqmcEflQ7R3KZGNirC9j2sm9fy6tUU1xhJa5/D6I6Q2Xj6NLYOwjgNMVljhGPrrQBCPYzge0Qla2MrBQREREREXGV3pZ4VU5j7DmAYT9NJKrxDXuGLsQ8eA8Bx2rY26yl322hF7698FyDI6AydGFI+G0t+rWD/ThbXltHoTGW50Y5zq3bUUpl0ABG9GnfdK2kiTOZ9dNQoJjCMgj74WACDAAeBAwbQGhbbyS8fQBhnWsofHMTuRu3Nv15s+AQHr3uIQoISBrPkslDHf3ZrVQcs8EtHi4loUbfMJImjsfiXc7mtw4AVvJKqwmO+QkRzsDNEDiY5+ZNZsRdLc8uprDMg4gH4p33AsY+qcyaPwZLR6jbUUSF7wDSh4UR4OtDQJ+hpPbxuugZNtidzyEh1DG1sRlz125No+LqdpRSGXgPqU3PNZQRlh7U7fmoxciXm00+JYcMRA6fy+j4WCLjx7IorRemwxVsaRHOpCyay5pF0/mfjMeusI8cCvbZCRySzrSkWCKjUpi0uC/d6ysoaJyJt7GCg8ZQRi4dy6CoWAalvcjovh2pLt3lDIwuX+d7f6vCGtSPuS+kEBkVS9Kz0xkSYqd812aXn8WW0hOY+iazKC2ByKgERi9N5oEQT6zOgLXoMNwWFcekeY46I5MmkjHEHw5Xsf3KHz6Qx5KNFXBnNOOHXFUHrar8+AC1+BDS17li/6f7OXxLe0ITxzPW0g0DBjr1T+a5xB4Yzhyg8AOAA/ylsAYCB5A+KprQoB7EjRrLD4Og9uP3KQTM8WOYO38yY/s5PgHKN3/KEboQ93gqcT0DCb0/lafjAuGfxWx2LlTvShuIICQQ7If2c8lMUERERERE5DLate/Q5aXr0ZGHoc2hQjelI6UVnL1rEKmPDGHwDweSlHgfdxsPsmHlnym2OubUHTrZifv/I5Fhg7tjfW8nW2s7MegnD/Og5T4SLFG0t36Nj/Ekf3t/L7Wde2Ppb+Qfm4rYf66W4pJzRKQkcy/FfLR3L38/0Y2EEQ/z4OD7SEiI5fYzRaxbU0DNOThSephO9yfws2EW4i0DibnlAPvadcXwjzw+OnBh3cGJP+aBWz5jdd4BzjTbf+4fnoQOHUDwmXze33acTvc/wM+SLcQPjiexl4GynDfI/sfF0xL9+sRyb+9/J3GohcShFh647y68j3/ImmVvs9t5gTPlX3CiezwjRiaQEB9PYvxt1H/0Nqt21nKO7sQMDcZWmE9xreO5drj3QUY/YiHeEk9ipJmDuW+Q9cVpOH2Ioi8gYkgCQwfdS1TQSd7/rIG7A0/zt/f3UvFFLd7xyfwsaSDxgwcS43mSEz5G6px911Z78O+DB5Oa3BfTZwXsrTnA3493Y3DTc42k08EcMt74O7bGe+tYycaPrtfYmu+LoxSUt+eueyN46KE4EuPvxOfY5/z21/PYVHNhy+D7hhLfvT1fl/+NN98vv6I+Pi84hfe9/Uj8jziSEsK565YashcuZMUXzlFVJ3ZRfuYu+sffx8NJ0fyojw+1H/8v8156x/mKABfqLCvhS3M/fjj0PlISo4nt2Y6DG/7Ec6v2cNGMujZU7qikXUR/4ofex0MJ/Yj0OsH2lctY8NGJpmt8buhF7KBoHkqKJvG+bvxb1S5+88IyCr4B6MWQ4RF02J/FOx+3cZH+Qxlzx2m2r9/OAaC+uJbAByz8KKIbf8suoK2l6a9I3RF8Iu4jonMDH3x4gDPnqtj9xTlCwu+id8SddL3Vix/0CcbcUM3OP65h42HH55StrJwTXXsTGRlBzP196R3UkVOfn/856HLPQCw9/Wj46iM+2F8P33zB3uNdiYi8m6gB93Jv766Yvikn67UsSr5x1uJKm34/YniUF3/PfZPdh6/HAxARERERkZvB2Qbb5Ru18G+dOt/1f9fj4rca/0XfeGX0Idi3PfaTNRypu9y0O8BgIsDfi4Zj1dRe8ffLA3NAFwx1rZ9rMHfBl+Ou1eEKow/BZjtHjlhbmQ55FQwmAvwN1FUd57K33sa1Dcb2YDvdtM+QMJ4l9+xn5suNb5x0PCOz/TiVx1xdI+zSz1XEXRj6jWRuWjdKf7PAsX5eI2MEY6fHcmTxSnLb+ny44s8mV37W2mrjw7Cpk4mzbWJ2Rv4F696JiIiIiMi/tjO2ixfFuRyFW+I+AgbzwtRYKHibDR8e5Ru/3qT+NB5z0WvMzq6+/PkiNz1HmGS0tQzbPTAHeGE/4kKw/F24ppBfRERERERuZgq35KZn6B5PWmokob5GsB2n/OONrNt44PvxC7uIiIiIiIiIXBOFWyIiIiIiIiIi4rauJtzS2xJFRERERERERMRtKdwSERERERERERG3pXBLRERERERERETclsItERERERERERFxWwq3RERERERERETEbSncEhERERERERERt6VwS0RERERERERE3JbCLRERERERERERcVsKt0RERERERERExG0p3BIREREREREREbelcEtERERERERERNyWwi0REREREREREXFbCrdERERERERERMRtKdwSERERERERERG3pXBLRERERERERETclseNLqAtHp6mG12CiIiIiIiIiIhcQkO99UaX8P0Nt74PD0dERERERERERL7fNC1RRERERERERETclsItERERERERERFxWwq3RERERERERETEbSncEhERERERERERt6VwS0RERERERERE3JbCLRERERERERERcVsKt0RERERERERExG0p3BIREREREREREbelcEtERERERERERNyWwi0REREREREREXFbCrdERERERERERMRtKdwSERERERERERG3pXBLRERERERERETclsItERERERERERFxWwq3RERERERERETEbSncEhG5WRhCGTZuDKn927c4YCIsPoLgG1JUKzpGkPrkGEbcb7rRlYiIiIiIyE1A4ZaIyE0iODkZy51w+NPTzfZ6YA7oRYwlnpiePhhbPdMDc0AYcYnRRASYMLhwLYO5CxH3DyauTxfMbZzQZptTxRQc8yHmwUeJc+ViIiIiIiIil+BxowtwW7dHkHSHjR3byqlrvt87FEuMkfKNxVRez35bYb4rloGm/eR+XH01V7p63tGkPxnF4ezX2FD23V5arpOwx1g01UJMt44AWA+X8+f/msmqvdexD1MCkxYPJ+nOjni2A45Vkfu7+SzYeLSpi/DhLzJtVDjdTcBZO9W785g9ZTUlLtfpz6CnpzM5KQhfT+DsKQ5uySZ9YQ5Wl2+kL48vepKH+3pjagdYj7L9d0uY8U5Fm3Ue+2IXS57PYLsVIJlFGx4jplOzLutPUbI+g/Tf73ZsP/UK+alB54+3dq/XyhDNsBgfbKUb2Wl37uscTfrEZMLMzu3xk4mz1bDzjdfIKm1wnnc7wyaOxnK7c7RXQjL2I7tYvTiHvfaWFwHwIOTBcaRbAp1BWTypZ2rYmdmsTxfaVG4u5UhMLDEJJnbmuv7dEhERERERaUkjt65Wr2iGWCLo2nJ/QASWhGjCrne/rejaL5Yh9/e62iu5rmcyM6YmE/rtX0m+E+FMmppMjKmKVbMzeGb2Zj4jhNH/OZ2Y69hHyqw0UkJOsWVZBs9MWU92jTdJz05mdONMtJCJTBsXjnnfZmZMyWBGZhn0SWDWTIvrdT40kekp/tT9dT3PTMlgQe4JOicOZ3Gav8t3EjPzSUb3gc8yV/PMlNWs2teRQU9NZEJI63U+s+wT6kJimT4r5YJ+Dm7M4Jkpjj/LP7QTmjaReUOaNfi6nFXO4xff63Vwb29CDKcp39OY/AWSmp5M2K3V5K3MorDuEFuW5FB8pgtxaSObnmHoI6Ow3O5BxcZXmfzsS8z7f+XYAqIZPaqNT7FeyYy1BOJxcCvzpsxk8stvs/dMF+JGPkrElbQ5UUz5PyH4nh9+f6ZLioiIiIiIW1K49V0xmAgICsSvtTlBlzrW7HiA+fID7QzmLgQHtTVNqD1+l+qnrevc0h5jx2Zr+JzYxYr5F4/acly7jWlPl7tH+Q7FEt7NTtH6mazdlk/RttVMySzD2jWEIVHXq49kYnoaqN6yggW5+RQVZrP0+d0c9AwhpjETSgyhu62cdZNWs70wn+2Zc1i7+xSBvaOJdLHOB+4NwlT1CTMXZlNUmE/usvlsqTAQGp3g8n0M6e2NdXcOUzI3U1S4mbWTsskuA78+ziY9venMUbbNd9RZlLuE194p56t6H8Kb9VRvzafo/7N3/3FRV3n//x8iI1AwAYpKgisYFvgjBRUzo5aCytAsciu80sjdxeuylWsrrb5p6670saT2Wt3a1d1tXe2KftoPJTNttSU1wd+/oGQFLx1FGxUCbBhnxO8fM+iA/FQERp/3283bzZn3eZ/3mfc5vOe8X3POeW9x/Hv3tyvY+sO1DBzlWo7THHFuP/dZh4zi9uae8iZE9e2OgVIO7a5550ZCukH5rs/5pKDCUYJDuSxdnsu+g3Z8egHczG2DfOHwet78wowNO8e+yeKLQjs+/UdwWz3HGXprf4yUsO4fX3HMBraSrbz5ZRG2a/tx263NTwMlFB+pgm7BCpyLiIiIiMgl0bTEyyzxvzMYfHIrPv1v5hrAx8vOvo/e4PWcUgC63vVLZiT1xtNSBR4WtuytqrV/17iJ/HpcP3ysVeDljeW7FfzPolxOXHCkAG5LS2P8jd5YrODjVUX+J4tY6DyOof8D/H+TYzDaHPmbdh2k6zBvcv77L6zGk6gHpzIpLshRDk9v7Ie+ZN6CrzgRN5FX7gvHxwvS5t5I4ecZLMy5g1//YQQn/vwyS7+7g1//oT8ncr25ebAPeHhjOF3EB//zd74+ToOf8ZYbvuf1Fz9g3+U79dKo05z+AfAdQB+fPRw4A2DAN7B186iw7AHC6NP7FAcOnuY00MV1DfHTpzkB+PYeQJeDe7CeAXwMBLbgGFhOcQAI7D2A0wf3cPoMdOlybTM/QwC+PsAZ1/dW8PtpK86/LCzjOAO45ed3Ezj3C04C3/xpJt80I/cunbs0uM16BugMDadomZBAXyjfj+ncVMLvKT8FYYPuZdy29efS2bYcqhScAAAgAElEQVSt4PVtzhe9ehPiAyf273WZBm1n07/NjI/oTtiN8HWtIHYwYdd7w/GD7Cg7/67tmyKOPRhOzz7hsMHSjDRFABwtswCBhNwIaIqziIiIiIhcJAW32kBIuCcLZ84m3+ZJj3FTeSH+DvrlfMy+0DE8OTqQvX+dzdK9dvCJYvLzKYBzTSL/u5g87nr2/SODpbuqwNCPiS9MZHLSXubVWaPGmJTC+OD9vPnCB+y0gKH/eH4zOYWkXW+QfSqWtIk3U77yNX77ZSkYgkiaNpUwjjh2vvZmht5oZ8dfZ/POXjsYYpjyu3sZF/0Vb+Ys5dlj48mYAEsbDEYF089jKc89uw+bIYhxT6Vzd0I4X79TBE19RmlXT776Io+wllEfXb48bv/di7zUv5gXkhuq8yksWBIP7/6Mdy62nHe8yD9+E8bu36bS6ivQFS/g5Q/CWDB+MsvveIQDW3J5d9FHZB9s6PN0J+ZX8cRcZ2N33op6U/gOmcajQ6+lctce1rRyce3n/pfP0r+u59dpo4hPGw9A+fQUrlmzhs92mLEB+HpjAE6U1z5rtjP1LrYF+ODTBThZUXtNQRvYWpTGwVReAbQooioiIiIiInIBTUtsA+WFW50LM9s5VnCEcv8g+gDGIeF0PbzJEVACsOTzwRbzuf2Mcf0JKdnL1ycCCOkVTEj3CrYUmAm5oe7cMV/i+wdj2rWJE4HBhPQKpkfZTvaag4kYimMtHutevvjSMYoLm5nsdfuw1Ox+aitL577BO3vtjqmFffzwxBtjs+85K9m3ZZ/jxtVmJt9UibFHbwBChvVr9DNK+6o4bePCkEPr5lFpsUGDwRKAU5w+TZ3RUy07BpWnsDZ6jEuz50+/Jv5nC3n982K4KZ7nlrxC5r211/XqN/591q97n/XrXmf+g9058c93eeFTlwTXDeA36xxpVv1+FH3M23n9t5cQVWwG24FVzHs+g9/+/StMFjuGwCjiH08nY9oddG1OBi39+aNzM3ZoThoREREREZEW0F1GO+rp5wNnat+yl/9oqb09OIYpT95caz/LAQu1dcd4LYTETuJXw1zfr6L4NODjiQHXER3AKZvLcQO47fGJJA0KwtNahaW8AjypZ+pjy13jY2j0M0r7WjJtAksAEl+8bHlsnftLRgEwhUn1pniLKXe/BUDCSxdZzi2vMf4ux3+fnNC8creYeS3v/mEt7/5hCE/9/XkenDiZmM/nstW5+cDnC/iftQA2Tnyby4G6DwD8YR9/zVjFnpgxZD4SwL/+NJfWfEigvRrw8aMH1BlhWcWJXUUcfSicHS/+HdPEZ5gSPYpxg7/iTXMVNsBoDAaXMW/GaxyL49lO1z2KBctpwNePEDg/Msvfm2sAbPZmpnHo1yMQsFB+7NI+u4iIiIiIXN0U3LpYdsBgwFjnbUMPP3xsdpoTvjlaYYEQb4xwbr2bEKMfUHp+++FNzHztqybG1jjW1jFteJl5X9gv3BxdiaVOWQ09/M4v/H7rA4y7sZQPX5jPNxaAcCb+7onmjexoQr2fsev5zyjtpQtdrnN52RnARuXJuunC6DfUn+NbtnPBpmbk4eczANjjeOHbhS5ApWtAp0uXWu3MqzNgsbkcqxnl9LmWPsABALrTpTOctpy6oLT1K6XSUpNvjQf5zcJYrNnP8nI2xKRlMPUGE3+dvtC5ztZ2/rL9ex5M8mcAnAtuORaUb+xYNQvKd+Ffd0zh9tQp9Nm40FnuS7fPVArhAfTsBRwGhqWQ8WA4R794mde/qkllp/DA99iiwzH6Azv2Ulwey9CIm+lKiTOg7UvcjUFgyaewsO5RSthZXMltw8IZ2g1MznX1jKP60oMqdn7nWEurOWkAQrr6guUgprK6xxEREREREWk+TUu8WBt2ss8jinFPxNDD+WRCQ3AME+PDsRdsZVMzsijP2YspeDDjBzmfROgTQ1JMQO3tvUbwaM12QxBJ02bym4frPluskrV7Swi55QFu9qkpy138+qWneTQS2LaJHdYoxj0RS7/AALpGxDLx1t4XFsgZF/MZFEO/ulE7Y3f6XMSTDstztlIcOIIp46LoERhAj0H3MH6QX8szkla0nj0HDcQ8ksGkO0YRc8dkMifeiO/RYlbXCc48mJnB3zOf58MFj7UwjxV8U2gjOHEKzyWNImbogzz16hD6nC7mm5qZeJ8Xc8CnHym/n8ztQ0dx+8QXmTTkWkr25joDRk2Xc03eYSp7RZMx40Fiho4i6b+fJzHMxr7cL5p9LlbvLcN3yBgyJ95NzNC7mfT7MSSEdaFyryPF1qNw/dDbeOolRzljkqaxILE7HD3Mv1p+8oG1vPZ5MdwQy9TEi8qgXqbNRZwggLAhzhX7d+znqIc3/e6dyuT43hgwcN2wMfz63nAM1iK2bAAo4rMtZggewZQJsfTrFc5tEybz015wYvM6tgDGO54gY+7TTI52/Bay74sdHCOI234xntsigul363h+dVswHN/JF86F6puTBm4mLBhsB/fTaExQRERERESkCRq5dbFsuSz6sw9pTzzAC5kPON+0U16wit+/tbN5qxiVfcmbH13Prx+fyWs2O3hUsGV3Cdzgsv297jz52Exeq64Cgzf2Y7ks+ejCZd3Ls7N4p9sTTHxpNljB4GPnWM77fFgAUMQ7r3/MxNQEJk9PAMsR/pmzl7BxzkDaho/5ImYqj74ym3FW8LQc4Vi5S+bffUlO0VSS5mZwS84btGiZoLL1vP5nT9ImPshTsWA7+R2fbT5CWHQL8pBWtoffv7KC4Gfj+cVvpgFQeXAPr78y94InAFZUngL8qSyrO7Sm6Tw++u1S+rz6CEn/PY2kzsDJw3yU8RpLakZuFS/g5UX+PDfhbl7KvBvO2DiQu4KXM9Y2v5yfLmBu7+d5OukR5t8LnDnFvo+W8szS5j+w4JuMP7Mk8z9JnjiZWzoDld/zrz8t4PXi88d4IWgaz91/Ny+NvBuAk8W5/P7ZBRc96qpy6busTnyepIlPM2D1azVj2y7Noa/YWRJDfOQIjNlfUl5zjXr8Dm4e65yzOSEYLCV8vXQpXzsvUieWL+WdwCd4aNgYnnROay4vWMHrHzmmKRr9/TD6BNA1yBuohOOrWPhOIE8+dDPjpzqnTJfv44OFK85PQWxOmuj+9POpIv+b3Nb49CIiIiIichXrdF23yLOtkZGXz9X7xCuDMYgeflD+vZnyi1rT2puuvXz48XBpA9MZPTH2CMJQXsKJpuY7Gnzp0d1Aed28fLzxsVSdf6//eDL+w8Anz2edGzXhExhMV0MFx45VXuIS43WK5OMNlqpzeRrunsprg/cz85VVlDe6p4i0hCE6hYyJvdn755dZ+p3LBp+bmfz8KI69uojs8nqmLoPz2uGH/WQzrjNAzXXJaCvFdLKqhWkCGPfs09xmWcVvF6zXdUBERERERM6xWi5cFKcpCm5dFaKYPDeFsAOr+CB7Pyeu6U38w/dy84nPee7Pua0ayLpAj7uY8ewo+OZjPtn4PT927c/4h+/AuPUNfvtRSdP7i0gLOIJJPhYzx2oFsTwx9vDDdqyhAHoba3EgTURERERErhYKbknDusXw6MOj6B/ih8FWwaG96/ngo60cu6yRLQdDnzuYOD6GfoE+YCll3+bPyfq8qGPcZIuIiIiIiIhIh6HgloiIiIiIiIiIuK2LCW7paYkiIiIiIiIiIuK2FNwSERERERERERG3peCWiIiIiIiIiIi4LQW3RERERERERETEbSm4JSIiIiIiIiIibkvBLRERERERERERcVsKbomIiIiIiIiIiNtScEtERERERERERNyWglsiIiIiIiIiIuK2FNwSERERERERERG3peCWiIiIiIiIiIi4LQW3RERERERERETEbSm4JSIiIiIiIiIibkvBLRERERERERERcVsKbomIiIiIiIiIiNvybO8CNMSzi297F0FERERERERERBphP13Z3kXouMGtjnByRERERERERESkY9O0RBERERERERERcVsKbomIiIiIiIiIiNtScEtERERERERERNyWglsiIiIiIiIiIuK2FNwSERERERERERG3peCWiIiIiIiIiIi4LQW3RERERERERETEbSm4JSIiIiIiIiIibkvBLRERERERERERcVsKbomIiIiIiIiIiNvybO8CiFxNOnl0xsPTCw8PT6BTexdHLslZqqvtVNutnK0+096FERERERERuWpp5JZIG+nk0RnPLtfi4WFAga0rQSc8PAx4drmWTh6d27swIiIiIiIiVy0Ft0TaiIenFwpqXYk6OetWRERERERE2oOCWyJtxDEVUa5EqlsREREREZH2o+CWSJvRqK0rl+pWRERERESkvSi4JSIiIiIiIiIibkvBLRERERERERERcVsdd6GY0JtJGhDk8kYVR/dsYcuhqst6WGPkKOL6eJ9/w2pm75a9FJfbL+txRS6ZoTO3njnDhur2LoiIiIiIiIhI2+nsfU3Q7NbIyNPg0xrZnDf8fp5M6ItXJ0+uDbgO/+AbuOWeOxlo38mmossX4PrJ3Sk8GhPAGU8f/AOu4/q+Q4m/bxTDrj3KpoITNCdu0G98OlP6m/k6v/SylVPcT2dP76YTXYTQgB58OqY/Lw29nvGDe/FUX28CD5Sy1n4N740fwlT7YZacuCyHblv9bsIUfy2n8n9ga4OJOpPWtzt3njnFBmsblg2otrfxAUVERERERK5AZ+yWFu/TcUduAVj288kbH7DP+dIQ9wQvj3mA2778O1/XpPEJICTQG8vJEk60/PPXz7yT19/46txLQ//x/OYXKaQdy+D1DS4juBo6dhcf6g31XY6yylXOi5du/wk9jnzLPRvK2ePhxeuJA3l8RAAz112NwRYv4qN/Qvedx5hX3t5lERERERERkbbQsYNbddjyj3Dywd7OwFEAt6WlMT7SG5vFDl7elG9eyv97Zx82/3t4YXZ/9mW+xgeHgV5j+M30WOxrX+al5ZXAzUye+wA+n2fwek7T0w1tez9g6ea+PDlsFIYNX2Fr5Ngj0mYy7gZvDEzklQFFZD+/lK8bK+vlPWVyxeuMlwGsFRb2AFRbeXLVFp4E4BoA/MP6sf8Wf7w8oHx/Ib/IKWUDkDYkihmDfPECsJbz+Rff8gvvMPYnevHRW98yvdqX934Wxa3mQkLWlUKfCEyj4B9Zhcw8N4TxGt4bP4B+VT8S1O0aCjfkMbE0hPfuup7enauh8xkObv+OkbusvD46hviTe4ja9COhN93EN7cYWPvBbiZWerF03M0MPLSbIVtdo74GMu8awKOhBqi2seegS7DOw5el991IfGAnrHiA2cS8lUe44e4B3OoL3DocU1gxIV+UkXF7FI/3MWA964HXqRMsWrGfOacvc7WIiIiIiIhIm3GrBeW7xvQl8FQlxwAiYhga+D3ZGbN5+vkMnv5/67HH3st9/kDZevaWBNAvxhcAY0w4RqudHuFDMQDc2I8wz4Ps/Kb562jtO/A9tsAgwpo49teLMli0o5LyHUt59vmljhFmjZVV5JL8yKKdZRiHDMGUHMWqET2Y4Vs7hbHqe+5fksctX5jx6htCmi8QHMaMQQa2rMwjZEkec/7Pi3t/GsKjJSfYc9qXgb0BX3/6damGnv7MANJ6XgPmMhbVMzfXeKqEJ5fk8dN9Hjze2xfz9p3c8r9buGVtOT0G9WIWZ3jnUCXGnoGMAx4P9gWbFzeEdQYPI6HXWdn3f7WHM97aP4JHe1h45908Qt7K599e15zbFtPLn9CTJp58awt939pH4XXX80AfmP7FHjZUQuGGPEK+MENAIAMNJ1iUtYW+S7fz+emuPNjfq7UrQURERERERNpRxx65ZexP2twbcYSgPPHxqiL/kyx2AhR+yf/MdSTzCQym6/U+eOKDsQdQVsmWwlLiw4diYD0jwgMoXrOJ6+4OZwRfUdy/N8bDW9nUkmFTxys4d+vd6LHr2bel6UVaYO2+ffQt9mJGnyBuvbEn08aHcO+GXfzUOZ/3YEmZY1TXkUoOYsTLGx7vZcTrxDEWmB1pFu0+wZSbjMR3MbHlKDwa7MutfkaCDh9lQ7euxHTzwtrTi8J8M4fqKcNB0wk+qQaoZs72QtJ6d+PFEb7cEGTEy2DBCGwoLsc81Je7PIyE9rSydq+N+OsDCa3wJ+LHMt49XjvPccG+WP/vW6ZbAKy8cqCScQMd27YeMjGzKoBHB/yEKd396N3Fg2Nd6ilY6TFeyPNn0g0hfNrLl95G8PLqfMnnXERERERERDqOjh3cspjZkvMdFUCPmDsI2/M+C3Oci7Qb+jFu6oPc1tsbrHbKT1Zwjcuups1FnLglnBFY6Bd8hH1v7OS6EUPpF+1L14gATHu3tGhKoKFPd4ynD/JjM4594c4tTC/SXB6dufcaD8p/tDKv0ASFJuIHDWDpwGAe33e86f1r6YxXF/jH//1A2iB/0oy+FBbns9XWg0dv6IkloJK9B5rKw4elYwdy6xkza/99ko9LqpkS7xwpVXmC3T/05IabA+htL2f+Xis39Pfn1VNGrCWFLGpBSR8dMpDMqLNs3W1my+5yrIERGOtJF9ongk9v9+XgniNs+fYg33cZwK0tOI6IiIiIiIh0fB17WqLte7Z+/iXZn3/J0nVF+Awbw7hujk0hY8YQ77WXec86pvr9NnMnR133PbSTYsv19Bvfl9CTB9lkK2FnsZ2wAfcSFmxm3/rKFhQkgPsGB1NevBdTc45dR0vTizRbtZH0cTeTOegaBgB4ePFgsBdYTlPYyG7/OFyOtWsQaQGO12kDuxL0QymfV8KhA2UUXteT+KBK/n0A5pnKCbqxB71Ly/msybWqriH0OhtbNhXzi4JS9hh9XIJOFjYcsTGgfxBeJaUsOl3KvysDuLVvJwpNF67+/klJJV4/uZ5MHwADz/Y5P98yuqsP5UUHuH/XMWaWexFU5wkO/t4GAO7sdg1ex44wcesxph/xpHt9ETARERERERFxax07uOXCtuFjvi4J4rbxsY51sxzvYrcBeNLj7n6E1NqjiE3f2bn5lih+LNxJObCv4CCGgf0JKfmOtc2cDugTGEXStKnE++/ji/eLXEvUyLHB2LN3nScmNp5e5OKUMm9jKf6DBrAqdTimSTczzljBJ98cZUNju5UUM2/XWW4dO5z9/zGcWX3OsPZrE+8AVJ/k3yc8oNIZzDpYRiFQfvQknzRZnhO8u9fOraOHsn/CUF67vhrXsNWig+VYDTiDWVY2HLUClew+eGFOG/bu55MT1/Loz4ay/z8G0N/+47ltC3Yexdoviv2PxrD/Xn/Ozxn+kbVFFoJihmD6aQD/2HuEwoCf8M2EGPb/7HqMp5r8ACIiIiIiIuJmOl3XLfJsa2Tk5RPYGtmcd9cvWRBXyusvfsC+mvduHE/Gf/Zl319fZem+cB59fiK3+NmxVAOHj1AeHsihP7/M0u+c6aNTeGVib/aeey+WJzPH0PWbN/jtRyX1HrbfhOd4cpjLitw2OycOrOedv3/JvpobaEO/xo/d7Q5+/fRdhPmU8nXma3zwfRPp5apg8L7usuY/wMeL0DNWPm/JkwA9OnOv11k+t9SzSvwlCO1iYAC2lpWlkbx6221sqFtEj87c6wN7Tp2pdx0wl4TE+3bm+0qbY+2xy8RW9cNlzF1EREREROTqYLWcbPE+HTe41SyeGHsEYbSVYjpZ1cGP3Z5llY7gcge3pH0puCUiIiIiInLprsLgloj7UHDryqbgloiIiIiIyKW7mOCW26y5JSIiIiIiIiIiUpeCWyJtplUGSUqHpLoVERERERFpLwpuibSR6mp7exdBLhPVrYiIiIiISPtRcEukjVTbrWiEz5XorLNuRUREREREpD0ouCXSRs5Wn8F++hTV1TYU5LoSnKW62ob99CnOVp9p78KIiIiIiIhctTzbuwAiV5Oz1Wc4c/pHFAoRERERERERaR0auSUiIiIiIiIiIm5LwS0REREREREREXFbCm6JiIiIiIiIiIjbUnBLRERERERERETcloJbIiIiIiIiIiLithTcEhERERERERERt6XgloiIiIiIiIiIuC0Ft0RERERERERExG0puCUiIiIiIiIiIm5LwS0REREREREREXFbCm6JiIiIiIiIiIjbUnBLRERERERERETcloJbIiIiIiIiIiLithTcEhERERERERERt6XgloiIiIiIiIiIuC0Ft0RERERERERExG0puCUiIiIiIiIiIm5LwS0REREREREREXFbCm6JiIiIiIiIiIjbUnBLRERERERERETcloJbIiIiIiIiIiLithTcEhERERERERERt6XgloiIiIiIiIiIuK1WDG6dbb2sRERERERERETkKnNxsaVWC25Vn7G1VlYiIiIiIiIiInKVudjYUqsFt+z2KjR6S0REREREREREWu6sM7bUcq0W3Dpbbee0tYLqM6dRkEtERERERERERJp2luozpzltreBstf2icvBs1eJU27GdrmzNLEVERERERERERBqkpyWKiIiIiIiIiIjbUnBLRERERERERETcloJbIiIiIiIiIiLithTcEhERERERERERt6XgloiIiIiIiIiIuC0Ft0RERERERERExG0puCUiIiIiIiIiIm5LwS0REREREREREXFbCm6JiIiIiIiIiIjbUnBLRERERERERETcloJbIiIiIiIiIiLithTcEhERERERERERt6XgloiIiIiIiIiIuC0Ft0RERERERERExG0puCUiIiIiIiIiIm5LwS0REREREREREXFbCm6JiIiIiIiIiIjbUnBLRERERERERETcloJbIiIiIiIiIiLithTcEhERERERERERt6XgloiIiIiIiIiIuC0Ft0RERERERERExG0puCUiIiIiIiIiIm7LszUz6+ThiaenNx6dDUCn1sxaRERERERERESuOGepPmPDbq/ibLX9onJotZFbnTw86eLlh0fnLiiwJSIiIiIiIiIiTeuER+cudPHyo5PHxY3BarXglqenNwpqiYiIiIiIiIhIy3VyxpZartWCW46piCIiIiIiIiIiIi13sbGlVlxQXqO2RERERERERETkYl1cbElPSxQREREREREREbel4JaIiIiIiIiIiLgtBbdERERERERERMRtKbglIiIiIiIiIiJuS8EtERERERERERFxWwpuiYiIiIiIiIiI21JwS0RERERERERE3JaCWyIiIiIiIiIi4rYU3BIREREREREREbel4JaIiIiIiIiIiLgttwpunT1b3d5FEBERERERERG5anXE2IxnexegOarP2Dhzxkp1tQ3Onm3v4kgH5uUTCIDVcrKdSyLuRO1GLobajVyMmnbTdeD8di6JuJMTu9MBXW+kZfQ9JRdD7UaapVMnPDwMdO7shUdnQ3uXBnCD4Fb1GRt2u4Wz1fb2LoqIiIiIiIiIyNXt7Fmqz5zm7NlqPKFDBLg6/LTEM2esCmyJiIiIiIiIiHQgZ6vtnDljbe9iAB08uHX2bLVjKqKIiIiIiIiIiHQoHSVm06GDW506eWiNLRERERERERGRjqiDxGw6dHBLRERERERERESkMQpuiYiIiIiIiIiI21JwS0RERERERERE3JaCWyIiIiIiIiIi4rYU3BIREREREREREbel4JaIiIiIiIiIiLgtBbdERERERERERMRtKbglIiIiIiIiIiJuy7O9C3Al8o6ayaA+Rpd3yinZtIxDJwta9xg9DrNr3WKqWi1XaSsXthEXloK2r9c+85jweAKhPlCyfgZLVqxpy6NLLclEjI4l4IL3D1O4cj6l/qkMHBmJj8sWuzmXXZuXYa+zh2fvdKJvjyPCH0r35/DNuvmUWppRhOB0ht/l3C8/m7U5i6myuWw3JBGWkEx03yBspjV8vaqBfOsp63nllGzM4FBZM8ojl0VD1yHLgWXszs+tZ7uV0j1ZFB6s811miCU0NpUhQ0LwqzSxLXcxBfm5zShBCAFDpnFLbBQBmCnIWci2uvuda4tWDm1axsZ62rl0XEPHdGds77PsWmbmw6MuG+7oxu/6e/Bdzve8vRvGPhLM0K519z7Ddznf812f7ozt3bn+A1RVsfzNUrZcpvJL/Vqjn9uu/diYLKY+0I3d/5tIzrdtffArgEsfwLvSxLb18ykovNh7HEefhz0zKDx44baRT81gSOWHvPmXzNZtJy3oS7W/WEJ/mkxwZS55m5e1d2HajrOO7PkLKDhgctngaDPezr5Ku+qdzvABfvX2Zx3XyQpH373mzaA0oof1hbId7NqY1QHbmvtTcOsyCIgZw+hhftgtVkej9fTC+54USvOzeHNhBpWtdYwb8zm0bjElrZCftC2/AXHExwQ5Xnh64W3gfHspM1Lcpp29EKIfTCLCs4CVq7dTskuBrfY1mJH3JBFms1JV61uvCMvK+ZT2jCP+nlgCrFaqqh1bvH2SGHtfEm++lMohG0AIoSlZTB7RDZzpwvpGMjwxmY1/S2H1HtOFh60xYDHpv4zFr8xEcbk3UWOmM3zEYN54KR0zgCGV0bOmM9xYwaH9P+A7Ko3o4bG8/WIKhbY6eQXFMvJ2Z6DOwwtvL86VB8zkFaLgVju64LvKqdR3B7vzcy/c7uGF9z3JmDdl8kbWYkfioDlMeCaZCB+osljBI5yIIXFUFS3j9T/MauT7LoTQx5YxeZgfpYeLKPMczNgpixm2bhaLPnZ23p1tMaDcRGFFCHGPzWH4gBBeXTz/cp0SaWU3DjZyd38PRgba2TinlCM1G27y5e7bPOla7AhuDRzux93Xw+mqsy572/HbD9abruWn/Z3dVUMnunR2SVfhwS4U3GprrdHPbbt+bArxz09neOkyXl6Y4XjLatVN5cWqueZ7VlBSYsYeFMfDQ+JcvhfqOd+NcvR5sNUX3DLX/mGtNTWrL9VRRDHwziSGn7ReXcGtmjoaEcSbc1zrxNFm/DcXtH9w68YERt8TRF7RhcEtx3XSzPKa4N51P6YAACAASURBVJYhldG/Sme4TxHL583QNegyUXDrsili5bNJbAMghICR85j4SAqTUw4zv+amAIBIfHv1hYodVJbXd8MZgnePwfjY9lPa5C9iTeXVCGMCAX5e2E5mU9mckR1ySczvJ/Ly+47/Bz+WS9ows0t7qc0zMAlvu0ud+sQREGhsuK584ggI9MLy/ZoLOwX11nMCPQOBk/nk/TOjnvRWKg7n1H8RNiYQ4Gk63zZrynYxbVBqKd2xgPlvLW5we/HqISypiUM6gwCJ98Ty5opcGDWfCSO6Yd40n0VZixx1Z0gh/rmZxE2YR+HzKRQ3kO/Au2IJKFnDq3PTHTcoMVk8MymB+FHw3noISk5luL+J1XMS2WgGguYx6bkk7v+PNF5dvKh2ZoVTWPSs8/83LSb9v2Ipcy13c6hNXWZFDV57LtweQuikZUwe8SgjVy5mY1ky8VOSiaguYNncdHaXOOrHd9QypvwsmYfHZDvaY73SiBvmR8m6KSz6OAcIIeznK5g0KoXIj5dRQDLxD9Vui773rOa/Rz/O2B3zWb69dc+CXF5+/bvywphKpq5o5I7x1I8snGzi7brvryrmQ+d/J8y6gWn97ax6/AAvXaaySnM1t5/bev1Yz8Ak/AxmSo/Vf13xDEzCz6e8Tp/FC+9rvfC2ep1PuCeVRTPr7t2McjbYJ3Lu61n32FeeoIREIjxNrHw5kTwznP9eSGZg1mJ213e+neqvn8bksO2PsfV8PzVWVy1pb030pS4iv4Y586Hx9uva3z/f3hvJ7ypoc/jH8mBKKvOXNNwnbs75xZhAgE/5+e11X9dN29D9jyEW3+5BcDK7BQNW4oj+1TSG+xwnZ8kUtpldNjV239Yox/XSYG/kM1+FFNxqEyZKN85gedQKJt2cQFjWYooB37hlTH4wkgDnymdVB9fw5vx0zDZnwONGE3knwxnex/EFUVWSw9uvTqn314QL8qpJ6z+ftFkJ2Neknr9QJ2Qze4yRnFfjWHswjuhfzWdsRM2X0BxKchaw6MPGLiBy2d20mPT/iqLsAIT18aN0cybz39rPwCmZ3B/l5/zDnefyK+kcJi1IxrOoiKDwcLwBqo+7jNJpqJ5hdMZ0hhsBYzKzFySS96dYVu5PJf6ZacQFO9NXH2fbuzNZvikHnMfyPlBEQJ9wvA8sY/bvFxGaksWkEd3OXVRac6SiNGGPiTJi8fePAmDkrZF4n8zhzZrAFoAti7UfDCYgIYSAXlB8uL6MQih8ZwbzbfvP19t+M6WApwEgiYER3eBgtiOwBWCeQd7+JB4OG0EQizDXl21DnB3JshWpLFmT62z3gylbkc6SNUVqUx2OiUNHzBAThH9PICyZ6CAo+PB8YAugcv08Pus9i2ivwUADHS5DNp++kgsnc87lXWI2wyAvR333SiAyEIpXZp6r78pVayhMSCUsMgW2Z122Tymtzc6BI50ZmhzMlM0HWXi06T3E3dTfz2XAQtIeiyO4Zu7XyR28/UYKhfV8UTTWJ8ZQu09SdXgHxX6DiTy5jNm/nwVBM0n+VQoD/Z2ZVVew+6PpLMvpW6ePM4Tl05LY5uxjFf4plpXf1lPO8gKWzU9mt5nz/bFCK2ER3RzbLUUsfzXJcYPqMnrVsc1EzltPsLaxEdJuzLMzQAWWc6NUTBxaEsvsJQCp9Z/vBusn54L8fROyeXJML0pWzmLJqmyin8pnLI56dtwbmSm0hxMR6Ehfa5Rw0EyS01MY6JwxW7l9B+Yhg/HfnNnoj4Xn1OpL5Tbcfstm8vDLKXT7ZgZvfJgNhjlMei2ZsJI1vDw3nSpiGfn8YhKtzvY5YCGTH4sjtL42Ul9//11qt/cDuRS6lvMqa3MlB4oIiJnG2D1rWL61ns/YnPNbZCUs3PH3W1WUzaffj+DhEc6/55O550frGRq7/6l7nZpF3tYfmvEJQgh9LJOxfU6T95cUl3qKY+CUTJKj/JyvrRT/M5Mln2bh+0AOz/y0itUvJrKxzJFH9FOrGWvM4Y3ZUzAPWMzU1FiCDM5dXa9ZVzktKN9mTBT/32HwCSGsF9B7IZMeiqRyfQYZ06KYPTebkh4JpDySen4XYyTBBzPJmBZFxt9ysQTH8aDr9hrOvNg+/3xegXFM+MV0MGex+zCERiU7Ah6EED0wHMz5bD8IjEpndMRp8v6SyOxpicxfeRi/yDhC2+ScSOP8CDZs4s2Zicx/dw1EpDCyr5VdWVOYPS2KjKwCDFHJxMec3yPUz8SSZ6OYPTeLAks3Ro6Z7qj3But5MStnZpJXDhxYxuxpsaz8NoTIX0wj7toi3pubyOxpySzZ7kX0+BlE+58/VrB/OZ++mszsPy6CXjMZO6Ibh1Y6y/a3XKpCRtCvRxufsiuIT49Yho+ed/7fsOSGEw8IwR+oLMsHovD3g8ri3AsDTd/OYNkfU9h2GOg1h7G/ymbCuX/zCcNE1bFsl18nQwi9fwSh1gK2rQfoi68vlB6r/etlWUUF+Ae1/LqxZxYfba0gLD6dMEMy8eNj8Tu4hmVrctSm2oyRMNd2Nnomof4NpQ0h9Pog4AfKjgI9uuGLieJv6nY2cynISuLtDx0j+QLuzHJpZ9lMeCgNbLlUHnYZQWpIJX5YCFXf/ovdAD2N+FGBudY6G8epsEBAz8jW+/jSBqrZtbicA529mfDfQVzfULLOngydGszvav5NDmBoWxZTLlGdfq5hOg9PisN7/2LmPx3F7Gfnk+cxmIcfm+Psj7pook8clJxKXPBp8v6WzOxpySzK70aEy5JfwT9NJMK2g7fnRDF7WjJv53dh4H1TCLugj1PPKFVnOQOOZZ8vZ3UkyVMWEnQukR9BZ1Yz/+koMv6YQ4lPOIn3pwMQOT6ZCFsubz4dxeynZ7DSdB2Rg+5r5XPbcZRs3o65cyTJL+cyOXUhkYPiXEZK1H++G66f2nzjljFlTC/M/8xkyars+gtg7IX9XzMc7WDjcbzDk5z94BAGPpLCQK8iVs5NZPbTqSyj7wXHaJRrX6qx9mv7B4WHISgiwdGWY6Mc/Z/gvkQZAEMSEcFwaH82MJiBo4YQYF7DG842srYshLia/jlQt79/QXsv7EWkS3u/2tpc1e45fFYE0Y/MJ9JQd2vzzq//D2+TMS2R+atMeIYncZ//auY/ncjL7xZQGRhL3CiAJu5/DDO57/5IfA46rxUzs/CMCGmi9F3omZLF5GF+FK+czkqXAGTQQxkkR/zA2j8mn7s3C74zndE3QeW6TRwihMjbYh2JDWkM7APmPdmYSSL+gVgCSrJ5dZqzbVpCGDQ44dJP9hVAI7fanBfefhAwIIqgUzt475ty/HolATnkFSbwcEQcQTh/XbDsYO2HzsXmdqWy+tv82tudgkYNIchWwLKaURolM1i5dQRTh40gkky25ZtITBhMtD9sPOX44zi0ZrFj/q8d7HQhdMjjBB9ZRsmqJF5d1ZbnQxpWwa5P0zlU7nxZOIVF08ExDDUJP0+w4UVA4Pk9ijdNocQCWDLY+O0YIiOMBAAlLarnRxnU14tD32Rx1GMwAb2g7F+bOBSTQOQQ2LbOeayvUyg4tz6CY/2KoJuSCN1u5dCuVBbtau3zcXXxDo4lPsjljeJy8jaffxmWuJ3n7nKm9fGCk7l8tCoXSCLACLbqSy1BCEH3/50JMZD3l3QKbADd8Kt/dfiLZOJQVhbbfpfG2OdC8AsysXbODOdIHbWpttGNyNsTiDj3uu5aaOGMfmU7iXBu3TTzpoVsLIOgwOsAM/ZLXZvEkMLIp6YxvDqXN/+a6XjPaLzwBljc1+5j/HqNN++N9ud/fnGKh+tL492FocNc7ly0npabcvRzCRtBhJeJnNUF0D2JAA6zeZeJ4XFDiACOu+wRMLyxPrGVIVHdsBdmsXKX44eV0hWfsWtUGtHO/Uvej+NlcEzv6RWCJ6fBx9H/aWgK/jmjbifS6zg5H86g1AbYFrHyy0SiH4piYC9YC0AF+WszHNsLM9h+cDWjjY5RH/ZqK3j1ZWBsCqVbs8j7YzZ5rXIeO6hvp/DG8ylEP5TCsCjHelvYKtj9af0jsaCZ9XP9YibHRGLZlMmbnzYyMrd8BznrHIGvkmWbKB6Z5OwHpzEoAswbF5NXYgJMFH+8iUNDEvBt5OM02JeKndFI+zWRX2hibIIjmFV6Uzh8m8u2n8QSEQvbiCKU42zc4hi5vHthrONHG2MCAX69HAe71tk/B2r391MYEtUNDixrsL1fdW2OXHa/kUXU/0vl/qlzKP6D67YdzTq/hd847pFLiw5TQQhlhc6/5435mB+JxNMTmrz/YQSRhgryVtZcK+azevN9RN95XSNlD2H4CMf//Hv0BWr+RpIYGNmNyu+y2P1jXwJ6Abs3UXh7ChHRKZC1jILDSSRGJeO9IpeqO4YQhonVX2YDSdirwbNrFFGDEthVsIiVLy2q//BXIQW32pD3NV2AHzi+H7yHecG1g7l/Wu1foKvKrOdf2Ky1FhUvq6iA6y+sNM/OgKWc4y43GOYT5WDwwgeoWpVLcUIyEcNC2Ijzj+Nr51SRTTN5LziT0SNTSBuWArYKinMWsuRTTUvscIKmM/qJFIb38gKrlcqyikaT212DGy2qZyPeBgiNnUnaMJe3LVYKzzRwsMOZvP9xED9LTGLyC0lQbaVk5zLeXqwpZBerqTW3zIVr2GwC/4EJjAwuYtm5BVALMJdBmF+3xg9weBbL/9jQxhAC7lnI5DuDKFmR7vJLUxGl5RDqVc+TPm1WLmq5Ptt8vt6aTHRcN6r2LD4/3VFtqo00tebWcQr+tYlDBDHwp7EEF2WdW0zeXGIGjPj3Auqd5upQ+s8U3v5nAxsNSQz/1XQSux1m+TyXBWNLzJTSC89rL9zFXlV+4ZvS4R1ZeoS3I/qQGtedF3bUk6ChNbfEbbj2cwn1wpMQ4v5zDiNd0lRZii7cz6exPrEXnh5QUeZ6kSmvFVT3HbGYhx+IJdQH7JYKzJYuzS+0pyO/MtfFzL8vp4IQR5DuAqZa/avCJQtZ+59PEPfQTIb/bCb2siLWvj+FjVfoFDEALFlseyvL8b1hTCXuP6cR/9BMSnbVTKGqrTn1ExbjGKFSesGWRtistV56ApUnXBZcLytvci2qBvtSPo2336qvCziUkEBEbAqlvb049PUsClnN/TelE0Y4nuZcth8GCCHonoWkJIQTYIAqSwUV1noKco6jvZeaXf9Oarf3q7LN2TJ5790hPDMpiYcTXIOoLT2/jWni/scLwMxRlyesVv14uslcSzdnsrT8UdLvnMaEg/m8vS4XCMLbC3xvTCatr+vMDCuldoBcNm4rInFMFFGGEBgYDoez2VYGkE3O3wfj/8QYEn8+n9FA5bEdfPGXFE1LRMGttmNIJT4mBA5ns8sGPhYrWPbz3rP1L+wcDGDwcvnlOoRu/n5QDXZqV1yVxQrGIIINUOK8+AX3DAKbyXGzaVvEtsJkkgdOYzjhcGCZy5dPAcUfJ/HGx4AxgYgHMphw5xQS8xezutYEb2lvQQkPMTzwMMvnTmFbiQkM85j0WlIz925JPZdTZYND66fw5qfNXaDQROm6FBatA3ziCP7pDCbdk8L9BzJ4e11zP6G0RGXxDPLWAHsWEvFMHPGPpLL7rcVAFoXF0xk5IIHhQZnOBV8dfO9fzTN3epPzShxrGwlG+CYsJG10L0pWpLNkjWsnYg1HT05neEgkQeCc9hhLWIgfHDc1/Qt5ffznMDq2G6XHjuM3YAzxvTNZexDUpjqKcopXzmAbUHxNDlPjxjD6pgzHOjXb8zn0QBID70plretCr4Z0xv4ujUGHFpPxp8xG8o4j+ldzGB18mOXzkmovsLrfsfZJaEQybHXerPgPJtgIJZvrHx0gHZ2NhW8cZ+BLQdwz+Cxwtsk9xI3U6edisWLHxNq59Qc8gl3+X9VonziJKisEXB+JNzh+9DX0chlFnMLI0bEEmZYxf+Esx4iKe1Yze3Qzy22xYieEnjcBNTetoUEEYKWqAqg3wOW6/yJyfr+IHELw7pFM/NQ0En82h8I9qS1bg9ItJBGdOoXIihXnpp1TvpicLxMYOamvYy3GC+q6efVTsm4GK31nMXnEFEbvWlNr+lbzOPquoSFpgLNsvYMaHbUFjfSlmmi/lK2h2JxAdFQyvv4mCjabKKCIh29PIA4vSr/LdQbq0kgcHY59UwYZWY7ZOKGTcpkcUU+eAJgd7T0o3OU9o3PdU6erqs252DqD9wYsY3JiHFXg/EG1pee3MU3c/4y68FrhCOg3poiv31pMKftZ3nc+Y0fPInpPEtvMjnquOvAPXv5bA0+A/moTBfekMPDOadAHilcsOD/opSSD5S9lsJxIfCNSSf5lEskT5rD7D7Mu5oNfUbTm1mXTBd9eSQT0SiHizoVM+M10hvtXkPeZo2GW5uVj9hnM2EnpeBsAYzpjM/J57r/mnA9cndvueApNfASUFuZccOEqzcvHTDi3TZpOgAE8e88jcZAfVfs34RjQamL3zgLsfRKI7wUFW84PXfQds5rZr61meHAIlBdw3PwDdqzYf2yDUyQXwYqlzAREEpZye7PXEmhZPb/Drv1WQkfNYnjvSCCSgDGree61HOKjGjjAsCyeWZDL2EGRYMnBbCrHApc+XekqZvDqRkCvJJd/cfX/GnEwg5W7rAQMe5SRzmmMxdnZFFeHMPqpbOKGpTiuQw9kM+XOEKq+XdFEYCubJ8eEU7E5i5X5xnPH9zWGACa25RVQFRjHz1LS8TXGEvrAHOKCrRRuyqo10rR5QohMSSLCvoPl82aytqQbcRPmOzqjalNtpOa7KqlOXV/I/Okytp3yY/gDzjoqW8DqzRUExEwjLXUOob2SCBg0h7EzHif62uNszG4isPXUfMb2riBv2WKKu9QcP8HxnWhbRN63VoKGpZM4LA5vYypxaXGEWovI+5eeCuS2jpby0ic/YjV0au+SyCVrvJ9L7iYKrSHEPTGPAB/AJ5mRz2xn5qyFtQJb0FSfOJu8XSbolcCkx2YSHJFO3NQxF669Yyunwgb4pDF6pOs1LJ+yU4BXEMH1fY/mbqLQ6seg++c7Fg43pjP6NsfatLsb+a50SGDks/nMfGYeAQYTVSf3c7wcsFmv0KfXZVNKLyLinuDhO9PwDYzDN2ImY+8fjLfVRPF+aPB8N1g/DlWV2Rx6azorD/oxfNJCooMuSNKEd8grsOI75AkmjE5zfBdNiKXZ2dTtSzXZfrPZXXgc3wGRhJqLKCgDNu/nkDGcMKOV4vzaI+/tp52jyILnET+gsYhpNrsLjkOfRMaOTAJDLGGTUog+F8y92tqcKxOHshaSZ/G6YNmC5p/fxjRx/1PnWuHZex4Pj2pqza0aOWz7ezaFhDN2ykKCnPXsPSiF0TGxQAjeMVmk/2E7D9852LGL7R/kH4CwOxMItRWw7auagG86Y1/JJz01DU8KqDTtp9TqOAeikVuXUQjxz84jHqDaSqW5gJV/SyevZnHcg1NY8uEyJt+fxnMxaQDYzTt474NZ5y9O5QUUBjzOc685tlcdXMOb79YzTelcXqmkv+ZYfLPycA5v/9XlxiInh133RRLtWUC+y+K/laveIWfANEY/v5rRzrIeylnQ6M2vtA/zmhXsjkrh4VfyHa835VJMbLP2bVk9myj46wJynprG6GeWnUtfvC6TtfkNHGDzQr6IyST558vOrQlQmp/FZ+tb8gnFle+gVNIHub5TxPJpOfVMHzNR/GE2xZHJxI2fzsY/ZYJ5Fkt+b2Xsz5OJf2ym4zqEFfP2LLL+t7GAQypxtzuetuk9LJWpLsOyS2ueNrQ+nbd7/p0JcWk8MyINsFKSs8A5zLqFYuZx301Q8P4Mim0mit/OYcgzCSTfE8eSVWpTbcPlu8qptKEnS9nms3ptAoPGxHHfqBDeW2/i0FuPs6Qyk7G3JzN5iHNofXkRa/82nZyDF2Zxzk2p3NbHC/BieMochp/bUEHen9aw8lvndeiZacQ9ttAxLcRiImfJFHbX9yu6uI0jK46xePBPmNa/vUsil6aJfq4tk/eW9GXyY0mkv+IcZW4pYvWfMyih9sitpvrElZ+ms8Qjk9Ejkpk04DTmzf8ir1uS87qRxcYvk4l8MJWZC1IdT4reboJzD9vJZdvXOxj2UBxpz0Y5Ri67HvtcORNIc/av7GUFLFs4pRmjYNaw8bMcBj6WRHrNSHqLiZy3Mlo2vc6NFP9vJit90xl9fzqR9zvftJjIWVKzNueF57vx+nGVQ96SZUTOSCbxsXkU/3FGC0pmonjJLJb9xwzuvn0KaZym8LMcih9KoMFnpNTdv05fqrH2C2DesZ/Skd3ggHOUlnM0V6hvAbu31uS7iJycWCbEzWN23DywFJFXWEFY74ZLYv50Iav7TCfxkXlEPwJVRbnsLo9lIHA1trlabItZ+X4cEb+suf9p+fltWFP3P5l8tmwIkx5xXiucbTksprE1t1yUzeLtJSGk/zKOlMdSmf/WTJZ1y+T+SYsZPsmRxLx9MZ/9s2bevondG3dwX8RgPAu3s/vcj7vzWftZHJMfTGfmAseDLexlBXz6QWP9+6tHp+u6RbbKuHAvn8CmE10Eq+XkZcm34wjBu8dgPC07qCw/H3RyPO42n0UzUykxJuBLQa3tjeZV7vIEqnPSGDs3naj9i+of/ugTR0AgVBzOcevIf007vHLbTf3tpdlaWs8tTW+Ixbe7Efv3a6hyoxE2V3S7McTiGwiVx1p5tEtb1XUHblNXdLu5CJ6BSXhb6vv+uUTGBAJ8yilt7TbcTmraTdeBDUxFEKnHid2Omxh3vN54Bibhx36XJ/E2pKE+TgjeRj+qymv2T2V0xnQGHXDp07bCd4VnYBLe9ovrXzX/M7aty/Y9ZYjFt3sQVDTzfLXJd3kk3sYKqmrK41y+w/OfqS1YZuNCrVK3F3OfZUwgwNPU4HEvZ5tzu/5Na9/HNppfJL69QlqvLTf2tzEki2dSI9m3ZAjLt9bd8RLvCS+D1o4HXUz7U3Crg6oV3LrEvIISskgc2peIYNj4p1hWf9v0Pu7K7S7G0iGo3cjFULuRi6HgllwMdw5uXaqgn+UwdZQXhev/RWEl+Pa9nbiILhS8P4b31neMm7qO6ur5nhpM5H8t5uGwCrZt3MRRqxc9b44jOriCnFfjnGt5SnNdPe2mo0om+uepDOsbTrAtl0UvXno8oC10hOCWpiV2UFVH9lPoabqINWzqGky3rkao3M/avy0k5woObImIiIjIlcX8fgpvlM9j7IgE4n3AXn6YnHcXsnajAltSYwcFf0rn7UdmEB+TQJQBKk4WsPKPc8hTYEvczbXhdPOByn1reDM73S0CW/8/e/ceH+OZ/3/8VTKRIYIkDuMQIZs4hKYS+xvaxFkU0YZuVFG6lFKWRVssdVoaqmVZXVpl61BV2Wq2lDZVlHTJd4WmFZVYpzhEEMdESNL298dMjiYHESS8n4+HR5v7vq/rvu57Zu657898rusqK5S5JQ8V/dIgJaH3jZSE3jdSEsrckpJ4lDO3pOT0PSUlofeNlERZyNzSbIkiIiIiIiIiIlJuKbglIiIiIiIiIiLlloJbIiIiIiIiIiJSbim4JSIiIiIiIiIi5ZaCWyIiIiIiIiIiUm6V6eDWb7/9Co899qCbISIiIiIiIiIi+ZWRmE2ZDm499lgFKlQwPOhmiIiIiIiIiIhIPmUlZlOmg1sAFStW4rEKdg+6GSIiIiIiIiIiYvVYBTsqVqz0oJsBQJmPGlWoaMAO+OWXW/z6awb89tuDbpKIiIiIiIiIyKPpsceoUMFAxYqVqFCxbGRuPVbNtVmpRIsqGZ1LoxoREREREREREXlE3Uq7dMdlyny3RBERERERERERkYIouCUiIiIiIiIiIuWWglsiIiIiIiIiIlJuKbglIiIiIiIiIiLlloJbIiIiIiIiIiJSbim4JSIiIiIiIiIi5ZaCWyIiIiIiIiIiUm4puCUiIiIiIiIiIuWWglsiIiIiIiIiIlJuKbglIiIiIiIiIiLlloJbIiIiIiIiIiJSbim4JSIiIiIiIiIi5ZaCWyIiIiIiIiIiUm4puCUiIiIiIiIiIuWWglsiIiIiIiIiIlJu2ZVWRQaHaqVVlYiIiIiIiIiIPIJupV264zLK3BIRERERERERkXJLwS0RERERERERESm3FNwSEREREREREZFyS8EtEREREREREREptxTcEhERERERERGRckvBLRERERERERERKbcU3BIRERERERERkXJLwS0RERERERERESm3FNwSEREREREREZFyS8EtEREREREREREptxTcEhERERERERGRckvBLRERERERERERKbcU3BIRERERERERkXJLwS0RERERERERESm37B50A4ri2CCQ4P6+tKtXmfRLCezaHMGGfQkPulkijxB/+o5siqmAtSlHI1kRcbjg4u6BDO3uBkVtd9es7Tx3mEWfR9IwsD/BHpVzrb/BkW2RbDmi60dJWc5pBvtXh7E7Nf9yOLJ1HVtOPLj2iUj5VRav2cEzFjGyxUXCX/srS0tybes5gc+GupH45VJGr7iX338i8sioYib4j/508aqG/fWLHIiKYs0XUaTctwbkvd8uDbqPlNJSpoNb3sNnsaC3CfvsJSa8zb4E7wxn+LyIUvkQD33nH/RtnMiGPn9lRSnU96D2IXLveNDlGTOeBaxNiUooPGjl0ZLgZ5pCUdvdNWs7j2Ww6PNIfvekmWBz5bybPNORsSf2M/u1pXmCM1I8Wee0R7PKDB+zipN5lkNUvG5KRKRkyt412xX7indWIv/9nqO94Z60TEQeUU0H88Fb/ngagfQM0iua8PRtSY92box+LYyT3I/nzrz326VB95FSWsput8TOE5jV24R9eiLhb/6Vjt2H0WtSBAcuGzB16MnUznk3d2zgSytfXxpWKahCNzx9zXi65l1qbzRY/tkq4tqSVt5Nccz6u0pTvH3Nn27IsAAAIABJREFUtPJ0s70L15a0utN9iJR5qxjefRgduw+jY/dIjgAci7T+PYxeMyKs27nS0Nuc9zNTbJbPZ4GfLbB+/gr7jNtyg6h3rO0cHsaG2BvYu/vyxpvBJWijZLH3NDNleMsitrK+H3xb4lzAFs6eeV9zZ8+C3z/OnoXXJSIPg+Jeswv7zijq2lPU940bnr6+NKxykQ1vjqXbH2xkbbm2tHnPmf9+L+XzuTzXZ+xtWVtF37Pefn0UEQl+0YynEU5+sZiOz75Kt+c/JPwEOHqbedHXsk2Bz51FPcdS2HXHcl31buBqY12usoVd1/I/V7u21H2dlLoym7nVt6sHzmRwYM1iFu27CEBKTBjj/+3BpufdqNPKH76NBNeezJrXk4C6Wb+OZXDyqzBGL9pBSucJbHqtKcQcJtGrqSXKzWBOfrmOl5ZEMvK95fRtDGCi79bltPp8GMOPWsscSyS9oQnn1MPMfv4ilSZOYGwH15wLxbUE1k7/K5b7lZYMfedlBnpn/eL4Mpf2RzBtShjtbO3jg/t0EkXuE+eeY1gytCUmo3VB2kW2vPMu8/9z8bZtszIyORbFpDc+5MhTY/hgRK6yuT9bw2exo7eJk/sOU7VVU5wrAr9cJWrFh0z6/M6ywFJORbD0tRuY1gwmwMeXF6uEs1TZWyWSnm7As2cII3f9xFIbL4NjYL7X9JcbxH76IaPX/GS97l7kwP7KtPK1XDMvRUWwpZo/A5ta/k5P2s/bLy3lW4AqgUxdHEznrGt8rrpE5OFV0DX7tutLru+Mwq49AN4vvsnc591wzMrIuniUpXPmsuFwIHM/DcFMIkfSTXi63iDqnf2c7LPckgHRfRpLbX4f5b+2QZ77PSxljmTd+xV2z0pWGxKISjJh9rRsk34iimkjPyTqfpx0ESnTTFUNQAaXziVaFqRGseKtDHbVhEtx2L4OfeBKjwKfY4tx3cmdLQZc2n2Y5NyNatqfJTM74u2UtSCDxKxeVp0LeK5+cxKvP1nNsnlaIrvj79UZk0dNGc3cMuNVxwBc5Mi/8j0cfzqXXn1e5aV3IoGmjJzWk4C6cOTLdYyfEs6WU9Dw6RBm9cwp4tjMxKV/rWPamsMkphto2LUjA4FP//YhW04BXGTLlA+ZvzFXmcbVSN69gxUf/8T/fEPo+6QrHIti2pjFTPpXAilObgS/aNlJ5zctga1LMTuYNmUdK2Ju4OwbyMgXXQvdh8hDwX0wc4e3xFQxkfC3PmT8ov2crOhKj/EvE5xvU+8/TGJWbxMci2T8qA85UHMwC0a1xHTzKCuyyjq4MXDSGMy5yjVsVo1dSz5k/peJpFSshvnZQFqVqLGR7D1xA6hGwzYlPeBH3Q0OfHmYS/Ymgse+jPdt682M7N3U+n5YzPA3I4m9WRnvZ3vmej+40rBiFNPe2sGBy+BsDqRvlcPMnxLOt2fBvrYvvfsDNGVkaDCd62ZwYI31Gn/WgHf/wUw137ZjEXno5Ltmuxf+nfFiUEtMxot8++Zf6TX8S6IuG/Ds3JHOYOkR0N8Nx2uWstPWJJDi6sHQV/rnZBI4mTBd/okVa3aw66jtFjV83JW9S6z7/qUy3n8IYaR74feUFsW7Z8XJDberkUx7awdRSWDvbubF/qV3RkWk/FqzN4F0DLQaHspnH0xi6tBgWpHAgf37OZlawHWoiOdYoJDrTlPGjvfH05jByYhwxr+1gyNeHrmGKnFl4ItmvKvcIOqDpQwfE8buJAOmDh0Z6p5TfZ7n6p4vM/LJanDZci2evx1a+eTrki5SQmU0c6sajsait6KKvyXCfHY/c5bs4CRw4NOmtHutKd4BwfCNZbP0nyOZtG4HsIMWTy2nb2MDVYFLR6JIyXgZyCBlf5Slu5VVeswOhs8Lz/77pWexpHM2qUZD6zLH6q5AIF1bVIa0o3w6aR27gd2XDFTq7gZJroXuQ+Rh4Ni9KZ72kPjVOhbtPgxEsabNIqaa3WjXG8KvWTes7c8sswnny4eZ/8YqYgHHQA887eHINzuITQVS97PtYFOG+rrR1ZfsX6oTd69j0VeHgWq0CwjBbDSUOI351i93ecACR9/l7Z3vMLeDmSljo/KN6RDF/JFRzMeVht4eODcAfgGcKuealOAiu/66jt2pYN/ZTCszHPh0KVv2w5YoM517m7B3BKqYaeVpgGP7WXP4BnCDbd8m0O4lD5p3MEOUchlEHna5r9mFf2e4klwRoBpuAb60ijjM7BfDs8dn7dHBzdIjIGwua3cDXKWqvT+eXMQlawdpR1kzZjEbrH+OtNGeS1FfMv+rKCCKpb7vMDfARKvOsHRFEfd7Rd2zfnkjuw3hb1rvJ5s1ZUfW9VBEHnkp6/7KC2cH88bzvrRq4EHnP3jQ+Q+B2ZlSNp87Ly4t5DnWmgFW4HXHjHcD4OxPTF/4peW6ZW9i02tZ3QsvsnbKWNZi6ZbYsE5lyz0flTF55LQ793N15xk9ccx9Ld59lIbNQq0ZZyJ3p4wGt/aTeCkEnAw4ugO5xzqwfjC5cJRYr2qWG5KbN7IHNubbiyS+Bp5Vq2UXSb95445bkKdMlUCmLgymcwNrqua1jFxbmnB2Aq5l5KRonohgxdI73qVIuWSubfm1JSUtp3/at2evMhUTjjUBa3DL0T0ntHHL2h3QXNfyOfXs+TILcv9yzQ0ca+T8lbvuu2WqVhm4SsrlUqvykRQ1bxVbvMbQ4+nB9M7z8ljS30cGuFq6/qTfsDH5RwbpxekS2sbVEhBrbGbBnHypWsZqtkqIyEMm9zW78O+Mi8z++w68p/njHdiTWYE94ZcMTu4OZ/S8CBo6VwZukJ71gwuH2fJR1sUr0PKfjIy83W1sSL6YM4By1EVLVhnFGXi+TVH3rDeK3QYReXRd2rmKSTtXAa40fDKQsaM70qpDMLMORjD+SxsFCn2OtSroutPZeh9m67pl/dP7xTeZ9bybtat2Binpt1eT+7naq2b+a/FF4i/cAAW3pBSU0eDWRXYdvUqwuyvthgay9M2cmRHNY19mbkA1Tn75Li/98yKJgKdDZRqC5UNn/RCmX78KFDzo3Z1oNTqQzg0MnPzyQ0YviSKlyst89C+zNfKdwLnL4OlgyPnlzz2Qod3d4GjkPZ4dTuTBizp7FaiMo7EpYHm/d65bDcgg5ULOduknoliT1JKh5qa8OiOQqBkR2WVj1wxj9DoblXvYWHYXHH1G0qMpcDGBb/aXbt2Pnp+YP38/rRb64t0Ush/MfPszsIMr9ieiGP/ahxxIdWXs0lCC3QurqwB7Ldf4hocj6DYurPSaLiLlQv5rdmzrIr4zWMfo/ussP4QGmBn5R3+8O3Rk5KcR7D13g76NDdhnjwvTlB4v+eNJAuEfFb9NprqBgGUiFbOrtStNcTKC9xZ1zyoiUpiOTF0RQkDFw7z90mK+5SIn/7OORb9vyUdPu+JYz3apwp9ji5AVyMp93eptylU2hJF/cMM59SiLRs0l/CL0+OsiXm9dcJWWQFbea7FvA0vAS+RuldHgFhxYGkGUbwjm1iF8srQlu368SiWPpgR4V4PLh9nwz8OQepFdh814Nm3JzHE9WbSvGs+/6GFJddwdDkwoeke/AFTDe9zL9N39YXYquk0VDdi7tqTv2Ja5PtQ7+DKmJwEdPHj+ncGkrLuI94ie9GgAsR99aHsf+0p6VkTKnpSPfyK2pwnvToN5PS6cvc7+DG1VGVKPsutzwDqzaXpSAmtnHMb9o8F0Ngczq/d+xkcc5UhPE95Bkxh4agexePDiyI60qpLAimf/ytq7bp2BOuaXGft4NTy9TDRsUA1HbhC1Zp0G5y0Nh5cy54tQFjzjanM2WHujG56BIbQrSWALIDWKA0fMeDb1Z0H/i6w5DN59gxnqYyD2o1cZ/endNF5Eyp4irtmFfmdE0eLTEMwOiYS/8yW7zl/FkkBg+aFld8RREp9sSauQNxmZFsHJZsGMDXSF2KssovjBJcdWgcztn8GX+DLSXA3SE9i13rqysHvK1C+LuGcNLI0TKCIPrZ84cS2Ezk1b8ufFY2jx8w1wMtHuSVfgKglZz5f5rkPZXaRtPscWJYrYU/54NmjJzInBrIipxvN9PGze82F0o+GTgQQ/Xnig6tv/JvJns4f1WhxJsk8gXeoWu0EihSqzwS1SI5g0xsCst3oS4N6UHtaHo5RTh1mx4F22pAJcZO3UcNwXBtM5MJgFgcAvNzjyRTjTviT7obowazYfpsuYpngHmnG2/8lm4OnAkgh2twgh4OnBfPY0pMQmkIhb9vgxUfNWsbbmywz09uf1OZA1S8SkTwvahx6r5SGSGsak90wsGd6SHmNfpgfAtUTCF31I+G0bRzJ7blN+N89Mq5fGMPLnaYx/rxpLhrdk6F+saVppF/n2vaWlENgCMNAwIOfXqZSkBMI/WsWinbfP4iglE7t0HeEtRuaMlbB/HWv/M4nXnzQzd40ZriUQexacS3Tjcpilk8NxWRhM5xf7WycRyHt9FZGHSRHX7BOrCvnOuIjjiqZ8MKIlwX+xTmjyyw1i14VZZsaNWsycdZbuM33HvgxA+tmfWDQ9jDsJLJ38MQG35/szyx745SoHPgpnrbWb9W33e3m6vxdxzyoiUqiLrJ0ahktoMMGeLQnO6heYepGoNeuYbe2RkP861L+I59jCHWbRgh14zuyId4eezOqQQeK3hznSuam1W2IYS79syYLeHoz94E1Iu0js2RtQ2I+aX37I0hYTGNvBjb5j+8O1o3wbU5nOPiU/MyJZHqvm2uy30qjIsUaj0qimAG54+lYjef9PXCpoE9eWtKqdwZHYwzbGdykdzp5mTDePEnuqgAfjKk3xbmIgsbB2ijzEivyMFFG2IYkcOJJwD1om911pX5NdW9LKDU7q+ioiFP6d4djAF0+HiwV8n1gmu7BPiuLInXxVDZ/Fjt4mjnw+jOEfuOHpXZnEkl7f7sM9q4g8zNzw9DVhf6H499x3c48O4NigJS6XfuKkrTFTS/QM7IanJxzRfb8UIOXy8TsuU06CWyIiIiIiD0ie4NaDboyIiMjDrSTBrbLbLfEh9WNa/APb9+NGrwe2bxEREZFy60wiR45AwpkH3RARERGxRZlb99CDDGQVRkEuERERERERESmLlLl1F8pqIOpeyH+sCnaJiIiIiIiISHn10Aa3ynqw6n4GlIo6FwWtV9BLRERERERERMq6chPcKuvBqqI8yEBR1r7v9Bwqw0tEREREREREyroyGdx60IGshzWIk/+47ibY9bCeIxEREREREREpX8pUcOteBbUUiLGtoPNSnNfhx7R4nVcREREREREReeDKRHDrToNaCqrcW8XN8FKAS0REREREREQetAcW3CpOQEuBk7KhsDG71FVRRERERERERB6kCg9ipwpslU9FvSYPeqw0EREREREREXn03NfMLQW1yr+SzrwoIiIiIiIiInIv3LfgVmHBEAW0yp+Cglwah0tERERERERE7qd73i3xx7R4BbYeYrZeP2V1iYiIiIiIiMj98lg112a/lUZFlYzOty37+bekArdv9ljt0titlBG2Xmu9xiIiIiIiIiJyJ26lXbrjMvekW6KCWgKW94FebxERERERERG5l0q1W+LPvyUpsPWIavZYbZuvb2HvBxERERERERGRu1Vqwa2ighgKbD0aFOASERERERERkfvpns6WqICWZFEXRRERERERERG5F0olc+uYQ8ZtyxTIeHTptRcRERERERGR++Wug1sKbIkt6p4oIiIiIiIiIvfDXQW3FNiSwui9ICIiIiIiIiL3WqnOliiSX/4Al7K3RERERERERKQ0lWpwS5k6UhwKcImIiIiIiIhIaSm14JYCW1IQvTdERERERERE5F5Rt0QRERERERERESm3FNyS+0LZWyIiIiIiIiJyL9g96AYUzIuGz83hWV8TVeyAtESiNy8gYt8ey2q7rngPmkAPT0fsKkDm1RNsX/s60QmJlvUuowkc2Ae/uvYAXDn6DRtWziQ5807a0I8nxw6nvbUOrkezcvZYys6IUW3x+9N8nrqyisVrlluXmXDpPJ++ndypbvO89cFvyHA6NSrgvOFF7cBp9GnvTvW0sna8IiIiIiIiIiJ5ldnMLYeO0+j7BOxbOYTQiUNY+lUyHs9Npn19y/raz03gmTon+GJRCKFTxrLux0q0GzaHJnYAfpgH9sM78zuWzvAndOF6ztTqynPPBt1ZI9oE8lSNE2yc4U/oRH9Cy1igp0rn8XSqFs1nnyzPWfj4dAYEunI0bCyhE4ewcj/49B6GtzWM6TFoNIGucWx4K4TQKTP54qwrgf3H4wJAV8zjVjLk/8H/RRwktRTbqkHkRUREREREROReKLOZW/Ua1YWTm/nP0XgAruzdydEuo6nnCZxuj0cDR5J/3kzcuUQgkTObo0kK6EDDRhB3xJNqVSHp+5lcSQPSlhB1JIghdVoAmy07cJtO3/7t8ahRSGaX0R67zGRLHfeTy3ieGRaEd2Ftc5nDc4FVifloLmfyLHekyvU4Yn6IBiDpi2jOPNWBeo0g9ogfN498x8ZtH3DyuuW8xUUFkfqSifpAMnBl33Lm715FZse1BHLrPh2wiIiIiIiIiEjJlNnMreTzKdg19MWvjgkAuxZt8agKmZkA35F0KR2XZl1paAQwUb1zC2oDmb9a1p88l07t5tMtXfOMg/HzdCT51EFr7YPp8VJXXE5+wsIpOZldfZ/rZ1ndcS2T50Uy+Wl3qOrHkHmRlr+nLuLejxzlh3lgHzyuW7POZq/iqGuutgHQFvOg9lTZ/xERPyfmLX4kkeQqTfBp4QWYqB7oR730s5w8DhDNmd0ziUvIKePQqC5VridzDoBviNu9ijvquVkMytoSERERERERkXulzGZuXfnqI7Y3HE3guDACSSc11Z4qmfHssg4ddfTfG4kZ2o/+MyKBdFLT7HG4vIeYowCJxH28hOovj2bknEgAkvcvZ/UX1qwtVrFl1qqcnZ2zZna5ulv+3jGQ0B1YglxPJd/ncae60rBuCrEfWbPOWM6uHwLxa+FHddZzBajSYzydjNGs/mw90I/AqaNx/d6fdTuA06/z8b+XMeiFlUy2A1JPsGX5FOJsRaxcJtGnrQsnty+4r90tNbi8iIiIiIiIiJSWMhvcInMjUe9tJArAZQ6D3mjPze83EpsVpElewpa3l7AF4IlljHnBi7ivFpAMQBBPjhpP62ubWTn3G65WbU+ngcP44/O3WPrperIGXX+ugzsu9rn2mXA/D7Bgdjji91IkfrkXXj9LJQAm0bO9C7FhY/J2R8zSZiXDe7oS89kU/nMkHZf24+k7bD78bSAxybm2qzOdviO6Uu3gEpbu2HMPj0ZERERERERE5N4pu8GtbH54921LvevRrN6y2cb6fnTq0YJKp7/h673W7nY129K0ZgqH/z2XpMvA5Wi27PFl8lNtqc16kjwm0TfQlZOfTmH1j99xMxNqP/8VQ1zv53EVLJMUoj98mogjttfbYY93SBjeITnLTlr/69HcHYdzEWzf/x0AZzZ/RuwTo/F+HGJ2WLap0noZA3p7kfL9ApZu2XjvDoTbuyQqa0tERERERERESlOZHXMrW5tRBLqnE/3ZXJuZSi7P9MdcJZHt62bmzO53IZGL6Y54tBltGXOraj+efMIdrl/iau7C6YnczDTh4DaJp5o4lqh5DgFrGTcvknEvjc63ph+d/hLJ5NAwzHXzlekcxuR5kYx5YbCNGr/h5FlHPJ6ytt0YRJPnVtInKGvbuaybaJ29caI/oROXEH09p3Ty+RSo48eTHl6AF9XbBOJRNZ0ryQAm6j3zBcOfq8vpz6ew7j4HtkRERERsauBDUAcvnB50O0qTsTEBIf0ZPWoIIwZ0wcf04H5Trv/7LnRqZute15GAYWN5I7hxqe3LqZk/Qb83FbC29PeXR5OneWPyIAKq32lBR5p36ELrBtY/G/gQ1L1Lrn/+tG7gYLOkUzN/gjo1t848nksDH9vLMdG6uz/Ni9VGE627+1D/Do6k3KhuZsTkUQQ3ucf7eRivLSJiU9nO3LLrR2AXL345uOr2gdMBXKbTzezMme9fJzp3lzuW8MVyF/r278PIOZaB2FPPRrNh7UxuAhxdzZZ9k3h2wEomV4DUs3v4/kgKTZzvwzEVKZqoteupNjBv279cu6qIchZXNoeyocp4eg5ZSXs7ID2FoxFL2PIjQHu8H3fGoQL4hMzHJzvzKytTzDJ+l1/VrOXuDJkXCZxgy8SBxNzBUSiw9TAyUf3xwXhUO0Hs7vWWzxKAMQiPzkH41bXnyok9/N/25VyxOStBW+q1D6TO9Wii99vKwpQyz9yP8S1T2fjhJk486LaUlprdGPxKAO3rVyE9+TgR/1rPxgPnH0hT2oaMoUXKdpZvPVj0xiIPmyZmAttdJn5nPNeK3NjMiNAmxE5eze770DRbAl6ZivfPs1m2q4ANmjzNlCH+GBNj2Bd3CafGPvR/vTU+K95hdWxpT91TtOZPdaDdhWNs/znlnu+rjq8/gTXt2PxfG/fu+Xn2YkofCJu3iXjrIq+QsYSwiTlhx+5pO/OqRetOHXCx28a+U1jej52cOX3iPDcAHGoQ0K0LAZsXsXDb5VzlHGkX9DSB9VJwPnOI1XG5VjUxExjkho/ju8z5IneZJgR0a0PysUgOXSmqXU0I6OZF7NYYTpfksGyc3wfmQbXljq4tIlKele3gVuZ6ImavJ6Kg9ckzWTdlpu11CTPZMLeggtGcDAthcVj+pflkDSxfiJu7B7LQ5p3Vera/tZ7ttsp8G0Lot4VUmryEiEVLCj7ufPuJmL0+1997OPppCIs/LXjbgustav3dUZfEcsxlNIGD+uBTyx671GhOZwW37EbzzMR+uCft4fujUM/3BUY+7s4H70whOV8VVTqPp3+gCbuEWwpulVd+ZvoEXuanYgW3hrJsixfRPSay/D40zZZhiz/G78cBjPiwgA0CJxA2wUzVMwfZeeAyLt4tGD1/Hm3fncjrW+9/gMsv0J+g88cV3BLJxeBUk9pVM0k+c5m07KVGjEYHjDa2NzqbcDHezLd9FjucatfEcC2R5OyVDrjUq4Hd9QskXbs96FRQfUajA0b72zbPFtCpDU7/+5ypy6PJAOAr6j8/gTee9ueT2J3WZUXv33L8cO38Ba5l5F9rKWtMu8zpSzcLKGs5dwVLYffyRfmChIXXe6fty3ts+fZXwQFjlXzF7I02X9tiifuKt0NvX2x0NuFiuE5SUgq3NbMgaUcJfy8sOxBjaDeEub16E7BtZU7763XEr14ih+Jq4N22OcQdyltHRibOHYYQcuBdwk6V6Iiy2f4sFMHW+bWp8Pdh4euL+X7J35YrUSwLjbptM6OzCRdy6irstSv88y4ij5pSC279/FuSghdSIL03yjefvn2of3Yj//ihDWOeylnuENge76vfsXjpFFKB6IhhZM54AfMTsOWHXBVUm0TPgKqcTEjB4343Xu45RzczTWqlc3zfAS5lLzVgb7S3ToSRl3MTfxpVTc23fZZauLf0wv5cJPEXspY1wqt1PezPx3Mw4fagU0H1VTIasC/k4XPws2ZcYjfxzPg1ZOUytJ3+AfND+uG4dTE5+Q2F799y/JB8OIoTtyVFWMpWvX6G6LjjBZS1nDsRydKBcX/zJjnKAZ8njFDBAUP6McIWrmR3jV5MGeJHbeyoHzqV3+9fZ8nwMXgRMr4vAa52pP0Kxl8vs3vte4TFZkKTEGYPqMrx63Vp7mrH8a0ziKg3iUGVj5Ls7k2dCmA0QtKudby9Md7yAF1gfW6ETOxPm9pgME1lnl8MK4qZiXL603cZY/1/rwGTGFQpltMefnhWyIRKDqTFbWLh+1HWH4dqEPDKK4Q0cSDtFhgr3eRQ+Pss22UJVBm8e/HGQDPOFW5CBQcyL0axasEmDmVYygaOGUWQux1pt8AuLYaYVJtNAiDwz7Npd2ElUz8+Zq3XD2cyyaxgB5f2smLeVzaOz9K+4N85kJkJdnY3ORK+hGXfWy+ClbwYF9rB0p3OaMe1qNW89Ynl3Gbv75Q/83o2xlgJXgltwpGts4ltNpXg3zlgYBDzWhxj8+TVXHtpKkOrRzLhb1lBQRMhU0fhdfBd5oTnC9w1CWH2yBrs+vMHRDQJYfYAI/EX3fAxAZUc4EIUK97JOk93JuPQWS71ccsTeKvv74XLiWje2lOX2c8/QWsOsS93obRYvo7zIGhob2JmfF7ijKU6z09grq+RTOxuf29nHa9128A/z8b74FQWpg+67fzayjR0aTeIccFeGG/dhEoOZJ6JZNnirzieYX2fFvI5Kfx9mEs7W23pwLi/tSF56VxWx1k/8/91wOdxIxgcyDwaybe/PkE3dzswOMCFSN4Ptb4XC/u8PwIcW/XjpZ4t8K1fheunD/LN6k1szr4/aUHQy53wyh8hTjtuzbzvRL8/tSD3qDnJ/9vOZ1sPUvy8zlq0H9APP+Px7Gx+9+5D6fO72yOp1/+njHS5f8p25paUSxpE/uETs3wAMZmJ0LFNnuU3dy9h6Z7EnPHuuG65yc2zlR/e/QNxifuAL359CY8yMnGD3K0RrNzRguTd9vi1rgL2BuzTjrNq4kSW15pM2BstMGHAfcvHtP/PakJmfw2OvZi+rB9d60B6ugF7zvPN32cxc+t5CJzGV69WIe5qffxqwsF/R/KZ2z+ZYDzOWc8muFcEeyMkfrueP87eZLkBK7C+VkxfO4j2dcDe7WO2P3mQmQND+a4YR7Vn5nD8rf/fdc4/mWCM54RnK7wqZoC9gfRDX/PamBVYbtNaMWzxGAY3tyc9Hezt0zn48WJG/NMSqHLsPpl//qkVJjJItzfAuQMsGBHK5hRL2dHLXqPf7yA9HUiJI/re9xYSKUdMeFVYzaSJ8WQYahI8fizdujZm9yebmDP5OuP+5kXs5JwHep8BfWlzK5I5f9lJUga4dBnOX/ohGvTMAAAgAElEQVT3JX7KOsuwCk5uOO1axARrlzKvAeD0uxrsmj+DhRfBaB7EjBc6ELAxnu1F1Bc2bzZX/zwb74OzWbjNduv37oqm3aDezJ7qzb4d+9j1U/xtGS9Oj3tzY/lsJsRmgtGPEVN7MahLLAu3peAU1J8Q01FWTAkjJg0M3iFMH9qfoB/fY/OV5gzq78eNnYt4++sLZFCDwD+PZfCAo0z86BD1+wwhyDmOZRPDOJQBxsf7M2UIcK6oc+5IzyAzRL3LhPDLYGhAyPBnaP44xP+Yb1Pf7gS5n+Vff1nNngwwtuvPn5o8Qe3vIy3rnSHWem4N3iFMH9adnlvjCc/dDW/XaiYmhTB7AKyeZs2Q2jWbpAGTGMQGpn5s7Zb4bSzJE7zoaNhJRAZQrzXNXROJ3llYRlrWSW6My65FTFh82XqOe9PtqU0c2ll00fxc/DxwTr1Mzl2uiYAmNTj+n0gyfvAiPqQvbZ6Cfd/nLXfi4w3smTGEQQNimflxfPEzx7K54WPaxlsTd5KMHY1CxjLu+d7ETAsrPFhm6/zmV70LQ/vU5fjK2az48SYYvBg0ZRBD/xDP1E8s57/gz0nh78M7bgsmGqQuYtLEC2S4Ps2Uqf60jXqfSRNPkWH0Z9ysDgT4fkX8/mJ83h9iLV5dyOKQeqQnHOenI5ep6unPpFX+dP3Hu4wNOwg0on2QPy3TznA292DTV9L5DjiBF4F9/HE9foaL6ZZVrt2nMfjZ7YwZsYzihKEcu49g8sstcLxaPTub38WtES288wa3XN3qwb44BbfkvinVAeU1zpLoPfCQyixg3Izr33Hlcs4tSpWOQXhXiCc2d9ZWm1EE1oxnS9h6Ho3f0x4ltWhScRPP9BhAp+DFbL7aiF79usHOUEJ67CaeM2zsMcAS2AL6TO9H+7QoxgYPoFOPvozYnEH7V8fQJ6u6avWpGvUO/j0GMOJ9yyJH7xrsnziATj0G8Mz7p6nauRMvWTcvuL6vmTlwABuPQ/y/B9CpgMDWZ5sPkOzdiy82zGP6oD60cKt12zaOrby4/o/RdOoxgE4vbCKuUTfGv9oCAPc/D2VwveMseMHSvqffPU7dAUMZ3wigD3NebcH1rYt5uscAOnUJZWNaC0ZPtxxt26kj6VczjrnBlrJ/+Nielo1K63UReRikEL/PGgjIuMCh0yk41XYrYFsfWjeBI/+Nw1DLRP16Jow/H+K4nRs+2YNVnyV2W75gSGI8ERct/5sWlcA5nKnfpLj1FS4jdhNzZrxH2MFMGnXuyxuzZjDv9RDa5v6B59RePsnKNEmLZnP0dRo1fwJwpJO3idM/7iXZ2bL/2ldiiL1gwrM14PsEXhxj30E7atczUb+eA4d+TMCusTdeONLaswan93yenT2T9uMX7CvG8FeQQvK1TJw9zfjUdsSQcYqw994jPH9gCyDpOjeMdWn+/xrjYoS0Xet4e2VkTuAn17nNiI3neJoRp5L+1nlqL/GX3Hiim2VAfEu2VCxfFzleFeR53dOiOXYBXOoVczB7J29eCZ3KvNCpzAudwfRuVTny9dac4MkTHXmi6jH2fZcJHGL3oZs0esKM4baKjvHJiigy/PrwgndJ8gpSiNm605rRl8nxsCiOO3ng51mCqvJxaudN/cQfCPvR2p0wI55Pth/D2MQHr6yNCvqcFPo+LIkUTv18wfKZvxjPqWspHN9/yvJ32lmS0xxwcobS+HyWW80nMD2kFvGrQ3l68ERenz2LEYP/yIiNqbR8+UUG55oz4uzucQwZkevfpGW5huBJJW59zrpnXovkbKMAhj1bnEb0YvLLTTgblzeTPfr9qXn3t/o8t+zP85/1X5fOsYsUw11lbjW+aeCYQ97fH7KCG8rWefQosPWIa7aIQYGuxK5+nZNZy+yG0SPQnZMRAziZCboqPGxSifvOmkWVEkn0yaEEmQqK0PSjvTf8tH4/NPXHD+D/4ogPMtM2ECxzt55n/z/ydc9LiGOJ9QfgS+uPc/YVMw0DgYgi6ivG4IEpW0MJ2deJfn/sRNCzz7Hsj/1ISTjIR/NmsT7rR+fjByyZZQAX1rA6KoBFj1tyu/q1rsWJfRs52dAfv4bAhQP8dOFFWnQHLvjSkuOs2gNNWlu237PvNH26t6Ar8fg1rc6JnVOtWVxw6d/r2RkyjQ5FN1tEblMDJ6MD9Z8Zyp9+zbX41+vs+5US/JRbRH3FlZbIvvB17AsHjI0JHj2IF/54mdj5lnSva+cS8mTxnL52HSo5YKQWTlWgvnkwf/p97gpvcjwdcHbEWKUuwaOH5vnRKPNKDFjLZvySe00KN24Vr8m7P9qAyyvdGfSaPwZukhS7kw8/jiQpf7rRma0sC6/Ky90GMT3EjoxLCewOX034j7bGXLpORgm6AeZI5MsfLjC7WRucNscS0KQq8TsjS5ABdYfSLrBvVxzXgdp+HWh0cEN2t1AAnycaY8xMo/XwIfgAVAZDPR86GqIsGWa5ndrEkp2Nmd6/L4dmnL3DhlziXO6B6jlL8jUwlEKKQp2qRrh1M89A6xlJ10lzqkFtoNA7+0Lfh/dSKX0+y6GuA1pgSoji9X/mvVc6+Pev2ezpj0troARZiRzazcEL/njVK0YbZvWh7dUoxvzYiGV1CtqqFoMHtKDqj5uy7+FE7od71i1RY3AJKMj5yGg2nyH9W3I1YkqumU1N1At5jiYXIli6t1g/GctDrTpVjQa8+o2kZZ7ll/kuHShkbKwS1VdcF7az/u3trAeo2Y1J7wxi9MQx7B28GICUxON5xqCIvpQKnvaYaISLI7h3GMr8gNwVZhCfDtSsgr1jPQbPyhfsu3SQdGvZ9F9y/+p5kBSNhitSQpe5lpZCzNq5rI61sfqOszmKqK9INWndxQfirDPvAaQdI3zXMQJ61iDredCpjhsGjmUHaeq7VIVbN0njPNdS4fT3c3n7axs5z74ppF2LZdW0MG5/bnSkeSo0qOwI2VcvE9UcgQu3bXy7tEOE/+0Q4YCxgZnBw3rxcs+jzAnP/z2eSdLOdczZCRgcad5rKEMH9CXpx9W3TShTGq7tiuV0hya0866KV9UEtu+6D7ngGeeJ3rqNeMBwzY25Ib0I/noR4RcBzAR425H0UwxHss/rWajqzxPdHInYfHs/8+QvVrPZcywvvOxQeNDoNs7U8Qay3osGN1yc4JzNwK0jlW0NdlmAc9fToL4DTpAd4DLUrorx2uWi23ipsPfhvXS3n8/yq0mtKiQe2W9jUp9NLBizKc8Se0d//Frn/H2rgHFDAXD0xb0mpKeA3yuzGdUqp3th8oHPeP19a3fjJycz/MlUIsYs5mCHhQU39MmhBDW5zM4x6+9gHC+Ru3fXMf/GN29Pvs2iTJ5Hh63XWoGtR4TLJPr39+Pm9ims27En14rBPPWEIw7uQYybF8nkeZEM8XUEtyAmz1tr+ZVTHiFXuJ6Wyp6/W7rh5fwbzcyS/Mp41/X50+fVMfQz51p04Wvmbj1NerXqZPX2cDQ1IleWP21rVoG0dBI5TnIKnNg8Lt/+rbMzXkgl/epBFuRbZ+kiaSlb1dgiT3tccu9IRIrgTJ3sLl4x7Iuzw6drB2pbb0uNj4cwPXQInYo1U1x+xavPpa6XjS5oAGnUadWBF57rQv2sQZ2NjQlu1xiSEsieWqJBm5xuaq4dCPGtyvFDPwApbI9NpH7b3vhYyxtMXRg3ZwIvNAP2/0B8RW+6datp3b8DPoMmMG+kP0Zr2dqtn8kuazR3pXWxxrv0YeisSQw1O1iO4txZrmaCnY2nhdpBo3h3wtOW85ORwvFLaVDBrmS/mjvVwj3f4NdOdfIO3M6VnfyQYCKgvzeVY/dic6Lyeyjj+8/ZnViTgBBLt0NDO28aZcbz9eptbN6a9e8rwmMvU9/bHyebtVwmYtVOTrs3tgy0n8XgSO16NQqZIdIRn64dcAHAjuZ929DoUhy7jwDHLpBMXby71cSAHbXbPkNrU77iNs5vlmu7YjlteoKQxx2sbfHihU6Nufbj3qIHvy/0fViAQtpSfKX4eTd4EfxKfwIbWJvn24uhz/tZz3UNAgYMIrhEXUnvnVtXizctgXvnkcyflfNv+qBWudbaY2o7hvF/GsP4qbNZu7YbXuciWbUakhOOczA25198Qlb/31ZMerUV7NzI3EKjmVlZW5HK2pL7rlQ+rY1vGqhkdLYZ4LDVTTH3dgqAlH8KbD3CXEbT45VAHP77ASvzBLYA5rJh4tw8S2o//xVDXHcS+t5c5FFQnYbda8HW88B6vovtxeg+Y/DbvZjoFHB+dhofvVKFiGETWXLHdRdR3xnLVnXdeuHIJhu/HF7B3exPUCs4eWwxey5gydzqXh/ObGcP0BagUSumd6/F61vPQ/MRDHuyOvH/jgQOsn7fedZ2GEGf9bPYeAEcW41h8awWJP5jOFPC9vPToOfo8yd/dv49khQa0WfuZEZX3c+AUctYv+88QR360Wf1VDZeAOd+vWhbBzhW4pMt8giJ5OsoP0YMm4FP3CYmLI0i5uNV7B41mCnzOpCWAUaDZXbB7YXMEliYourb8U00bYcO4t2Wxwh7fWW+YEsKm//5Oc5Du/NGaAcybmViqGRHWmI0q1dG5XSnO3WUjOem8u5ALDMK/vA5S7ZZrlbXNq/jE9chDJozA26BwZhJ0q4N/OtngEOsXr6X0a+M5d1ON8mo4IAhLZ6wxZGkAWmb1xFW7xWGhs4g4xaQGkPMKYoxDlIM4dt8GPf8VN4Nts6clxjFqk23Z18nff0Ne737MuWtNpbZ6irc5NCm99lNcfaTS9w2dh0bRVDobNrueo+ZGxOJ/3ovxyd0Yd7f/Ng9/13CzgBksmP/Mbr1qcuhHx7EE/NlwsNjaD2yIy94x3C8pRuZcRvyzowInI6MJ7mtNz0bfMUntqq5uJPV33jxlyDnnGXt+zOl3WWWFDjQegK7D3rxxrwOgB3GXxPZ/v4mTgNkRPL1Lh8Gdx/Lu90h7dg29pxoTnbOsI3zm8eVbaz4pBajX5zKu7/eBIN11s7829lU+PvwNre1pRi7KECpfd5rNca7WXNIMhFxKhHv3/vh07gGhz6NZk8VH9r+3gunio0Jjy3pPJel63o6uNYzA5uK3Db+3wMY8o+C1hpwatiIFiYg/TIHN65gzOqvLTNOb13BAhslWvxpKIHGg4TO3l74jp8cynPNL7NzlLK25P57rJprs99Ko6JKRstFurBsrayAh2bTe7gouPUI6biWyU8ls3L2WJKwBqt8b083ubJ/CUs/XX/bcgW3yrlXFxIZeJmZwbP4hhGs3GEmOfSPvG4d36rrnH8yvVYU/sOWAbUImjWbSQHVST+0iU6j1oBjNyYtHERQI+vshvapObMLBk7jq8k12NxxXHagK299QP59FlYf4Nh9GusmtMD5l+Ms7zaRVfmPp/mLzP/L07StZyA9zTIbY/qZAywZF8rGC9b9m47znWMT2jqCvdHApX2b+Mvra7JnS+w3fySjW1UnPT3jttkcHQMmsPgNM172GaRXNGCfcpxVf5nI8kOWssMWj2FwyyqWfaccZE9KC1omruHpKUXftIpIAYw1qO+UQVJSSumMyXSX9RmcalK7qh1plxJJzvXE7zVgEqNr7mXM3yJxql0Tw7W863MqcKR2LQPXzly2GTAwOptwyrxw20yM2W03pnH6kq1xsApjV3ib8u+jNM93IQzthjC3w2UWzvrcEth5SNTvM4FxtSOZsDSq8A1L/HoWxx285jYU+j68l+7j+68scHx1IV91T2XJC1NZnzty1GgMa1e24OSU4Uz5Ty/mh7+IS0TfAoJbt9+/Fa0bcz4bSntnW+tS2ZNdVy2GvbeE525t5A/jFdySu3Mr7dIdlyn14FaWu+mSqMBI+aHAlojcsZqt8KuTQdxPB0vnxucu63N0M9OkloHrJyOJzzUmTU5wbSPuLb2wP5d3fU4FLWjR1MDZfQew9TXs3MSfumkFjHVRsxV+zleIjjt++zoReWjlBLdK1C/7EWOidXcfWpv9cdn/LnO+uFx0kXKk05gZNP9hNkvuxzhiUs71Ys5nL9I2JYoFb65hc8J5HFu9yPQ3nsbv6m6GjFjGCe5FcMuGPD94Wj05mS/m1OM/o0YX0XVRpGglCW7ds07EBWVpFYcyu8ovvVYiUqQLB4guzsDG96m+lIQoohMK2+I8J34qYBBWgJSDHMzfNyWXS3GRNoNeQOmfCxEpF24kJhCfVsh1RXJ4etO6cV0yolayYOvDFdgCR879uInjexTYkuLYxJQRBibN68WkVUuYZF16KS6Sma8tyzPQvFfIBiJDcpc9w/pc2fGlrxbDBrTC/sBGjbUlD8w9y9zKcq8HlW/2WG2MnmaCnvKmdpVMrh3bx9fbDmVPWezUzJ927g45BW5d4Ic9MZzOSrlt4ENQi5q5arzJuYP72HfqXqT8Fq3+77vglbKX7T+n4BU8ipCa+/j78qg8U/SWFQpCisjDzO+V2Yxy3s+Q0LsYGERERESk1DXCq3V1LhaQNS5S3pWpzK0sxQ14lDQI9vNvSRD/heWfVeuZo1k2J4xDGVDH15/A5mnEn71uWVm5NYFBXdizYhGfxGZCEzOBnZw5feI8NwAcahDQrQsBmxexcNsd/jrk2YspfSBs3qaiZxgpQPOnOtDuwjG2/1w2eylrBkwReVREvz+VIQ+6ESIiIiK3OU58IVnjIo+iMjO3af4g2N0EUbpOX0LXrD/WjrMsy78NMA3gm7+S01HY0g5DuyHM7dWbgG35Z7/JYhl00YnreQcwrOCAsQRTTlsGG80k+UzeYFp8+HvMyb+xsQb1ne24dv4C1+7zyIkKbImIiIiIiIhIWVNmglv5PTtwIaPr7mPq/G35uuQ1JugVf+Yvm39P9vvzb0nwXShr+7yJ0dYGrmZGjOmOZ6VMMrHD7tYxwhesZvfjg5jXszHGSvBKaBOObJ3Nsl0dGPe3NiQvncvqOEtxrwGTGMQGpn58DKhB4JhRBLnbkXYL7NJiiMk1hW3ewUZrEPDKK4Q0cSDtFhiNmZzevoqFX5y657ODFCeopS6JIiIiIiIiIvIg3PMxt0oq8M+zaZvwHjM3JhaylR3N+4xiaLuqXPs5hn7LPizVNkjhFNASERERERERkdJUJsfcuhtpqUVNIZXJoY2LmPpfH7p19oe3l+JiyOR09FZWfBxNMtbsp0ZniYg+C9jh3Ngbbw8j8WvnsmJ/JnQZzuKgunQdO/I+HNHDQ4EtERERERERESkLymxwK+1WJk61G0MxhmZPOxVD+EcxhANGz6f508u9GXo1jrc3WwdlN9bAvbHlUNPOR7Fu415iEnNNuZt2gVk9BjBty8elfyAPGQW1RERERERERKQsKbPBrb1HzhLSsTWtDfHsyz2oVPUuvDHDh1PvvssnmT4EPgGHtsZw2ro67chX7P5fG3pWqwVYg1sXYljy3s6Cd5Zxnuit2yyDyT81hLkhVdk9exHhFwtvo8HJi+CR/WlzZRMT3o+GJiHMHgCrp4VZQ3K3j7nVeshUgm+tY+rH5wmeOAnvn+cy54usmRFNhEwdhc/xlUz9+FiuMbf22djWjoBRU+l2aTVTPzlW/BMrIiIiIiIiIvIQqfCgG1CQjG3b2JPRnBf+/DTNnSwxOIPJj0Ej/al9LIovTwFpNXmiW29CupuyB383ej5NwO/g3KmEku33+8/ZnViTgBAzBgCDF8Gv9CewAUBNgibM4I3gmhiAjGsJJKcBFXLFCJ1q4Z49En0Cydcc8TI3xwgYPXvRqYmDdV0K22MTqd36GXys2xvNXWntaqtVt29r8O5NN4/rxEQqsCUiIiIiIiIij64ym7kFx/hk3jrSXnmGEbP8rcsyuXZkJ0s+iLTMoHhlGys+qcGI4FHM65pJxi92GAw3SdqzgRW7MgupuzCXCQ+PofXIjrzgHc3qK43xbtYckkxEnErk66+i8Rk4lrltb0IFB0iNJ3xJlKVo3DZ2HRtFUOhs2u56j5kbj/Hltni8gvszzxe4FM3m2BTaWfd0bfM6wuq9wtDQGWTcAlJjiDkFXjZadW3zOj5xHcKgOTPgFhgq3eRQ+PuEnSrhYYqIiIiIiIiIPATK7GyJeTngUs/IjTOXSbO53g6n2jVxsrtJcoHblC6jswmnzAskXStpEC13ZTWob0zj9KWbRW9rcKR2LQPX7tNxioiIiIiIiIjcLyWZLbGcBLdERERERERERORhV5LgVpkdc0tERERERERERKQoCm6JiIiIiIiIiEi5peCWiIiIiIiIiIiUWwpuiYiIiIiIiIhIuaXgloiIiIiIiIiIlFsKbomIiIiIiIiISLml4JaIiIiIiIiIiJRbCm6JiIiIiIiIiEi5peCWiIiIiIiIiIiUWwpuiYiIiIiIiIhIuaXgloiIiIiIiIiIlFt2D7oBBbGzd3zQTRARERERERERkUJkpqc86CaU3eBWWTg5IiIiIiIiIiJStqlbooiIiIiIiIiIlFsKbomIiIiIiIiISLml4JaIiIiIiIiIiJRbCm6JiIiIiIiIiEi5peCWiIiIiIiIiIiUWwpuiYiIiIiIiIhIuaXgloiIiIiIiIiIlFsKbomIiIiIiIiISLml4JaIiIiIiIiIiJRbCm6JiIiIiIiIiEi5peCWiIiIiIiIiIiUW3YPugEF86Lhc3N41tdEFTsgLZHozQuI2LfHstquK96DJtDD0xG7CpB59QTb175OdEKiZb3LaAIH9sGvrj0AV45+w4aVM0nOvJM29OPJscNpb62D69GsnD2WpNI6xLvWFr8/zeepK6tYvGa5dZkJl87z6dvJneo2z1sf/IYMp1OjAs4bXtQOnEaf9u5UTytrxysiIiIiIiIikleZzdxy6DiNvk/AvpVDCJ04hKVfJePx3GTa17esr/3cBJ6pc4IvFoUQOmUs636sRLthc2hiB+CHeWA/vDO/Y+kMf0IXrudMra4892zQnTWiTSBP1TjBxhn+hE70J7SMBXqqdB5Pp2rRfPbJ8pyFj09nQKArR8PGEjpxCCv3g0/vYXhbw5geg0YT6BrHhrdCCJ0yky/OuhLYfzwuAHTFPG4lQ/4f/F/EQVIfwDGJiIiIiIiIiNyJMpu5Va9RXTi5mf8cjQfgyt6dHO0ymnqewOn2eDRwJPnnzcSdSwQSObM5mqSADjRsBHFHPKlWFZK+n8mVNCBtCVFHghhSpwWw2bIDt+n07d8ejxr/v737j++53v8/fkt7z942Yz9shtg4JrYapjMyQiFMLZ3Jj5qOJUSTOoo4UR9CHYk4yOFEhdpJKyKSZCv2PYZpW2zH/Da/ZuyH/XrT94/3e8z23i8/N+7Xy2UX3q/X8+fr/dp77/fj/fxRxsguoy02pjRzGbeSy6s8MSwIn7La5jKNp3vUJu6TGRy76rgD9pn7iNsdC8DJb2M51rELDb0gIdmf3OSfWb3pYw5lmq/bvpggsp/3oBGQBpzbsZj3o5Zh6voZPci7RR0WEREREREREbk2VXbkVtqpLGyatMW/vgcANr4daFYbTCaAnzl5Nh+Xlt1pYgTwoO6jvrgDpkvm84dO5OPearJ5ap5xCP7NHUg7Em8pfQi9n++Oy6GVzJ54ZWRX/6cHmE93/YwJM6OZ8Lgn1PZn6Mxo8+NJc3C/6T33J+DZfjTLtIw6m7qM/a5F2gZABwJCH8F+5yds/D316uzJqaTZt8DP1xvwoG4PfxrmH+fQAYBYjkW9zb7DV/LYeTXAPjONEwD8wL6oZVRq5qaIiIiIiIiIyG1UZUdunfv+EzY3GU2PsRH0IJ/sbFvsTUlstSwdtf+b1cSFDWDQlGggn+wcW+zStxG3HyCVfZ/Po+4Loxk5LRqAtJ2LWf6tZdQWy1j3zrIrlZ2wjOxy9TQ//ulZpv+EOcjVMe0WrzvVnSYNskj4xDLqjMVs3d0Df19/6rKKc4B971fpZoxl+VergAH0mDQa118CWfETcHQcn3+zkNCBS5lgA2QfZN3iieyzFrFyGU+/Di4c2vxBlZpuKSIiIiIiIiJSUVU2uIVpNTHzVxMD4DKN0NcfIfeX1SQUBmnS5rHuvXmsA2i9kPCB3uz7/gPSAAji4VGv0i5jLUtn/MD52o/Q7dlh/PWZPBZ8sYrCRdef7uKJi22ROg/fyg6WzgYH/J+Pxr/owczj1ARgPH0ecSEhIvzq6YiF2i/lxT6uxH01kV+T83F55FX6D3sfPnyWuLQi6epPpv+I7tSJn8eCn7bdxN6IiIiIiIiIiNw8VTe4dZk/Pv070DAzluXr1lo5P4BuvX2pefQHNmy3TLer14H762Wx95sZnEwH0mNZt60tEzp2wJ1VnGw2nv49XDn0xUSW7/mZXBO4P/M9Q11vZb9KZyKL2H89zsZk6+dtsMUnJAKfkCvHDln+bdbKE7sTG9m882cAjq39ioTWo/F5EOJ+Mqexb7eQwU95k/XLByxYt/rmdURERERERERE5CarsmtuXdZ+FD0884n9aobVkUouTwwiwD6VzSvevrK73+lUzuQ70Kz9aPOaW7UH8HBrT8g8y/mimfNTyTV5YNd4PB1bOFxT8+w6fcbYmdGMfX50sTMD6PZmNBOmRxDQoFieRyOYMDOa8IFDrJT4A4eOO9Cso6XtxiBaPL2UfkGFaWew4g3L7o1vBDL9jXnEZl7JnXYqC+r783Azb8Cbuu170Kx2PufSADxo+MS3vPh0A45+PZEVCmyJiIhIVXCfH0G9HivyE0Arxxv8HWzdAEZMGEVwi/KTOrYMJOghj2usyAb31o8ROnwoo0cNIqRjU4zXWNLVPGjXK5BWdW9IYXePut506+VHI6snPWhX6rnr0+ihx2h3300ouBTewaOYOCwAx8pmrMTvxfVw6RzK5OmTmDllEO1ublUicpeq2iO3bAbQ4zFvLsYvK7lwOoDLZHoGOHPsl3HEFp1yxzy+XexC/0H9GDnNvBB79vFYvvzsbXIB9i9n3WzBP54AACAASURBVI7xPDl4KRNqQPbxbfySnEUL51vQp3LFEvPZKuo8e3Xbv/tsWTn5zM6tnc6X9q/SZ+hSHrEB8rPYv3Ee6/YAPILPg87Y1QC/kPfxuzzyq3CkmHn9Lv/ahcc9GTozGjjIujeeJe5GdlOqIQ/qPjiEZnUOkhC1yvy7BGAMotmjQfg3sOXcwW38v82LOVc0EG3jT8N2A/B70AOb8/HErlvGsUwrv89S9QUM4NU/uxU5kE3SN2tYe/jUjavD6znmvBvA2X+P5u2NZSf17BVGP4cDfBCx+RoqcsO/3wAGdPHCxTabQ79G8dHyDZy9pkYX1Y0BL3uRtXYJaw9cd2Eid48WAfTo5szRg6e4AGDnRKfu3Tmxbj6zN6VfW5nN+zKxH0TMXENSJbPWbxtIj3o2rP1vZf9eOdBp+CuEeOaQuDOOg7jRqudQpj60iXc/3EJa+QWUoQWderYnLSWaxHPXVVC10mn4JHx+n8rCrddYgLsf3Xo6YbM+jqMlTragU09vEqyeuz6tOnbBJ34TO47c4IKrpUBC+zXmZMQS1v6efsOvtYgIVPXglmkVG6euotTPN2lvs2Li29bPHX6bL2eUljGWQxEhzI0ofrSYwoXly5Ab9Syzo6ydWcXmd1dh7SNX7o8hTP+xjELT5rFxzrzS+12sno1TVxV5vI39X4Qw94vS05Zebnnn5a7lMpoeof3wc7PFJjuWo4XBLZvRPPHGADxPbuOX/dCw7UBGPujJx/+YaHkDP4BH/jaatiSxc2cyNHqY/q/7srn4GnBSPfgH0C+oLgcPnCMfwNaeoCe70W/1Pxj6z13XVmaXCUS8APOenc7PlczaPDCQfm6Gawhu+TJk7msM+1MB8b/GE48bbfuF8Z9OXoQPW0h8+QWUwZse/QJI26fglkil5ewncn7E5UCUS89RvNm1F36bVlz5gs3oRCNnO3LOppKWU7IIo7MHjqbTnMwwQQ07jPZFTp6LYeH0GKt5XIy5pB1Lx0qRlxkc6+FeGzJOnSajoJREDbvSrWUmm6fOIfKM+dDayABGv9uVPj5bWJ5QvDyT9XrL6WfpjXTA3a02ZFquQZnscGnohE2pac3njTnpHD2bW+p56/nLy2uDo3s9DBlX+lfa82A02mG0LVlC2c9HkbaV0nvr5ZXyfNwgFb3XriVfUuR8ppWW15DJyZNZWL1trf1eVOo+Ksr8vDpSvD4b4BQpv6QqsCUiN03VDm6JSJXg178fjY6v5p+72xPe8cpxux6P4HP+Z+YumEg2ELtxGKYpAwloDet2A+178Ge7eL6cMsKyLpwHWS9H8HC3fsRFaFpstZRzgGUj3uEHy0Pfl+cxt9fT9PvnLi4/o/Xa4N/EnsxD0SSdLlmEc4tAGuQkEX/4FNgaqO0Alz+3HPiUMQM/tZrHq3Y2B3bsKnN0lUPjAFq4QdreGA5mlZKoXV+CHihg7agXmZFYmDGMhV8FMqTXQsatL15evvV6y+ln6Y30xff+unDKcg1ExKq02P2c7dUYdwCc6DR8OCEt7SjIMUFNOzL+u5x3VyZRQBfGfuhDzm4nmreEsztXMC01kJl9mmKsCcOntyB5/VQWbu3C2A/bk7ZgBsv3AQZvQl7tTydXG3IugfFSOlGfzSciofiHeUvdLezIyQNjzVwSIxexcGsFR5QVxDBvXGHwwNzWtBg7/FoboYYdhvwUImYvJepMef28mkvnobzeqza7Vy5i5Z5cXDqHMjbYG2NeLtS0I2ffGmYvirE6Wszg8xRvhvnjWGAOPB3dcxiXh+zY+srHbAQMPn15/dkAnGvkQg07TGdiWPbBGhILwHvweEJr7SfN04f6NcBohJNbV/DeanMby8pLixCmDq7NgcwGtHK14cD6KcyLD2BEeF9aGU3kmMBYM5NtS+awMqExIW8Mor07GDwmMdM/jiUz15BUzvNhrW/lqf/Ma8xoa8SETZH7wJuwaYNw/GkKszdZ7omGfZk8rilxRYKXFeJaWh/LqYPS8pUMOHkPHs/oetsJ/3CL5TobSTrTGD8PoKYdnI5hyT8sz8NViv5e2NCq3yiGdK6HTU4u2NhhOrKJ9+ZuoSBoFFP/fIp5b10JQHcaOYUg0xomLY4Fy/PuXiOXHGwwXjrO2lkfs9GpLxOH+uOODY2mT+LRgz/wxtIUgl8dQ7ujS5n0eQrQlIFThuL9+yLe/eKI9SCcXObQZgDP9/GlbSN7Mo/G88PyoqPofQl6oRvexedC5xxg9b/WcJBuDHjZl6Kr5qT9bzNfrY+ntLdNJbnxyOAB+BsLy7SMpv+TfYmUmf/bzOL11/e1oUhFKbglIuWKWzyYOFMqdG1/1fHcqHks2JZ6Zb07MjGZirywbB/K+9tLlncxL7PkQamW4n88QFq/RpY3SW0YNjecIQ/Yk59TALbhZP36KYPeWkMWI1j6ky+ZO+zxf9CW1F9XEXIskM39vLA1woR1n/P06sGM+NcIlv4UQNr0vzJuI+DQl8kLB9C9PuTnG7DlFD989A5vry8eFLLU3cqW/Hywtc0n/vO5jPh3BUeUZS1hRM8llgfmtqZF2eLfzh5sDdjmHGDZG2+wOLG8fl7N968z+UeIE7GLpjPxmwPmx4O9sM0vAFsD+Ykb+Fv4kuscLSZyZzK0aoBzgck8UqW5P+2cT7F26lI2ngFcH2fipF70WZ9E5DkADxoVLGf8G4VBoBTeOBnC1MGwvMiH8aL8BvenvWk7097cxMkCy0ixQf1JmrjiqtExjkGDCPHYz5KJEcTlgMEnhMlhgwjaM5+1xacHHotm8z4/Qt4cj1fsDqL+XywJycVH23jgXcPSVkM9gl8dQ8/uTYlamVKBfpq5BAxibK/a7CgMxtV9jLDgBiR9MpXle3LB4E3oxFDCghJ4b22xVyZDAMND/chYN4u3N6WDoR5B4aPw4rglQStCB/lzYcsc3ttwmgKc6PHKGIYM3s8bn5i/EXD8kxNb35/C7DNgDAhlysAudFqdxOYK5MWxMY5b5/CaZbqpdy8/XE5u4u355mmbLsFjmBz0GN8lfE/EzKmcf2UqPvFTmb2pAs9Hdnl9s6Yxfh6bePeNLaRhg1fIGMY+8xRxb0WwYU86r/sGYti0hQKgUYA3Lsfi2FyZwBbg/VDpfSyrjrKuTUZ5lTo2xWXrHF6bmw5Gf0ZMeoqeHdeQuKWMPPZ+tGthYvfiKeYAmsGfEe/0IrjtFpZs2EHSI11p3wKS9gEE4NfURNLnsRRgRwf/phTsWc5rK5MowIYOw8YT/IQfG5euYdqETMZ+6E3ChI8vzxCJXBGD39i+BG+YQ9TDfelgiuE9BbbK5fvSbOaGNCT/8AF+S06ndvNAxi8LpPs/ZzEmIh7w4pGgQB7IOcbxootNn8vnZ+Ag3vToF4jrgWOcyTefcu31FkOe3Ez4iIqNXnfoNYIJL/jicL4uv1mCWy6NvfD1uTq45dq4IezYp+CW3DIKbolI+UylrDmS+TNF39fbdw3Cp0YSq3cXS9doGP6tGuDg2YE/OyXx7fIfkDuDQ4AbLvn5ZAJ06USHeudYNeqvzEsEWr1GxPyejPZaw4wDAG545X/K4z0Lg0Br6Hb4Lb5/CWYFXxkNVlS/yQN4JD+GMcFzic2yjBR7KZx+6ydRNETq+UoYQxoe4IOB77D6NDj0eosVr4Xx6pbRfFB8euCO79mYGM6Quf/GN2YXa3+IYuOW4iOz3Ghx76c80XsNWQ6BjF8YTt8BPVn81oYK9NPMd8BU3g1xYttHk8zBOK9wxg9247eP3mDcNwfAoS/vL3uO8a/E8OyHeuMngsEN/16P4Q0Y3Vvg92A9Tm5eRBRA8iZmTzcnMzp74NLAiA1GHN3B/Icoi6QdJUc3lc6Pdi0gMcIc2AJI2zCf1zaY/+99OZ0D3Xw8OLrnW9KcPcwLj5+LI+F0KM3bAZuKl5tO1IIZxLVsT3A3f4Jf6EJojSySNn3Oog2FH9yLtLXgNIlHs+jm3hhIqUA/oVbLQYwNqEdckVFmjp19aJSaQESaE40aAmSy4/fTjPhTO6BYNOPPPnjlJbCkcC2zgtOs/SmJTqGWzZXatsabFNbG2+De0LyofuKew/Ts4oM3lgBVapI5+AbkxBzmxMD2NGoB2Jed1xxkPE5CkXXUktZ/bJlOZ55K2MhoA/a1qQ9WAjjlPB9nm3FfXgLLSuubVVnErS9cD83EgYgYDnQMxL85rPw1hbTXfOhZdwtrz3nQydeJA79uKT+wVExZfUwqo46MSl2b4opc55xYUk4/ReeGTYGU0rNkx7J8unmhFoNjPdzda2ODHUZnoCCWuIO9COrQCvYlYujsg1fOPhbtBshl2/I5bAPLlEY3atuC0eBUel1H1rDyv+MZHvYi3nWNbPtkjaYslqfVa0wOcSNp+fSrvrzzfXkec194jiHr32CZJZZ9PGosQ/9ZWkHZ7Fs11vwlIkCrcD6b3YlhTy5kzDflNaIvE15owfF9p/Cuf+Vo7KJJDC2a7OEJRLxjIHbVhsr0UOS6KLglIjdGyzmE9nAlYfk4yxTEIpw9aebZBIf6tuSdz8SkV57qy9aJLi+H8wBQu7E3Hdo4cXztEpYBbJnLUMtnKOcWgXg1tacm9rg0Bw4AZLPv55Kjm0o3gEd84Ld/mwNbAPEfjabbR+b/d7+czpcB7dw4uGM1h5oE4t8EOL2L304/h28voMSbu10sHvUGP/Tqx6gn2/L8hEBGT8om6ZtVhH+0wdK+Im3Niib2UBhBHl7m7OX2E2xbT+XdLm7EFga2AM9+3ngei2f+sYb4t2sIpLNxzzkm+wSCxm6JgE1t7mvamAuA6dx+NixYQlSyZb0mgzfBo/rRqbEd5JnIOJtJreuqzAlHo4m07PLSueFoD40ChvDyQ0WP53Igv7Q8JjJ+j2b579GADe4d+vPyM0MIPTmVJcW//Cmu3H460KqjNxhyr9qBsX5tI3j4M2K031Wpcw5aW5jMBgNw1cS27IIrgUFnB4z2DQgeHXZVGtO5CmwtdA15DT6PMzqkPV72kGPKJC2jrL0ly3k+nB0wkl5636w6y4l9RR8fJy0DDDWAIz8QlzqeVoEOrI1rj3ftFDb/XJk1qMzK7GMZdVTu2twITnR6PpSgB+thk5dLTkYm2HA58Be1LYmgp1vjRxKODzQmI2HRlTXyOg9iRK9W5mmJeZlkXLKBcjY+SPpPNAfefRyvg98ze1/ZaQW6D/bF43AM44qNSo//aANrmwfiYiWWXSGJUcSfDsS7YQXa8E4/OpyPIXyPFwvrl5bKjSGDfam9Z435S0CRW0QfMUXk+rV8n6GDHuD8xonWdzbdM5Ev9wB40OS5zxn07GRmz3kba0vMShV3b12a+HjhAeSnHWDl9Fks+9ES0XHoy/i5/QhqbE9+fgFZp7OxsgZwJdSltjGftPPlpfPCxQE8u4TxfqeixwtIKvXD5ykOri9cX8sN/8HhTH4hlGmHN5T/rWW5/bTHv4c33JtN0bECzZ3toWFbpr3T9qrU+f/TJAwRoMSC8kU16tuXbjUTmPbGGstIK/M6QdcunYwcGwwll4gp5hQZ2XD0lxm8t6H8oIaxRQCPeqSzdUuSZWSNiZPb1rOj82t4uZbfqvL7mcWOT/7BjtZ/Y8Sg/iROWcGOAjiRmQPHtjNp1pbyR6+dzSLHYMCxyCGDe+0rwbKzWeRkJLDsrQisfS71tnLsqrLLyFuSB8FPBVJrzxxeW33a3PbHXmRu59LSl/N8tC3ZN1xrU3ZIyJn6PkDhYv+Gxrg4wolLAFlsTkilW8v2tLJvimNKNFFWL7AdLg1rU3B5cXsHatWsaB9Lq6Oy1+YG6PgUwS3S+c/EOWzLAWhK6DtDcSk8v3M3SU/3o11bf4yemSRGFr7nC2Bg36akrZ7KtG3md3fmNcDKqsyGVgMD8TpzmLOegQz02c5yK2uJyRUt3OxJTd7JwRJn1vBB+Jqrjtg6BOLf7srjvLLW+XRoi2c9yM8C/+FTGdXmygtj2q6vGLco2vzg4Qm8+HA2G8PnEt9ldukNfTiMoBbpbAlfVYkvNEWuX43b3QARqeZcxjNokD+5myey4qdtV52ya/Eq/m2DihxJ5dDR41DbmTq3tpVyo+QcYNmIsQwdMZYRE4sEtgD/V/oSZBvPmOD+dOs9mCeG7CxzlZPynSMzxxbbcm+WA6RlwcG1Y+nWe/BVPyP+VTK1x6NhvPpCXzwvHzlF7Odf8esxA7Ur8K1l+f3MZtus0cz4FTq8FM4AS4Qr+Ww2HI7hiWJt7Ba+xEotIlJSAaYCABvce3qbp6SVx9ENT6uRjTh27INWXR/D3WAps9coZk0bxNVjn8yBh0YdnsLPUo7B4zHGTnuNgS1LlppjbEan4H4Et3XAgKXcDr1o55FebHTQdfTTZCLx80WsPe3NwFFdcAEytiZwtGF7Bj5oZ2lkPYLCJzH5GSuhqJ3b2Z3XiuChAXg7O+HSPIDQjo2LnN9N0r0+9OxZz9IHO/xCX2PmyMBygkTXkfeSyRy8MdSjh2+DEqddGnhbyivn+di5m6RL3nTrZanfUI/gwKaWvKVxwK97F0sAx4ZW/dvjdXYfUcnmsxkbEjjQsD1DHjSSuK3kbptmTQl+aQwv9zHXa/AIxMcjl4yia3OV0ccy6yjn2twUlhiT8UF/vK+KFCYSlWjC++nueJ+KY8OxYvkuFWZsRfvmZU0FNS/8P6h1DlFLPmZhVA7tQp6iVdlPlAB5562F/0vyfHQk779z5WdyaJsiZ23x6BDOqy+H8+qkqXz2WU+8T0SzbDmkHT5AfMKVn6TDhcPv2jD+pTawZfWVzXisKhy1Fa1RW3LLaeSWiFw7l9H0Ht4Du/9+zNJigS0AGrSlW7e2cCqJ2KNJYOzHww82IPfE9gpvzS3VT14WgBv+L7fAE6zu1HWVOm48UA9+KLHj4Cp+TujL6F7h+K+fS2yWG/6vvMX7j55jXt+ia27Fs2rHKT7rMoJ+qyxrbrUJZ+47vqT+80Umrr+61FQHL3oMDsTj7AHeXh1PFm74D36ahxue47fypgxVtJ8XT7F24lw8F/+NF2ePIH7YQuJXJ3GwVxsmP+llWXMrkFf/EUaH1NWEvL3Gah0iYnZ0zRq2TQhl8vvtybkEHDte5s6pAOzbxNaUUQRNn0qHrfN5u9gmvXGfLyNq1BAmzgwkp6Bwt8QviePq0UkZa1ew0nUoodOmQB4YjCZObv2S//xupc7dX7JwfShhz45n1kATBffaYCCLxMgl/OfIjexnOhvnr6D+xFDGDj7O259vYskXbox+bhKzLuWCwQ7TyRiWrbb2QTiFlfO+JvSv3Qkb1x1yjvPj1gS8ggvXR0pk+eLtjB4+hlndcimoYYchJ4mIudFYmeRYTGXzphL5dSxvhr3GrA6W3Q1Tr96F8qcfYukQFsqsB1KIGLeUqDKfj0SWr4jl9WfHMKtLLgU14OjuJDI87Mpo82Gi4r15fWYXwAbjpVQ2Lyqy/lNBNDuSuxDSIIkdpf6NMNf75vNjmNXRBAYb0nZ/TeTuivXReh0VyHej/fI1G/xHMXDmFILzwCbnOCeLLe6VtHUfFx7yJ23b9iLrfsWwcoMfrw+cwqzgXKiRw9FTZYzZMXgzMMSPguj55l0nv/2SqAdHMah/HG9/Xpm18+4umfng2jAAKP89Q9I3g8tYc8uAYxMvfD2A/HTiVy8hfPkG82vN+iV8YCWH78th9DDGM33q5rIrfjiMp1uls2WURm3JrXdPHdeWf9yIgmoanW9EMSJSlXX9jAkd01g6dQwnAfdnvmdo25LfzJ3bOY8FX6wCOtDsmVfp09oD+0uADWQf38ZX88dxTCPPq5+XZhPdI523S1n8HYe+TFv6HI84F5CfD/mHT5HZoi4Hp/+VcRuL7YJ4WRtGL/wbA1oYSP1xLiFTfYvtltiT8bNDCfIquVti92n/ZrJbDIHDFgJtGPD+SEa3qUt+fgG2Rkj9cRV/nWptjS83Hnl5AhOebIgDBeRjwJZs4lct4W//irbs7Hh1W6+qqzL9tCwa32LvpwyauAbPAVN59wVvnPMLyLc1wIldfDBiOsU3MxMRa2xwdK+HY0E6R8/ewIntRicaORZw8mRW2R+qDQ64uxnIOFZ890NrzAuAG02Z5ZdbwvX005zXkJFKWlmNNNphzMm90g+fEKY+ayBywgp2FE3m7IGj6TQnMyr/R7tSeQ0OuLvVxnS2nHaXyFPa82GDo7sTnC2cJliRBjvRyJhj5Zrb0GnUJLqdWcTbX5SywU7RYpzrYci0Uu+19PF68lWYeerrifkzWGkZrWZ09sDFcA33rtGJRs42ZJyqxHWXCnN4aTbf98pm3sBJrCr6vsErnM+W+nJo4otM/LUv70c+h8vG/qUEt0p7P1aWnkz7KoxHrH7cz2bb5bLcGDZ/Hk/nreYvryq4JdcnL6fcr7BKUHBLRG4BD+zqeUP6z+QqqHWHc8PzAW9c8o8Ru6/4NoXXoV4b/OsXsO+3+LLfLDn44nu/geM7iu9+aI0X3u0aUjvvXPnllnA9/TTntT0RTVKJ0WoiIjdbK8KmD8Lr4PdErN1PWq3GdHumF35p6xm/IEajZoq6z48gfz/ad3Zix7tzzKOM7iR1ven2RC/6+KTznzeWY2UMvlQpfZn21XN0yIrhg79/ytrDp3Bo8xyTX38c//NRDB2xkIPcjOCWFda+8Hx4At9Oa8ivo0aXM3VRpHzXEtzStEQRuQVSyT1d/redcic4xcHfTllZ7PQ6nd5FbEUCQVnxxO8oP5nZAZJ2XGsA7nr6ac4rInJ7JLJk1tcMfCaQkNFdMBRkciRhDe+tjlVgqxhvXz88G5rYvmARa++0wBaAvRtetU+zYcGXCmxVC2uYOMLA+Jl9Gb9sHuMtR8/ui+btvy286j2Jd8iXRIcUzXuMVV3HMu+mtc2NYYPbYLtrtdbaktumyo/cMni0olNga1q52ZFzKoFtG2JJLDa82dg8gKCOPrjbm8hI2cGGTYmWHWbAsWUgnT2LzLPPO83ubXEcLRzWe58fQb5Ft/LI5UT8DnYcuT37uDV66DG8s7az+fcsvINHEVJvBx8tjiGj/KwiIiIiIiJyx/PCu11dzlRopLpI9XMtI7futatVb8qNqNzGUO7+KZXm8tiL/H1oIE3uTef4sWzsPNvS68mHaXBqN7tSzfu7eweP4fW/NIejyaSk1cC9dSee6uLOoV8SOX0JmvQcxEB/Jy7aGKnrVIe6TVrzxJMB1D36X+JPX4I/P8no7s2oeY8N9k51qOvxJzo8/igPmOLYnlLJAFfzvkwc1oKTvySVv4ByKdr3H0qXOkls/i0dl/v/jI/9cf7fzmPkXWN5IiIiIiIicic5R9rxExVY/0+kerpoqvzdXXWnJbo+zoggN45EzGLeL1d2BnHpOYo3n+lPp9+WElUQQI+OtUn+YgYLYyyjuSI9GPjWKIK6fU3iBsux03HMm7/FUoINrUL/xojeXfguYZN5RFTOfiLnR1C4n4yh81Bm9H2KTpuWEmW1cZaFPim20GINO4z2le+qwbEe7rVNpB27egeUpMj5TCueWAs1ioiIiIiIiIhcVmWDW949W+N+bDsf/XJ1wCdtw3p+8gykjieQbC1nKivfmVRGySYS9x2n4E9O1Aer0/0KEo9ztl9jrI5Fcw1gRHgvmtc0YcIGm7wUIj9YTtSDoczs0xRjTRg+vQXJ66eycKt595G0BTNYvs/Sr8HjCeVLJn2eAjjRI3wUQZ425OSBTU4ccdlFrsHg8Yyut53wD7cATnQaPpyQFnbk5IHRaOLo5mXM/vaI1kcQERERERERkbtWlQ1uedZzIG1/gpXgUwprF6VY/h/L5m3tCRs4nsmt49i8bTtxv5c/oqmRZz0M+UlcKOW8i38znLPTOWnlXLsnuuN1ZA3jF8dSgB2dng/Du3U9orYs542TIUwdDMvfujIKrMx29BtKkPM+Fr4RQWIBGB8cxMShwImSaR2DBhHS8DBLJq4gLgcMPiFMDhvMX/bNYOW+ClQmIiIiIiIiInIHqrLBLYCc7PK2xjKRuHoOk/7rR89HA+k22J8Qg4mjsetZ8nnslXWvHBoT1OsxwAbnpj74NDMS99l6jhaed/Rh+PQWmCcx2mCsmUti5ArirNR44lwOxgdb0L55CjuS04n6ZH4pUxfL40C75k4c3TaHREswLmfPt+xIbUU7K2m7+Xhwcscy4ixTTwsSvmbD/kn0bNsU9qWUyCEiIiIiIiIicjeossGtnDwTju5NoQJjoHKOxBH5SRyRgLH547z8wlOEnd/He2uzzAmMTng2NXc151QMK1ZvJy61yI6LOafZsXUfmYC7fxe84r9k4db0EvUAHF2znEjHQfR84TVCDCbSDm8nctH3l4NOFeeGoz0UXCy682MWF6yuHG9Oe+FCVpFjJk6ey8XRuR6g4JaIiIiIiIiI3J2qbHBre/JxQrq2o50hiR1FpxnWfYzXp/hxZNYsVpr86NEaEtfHXR6FlZP8PVH/a0+fOm6AJRh01YLyVhScInb9JpIAQ0ZjZoT0JXjDHCLPWEt7ms2fzGEzYHD0JnjkIEJDT/PaotgK9cuxpg3mrQ9PkZEN99VyuNJOPKjjAJQYsGYtrQ3ude3IOFve6DYRERERERERkTtXjdvdgNIUbNrEtoJWDHzlcVo5mmNwBg9/QkcG4p4Sw3dHgJx6tO75FCG9PC4v/m5s/jid/gQnjhy+tnp/+Zqo1Hp0CgnAAGDwJnj4IHrcB1CPoNem8HpwPQxAQcZh0nKAGkVihI5ueF5eif4waRkOeAe0wggYm/elWws7y7ksNiek4t7uCfws6Y0B3Wnnaq1VJdMafJ6iZ7NM4qI1aktERERERERE7l5VduQWpLBy5gpyhj/BiHcCLcdMZCRvYd7H0eaF5s9tYslKJ0YEj2JmdxMFF20wGHI5ue1Llmw1lVF2WdKJjIyj3ciuDPSJZfm5pvi0bAUnMQiwuwAAFz5JREFUPdh4JJUN38fi9+wYZnTIhRp2kJ1E5LwYc9Z9m9iaMoqg6VPpsHU+b69O4btNSXgHD2JmW+BsLGsTsuhsqSlj7QoiGg4nbPoUCvKA7DjijoC3lVZlrF3BStehhE6bAnlgqJlLYuQiIo5cYzdFRERERERERO4A99RxbfnHjSioptH5RhRTCjtcGhq5cCwd60tb2eDoXg9Hm1zSSk1zYxmdPXA0neZkxrUG0YoW5kQjYw5Hz+aWn9bggLubgYxb1E8RERERERERkVslL+dspfNUk+CWiIiIiIiIiIjc6a4luFVl19wSEREREREREREpj4JbIiIiIiIiIiJSbSm4JSIiIiIiIiIi1ZaCWyIiIiIiIiIiUm0puCUiIiIiIiIiItWWglsiIiIiIiIiIlJtKbglIiIiIiIiIiLVloJbIiIiIiIiIiJSbSm4JSIiIiIiIiIi1ZaCWyIiIiIiIiIiUm0puCUiIiIiIiIiItWWglsiIiIiIiIiIlJtKbglIiIiIiIiIiLVloJbIiIiIiIiIiJSbSm4JSIiIiIiIiIi1ZaCWyIiIiIiIiIiUm0puCUiIiIiIiIiItWWglsiIiIiIiIiIlJtKbglIiIiIiIiIiLVloJbIiIiIiIiIiJSbSm4JSIiIiIiIiIi1ZaCWyIiIiIiIiIiUm0puCUiIiIiIiIiItWWze1ugIiIiIjcve6pcS81bGpSo4YNcM/tbk419weXLpm4ZMrjj0sXraa4M693+f2uaqru83Cr76G79Z6Vqkn3f8VVvdddjdwSERERkdvinhr3YmNrT40aBqrWm/bq6h5q1DBgY2vPPTXuLXn2jr3eZfe7qqnaz8Otvofu1ntWqibd/xVX9V53FdwSERERkduihk1Nqt4b9jvBPZZre7U7/3pb73dVUz2eh1t9D92t96xUTbr/K67qvO4quCUiIiIit4V5moXcDNau7d1wvatDH6tDG+HW30N36z0rVZPu/4qrKu1UcEtEREREbpOq/o10dWbt2t4N17s69LE6tBFu/T10t96zUjXp/q+4qtHOqhFiK43Rg3Y9u9K+oQ0ZKTvYsCmRkwW3pymOLQPp7LCftf9NvT0NEBERERERERGREqruyC1DACPeGkVI40wOpqRT66H+TPzb4zQqJbl3yBgmhjStRAUBjJgeSqcKpq7fNpAeHVtUonwREREREZG72xN9uvJEn663uxkit8QTQd10v98mVTa45dirPa3ORfPe3DWsXb+Ghe98TZxjO3q2LSWDrRGjrbUTdrg09MDdsfggNSNGox3GEultcHT3oJG7A4bKNtroVCxfaXVfQ7kNPXAp2VgRERERsb+fJq63uxF3h462Vfbjw92lRi0c7KvGIs5leaJPV/we0ACB6s65yyDGhAXTxv52t6R68HughQJct0GVnZaYs2UF70VnknblCAUFWA04dRo+ieA/2WEglJm+KaydsJwowKVzKGODvTHm5UJNO0zHolk493sOePZl4lB/3LGh0fRJPLRzBdMiUjD49OX1ZwNwr5FLDjYYLx1n7ayP2Xim7Lb2eGUqrbMTcfH2hrNxLJn+NWml1W3/OBOn+JD0/iwijgEN+zJ5XACmzTOY9m0W4EfY9Kcwrp/KvK3Qqt8ohnRwApMJGxs4+8sKpkWm3MArLSIiIlJN2fdg0txgOjlZHhek8uXk/2PJXhg5fzFt4obx4se3tYXVj6EW8x5pTvB9NUn+5f/RNcl8uFvTZszr5IJjDSD3Aps3xRN6+vqq8nGuBUDC2QvlpjuSlUdG/sXrq7Aaqt89lGF+NcktMF0+9r8f/s3X+V0Y2Qe+nrOO/1WwLLsGfvyJZOKPl329b5TCwFbcb/v49rufbkmd1cHI+Yvp36iA/IuArYH847+xYOxc1mXfxErtA3j2zRDC2hqI+ccYxv9YibzP/J2VIbXY9d/fcC7exusp9w717drNAJeDurfq3m8zYAS+exfy6e7rLMipOe2c0tmRUk4QpAqqssGtgozTHC3y2OWxLvjdm8LynSXTRi2aysnB4wnlSyZ9bgn81H2MsH4NOLB0Kkv25ILBm9CJoYT9JYlJK9cwbUImYz/0JmHCx2wEwI52/k0p2LOc11YmUYANHYaNJ/gJPzYujSu3vY0aFrDwzSkkFpjrfr3UuqNJSA3Ex98BjmXh6N8UxzwThqbtMLCFghbeeNkcZsM2E9R9nKc6w7apU4g8A4amfRn+lDd+pFB+i0RERETubMFvBtPmYARPh/1EFuAzcjofvPoCm1781+1uWjVlZHnfVrRLO0V8dn0ujwuyrc/UTnU5uW0XrZIKGN7ej78/6kX4qgPMvY7aljzaHEdbG0LW/15qgMvHuRYRvVqSeDabv6zfex21VV/n4tbx0Q/Hih1dx/tzKldOXR8/unLmlgS3FNgqW/J3L1kC740JnvYaI9/sw7qJ392k2rryzsIQGu+MYVdGadOgStfJ25X8+O8YP3PjDS33Tna7Alw3RBNfet1/SMGtm8XgE8LY3s7ELVla4aCOY2cfGqXuZuGeXPOBgiRWbk5hRjc/vEkhqUSOXLYtn8M2AIMD7m5u1LYFo8GpREprMpJjzYGtcuv+mh3J6XRr2g4D0bRv6sSBH7ZTp2dT2rOFAz6NcTwWy/YC4Fw65wuc8A5shfvmJE6mrGHerApeABEREZE7nEMtA3lnzpBleZywYAI9i573e4c1q12xtTWQH7+R0eMjOIQrncaE8/ojrtjCldFeRwYxb8X9JAx6iwXZroycP53g/I30HBsBniNZ8UEdIvvN4Msi5Y+cP4c2Fwto0qgWyd++xOjtIXwwsSs+9sC9kPZrJC/O3Mkzs98h4Pe3ePHjMzi8+A5r+hSw5Mn/4zPuZ9yScDzWvsSrG3vwzsJgAix5U39YwfPzom/RlSyUz+qNOwnNsuOLkPq4WY52bOFM4wtn+L8k85vdRTtPMqSlOx2dYG76tdcW9mMy/+l1PxG9WloNcBUGtu7hDybHHL72iu5E9R/l5acgYsGPeAwIxdd0kfqNbPnfxn/z9bkujOzfHIc/wOZSOj999h+2e/TmOb9a2NGbcQ1/59+fRHOzProqsFUZh4n8NZWw3uZ51T7P/Z0Zf/HA9iLABWIWzuCtjWfg/kHMezuQ5gag4Ay7DtTBOWUML35cyuvZVXHgVL6Y9hYJe9sy44vS2vEA/acNIayleTRlfvpeFoTPZV3I35kUUAtbgtmw5H6mhs0lqlLl3r2qTICrQSDDnm5J3RomuAeObvkPK3dnQo3GdP9rT1o7mOBeOBG1hk8P3s+wbu5g48q4MfVZP2cd8ben1dekyge3DD59eT3Uh7R1c1ieYCo/g0X92kbIyyWjyLGCk5nkODrhDlaCW+DSeRAjerUyT0vMyyTjkg2cq3yby6s76r8ppHVoSnty8PY4TtL8OOq0b4d3WwdcmjtxNGEH5rcOMSz51IkRwf15vYsNZJ8m8YcVLN9ymtu0aaSIiIhIlfHZomg6vxvOGr9UEnbs5Ltvook6cuUje+2z0QwctZEs+xA++DSA59pGMNUwiFc6XeDT517iy+yio70iSTgaiM+TwIqu+LheIJ9m9AfW9fDA5dBvVwW2zGrhcT6Cp8M3koUrYbO7Un/HAnrO+Q3sezBjaTDv9NnIW7+foX/LrkAEwS3rkJULbZ+CzzYG0Nw1la1fAy8GEnBsIz3HR4J9MGNGu9IG2HWLrqXZRSKzSh71tTdAxgUWFR7Iz+JIdmPc6gHXEdxKOHuBv6zfazXAVTSw9Zf1e8udungns3NpTjv/huYHeSeIjz9M7lUpalE3cx3vf2gOALYZ4MWRyMWsPQg0bUvXOq6QuI5PG4YSwo9WRoHdOApsVZYrvdt7wLnfgADaeJ4n8g1zcMrhub/zVVAf2PgdYcMDcdiygJ4LfgP7YD5Y1gdSgIBBvPLweRY89xbrssFnzHQ+GB7CkrERRerYS0I5gx4dngsmrP5+Xu23gARc6f1/f7eMJvs/3vOcwyt8R98pxUdulV/u3e72B7hqUr9hTX77ainbj18Ely6M/Is/rru3cOZBf1qnbuH9dclQozntOjpR93Q0izfX4+/3H+L9VVamzFVxVTu45dqF0aH+XPhhDrM3Ve4v54nMHGhkhyNcDjIZ3GtjzEjnpNUcAQzs25S01VOZts3858J78HhG16t8s8ut+0gcB3IG4R2Sy31nD7O8IJX6B0yE+vbC0eM0SYuuvKvI2fM9s/d8D9jRqGN/RoQMok/yHCJv3t8kERERkeph7zJe7PcTzR8PJLh9W16Z14PnvlvAix//BkDqkY3mUV3Z58kvMODgBE18PbD9/Se+tKwdk7BgL4fWN6M3Z1j3+3l6PxgMOc1ocjyGdbYBtH0UbFu6krzT+oeSy3UQiE+T88RMMtdN9kZ++L0PL7XtStanh0nt0Yz+BNO2wRkifzTQ268HGBvjkbKfSID958l6oiufTGtMzI6dfDozmrM39eJVDdYCXIACW5V07uSVkW2pJy/yeK+/QGIye/ck8FN63m1smVjTvM8/2fC45UH2YZZMM09J/GzBBXr3eIFxAzxofp8rtrmHKXxt2XX5tSWS7f/rwWNAk/YeOJxNpXnoC4wBsC+ABo15FKjM8le9fTxI3bGABADOsG7LYUaG3U8nbtZUybvQPffchkrzOBG7DZOnL+0eqU9zD1ccapwwB4FOpJP7WAf+esmd3Ul72R11hooPJaqaqu52J67+hI0OpFbMCuZVMLDlWL/x5d0PM7YmcNSjNSEP2pkPGLwZ2K0pGXu2Fxm15Ux9n2LxvUuWp9TYivbNHa6p6eXXncL2fSb8OrTiQnIcGUDS74cxPOBDo9R9bC4cLfbQIKZOGUQHI0AuJ1MzKcCm8rs4ioiIiNyxDpP8/Qren/IWT7+7F5dHe/DoNZZ0aO1hMr2aMdLPg9TfN7Iu6QKN2w2h7X1nSFh9HZO4DkaTcN6Dti82o8mZw3yxMZU8z/sZ+aC5niyAH2fx9PMRrEuB5kEhfPXJSAKuvcYbKj67ABxrMbzwgK0D99nnceo6F5QvVBjguoc/iOjVUoGtYnLTktkR+//MPyVGbZV04qflvL8qjmPUp+ugUIZ1uHVbiX773U/E/bZPu8WVI/m7l+jZz/Lz3Ay+3AsQwgcfj+RZHwNZcdHM+eYwVgZSAmBbs5RPhOmHWbf+twpvMiA31xNB3fDz9SYuPunyKK5by5X2oYN5rm1tOJnE+jXJnCg8dWILH81dR9RxaNi5L+Oe70B133S4yga3vHt2x6+uHe6dQ5n14VTmWn6mDm5qNX3Shu0ccH2MmR++RkhD4Nwmlqw8TKPnJjFr5iRmzQzFO3UN81anWnJEsyGmgHbDpjBrZAAQw8oNp/AaOIVZ0ycxa0ovXDJLezkpR7l1m4NZOTWyOJBgObZzP0ewIcMS7ALgv+vZkNqYgdOmMHP6FGaN9iFn6xqN2hIREREhgEmfLOaTkQ9cPuJ8Xx1scwrKHPF0aHsq+d4P0Nuypb3PyPtpcuQw6wAO7iQxpxm9fS+QvPEMh6JS4aEAmp89XIGdzKJJOFSHNqGW9tj3oHtLA4d2/gTsZVNSAT49mpGXFEPWwZ0kcj+9vc6TYNmWu03YeN7pcYYvl8zl1fDfOOTuQVVZovmXA+c4XcuVAd7mD9TD27rTOCeDX65jSmJxRQNcCmxdDyd8e3bhTznJ7Pp5A4t/Tad+k8YA5OZexKbGvTe9BQpwXaO2HtQv2M9nExew4OufoJkH5qEW0ew8VIfO4/vgDDj4vUDnJuYsh7ankuVsIHn5v5iz4F8s2W/AwwHyK1n1uoRUXB4MxgcAV3p3aQwH9hZZX0sq6/YHtgDqc59zOlGro9mx9wDnPFypbzlT17cn3Zte4H97olm7PI6j9etzH0CuCdPtGGR2A1TZaYlJn88g/PNKZDizhdkTtlx1KC1mBW/H2ODoXg9DRippOUXPmkhcOYvwlUXSb/qYN35xopGzDRmnTpNRZGGrpM9nEF5K1Rs/nETxGchl1w3sXMEbV01jjWHeuJhiidKJWjSDKIMD7m4GMo6lU7wYERERkbtTDB9+3JYPXh3Jhu6WQ5fOE/XxAnYB7UvNtoIlO19j5Ip/MuYicOkMkZP+xSFLmd/9HsKjLVPZdBA4uJfDFx+gcUK05XxZzrBkUTRt3r7SnqxdkQyxzOrZ9cNhMrs0JjHKvEjNtoODePS+w0QetJw/eJ5xI8NZ0+MC+Y614NdIPr2Gq3JTZB3ntW0OLO7QhqMdgdwLbN50fTslWlMY4Cr8v1yLdM5kuDPwpb/SKT2funVg+5fmLbnOJSZzZlBPxjnHs3jltmtZWrjCCtcWuu2LaVcnO38i6uRIxvznHzybXwvOnLeM3DrDZ5Mi8Zzdh5Xf9CH/5F42JVwwB6KKv57de4GY+RGkllWPFVmfRhLp9wIffPNPuAhk72fOCE1JvFa3K7Dl2e2vjHuk8NFJ1s/ZwLZdfjz3ymDapN+LQ2Ym5zBPUz53JgPPkMGM7ZBBbh1HiNlgXuMxaS+7u3Zhwqh6RMzfUK1GAd5Tx7XlHzeioJpG5xtRjIiIiIjcJQx2dW5IOc7NA2hCKruSK7Gjnv39+DS4QEJl8lS4PW2pfXwnh8od7XVj8xZXkHv+qsfXfb1r3EsvI8RnX+TI9ZV0UxXvd1Vzo+77stXEofa9ZGVeX5Dweu+hyi4wf8Pv2WrI4b62NOEwCUU2x+D+ANociWFXNoArYbOnE/D7MF78uDBBY5r71CI1YW+pUxkrxPUBfIypV9d9F7uW+/F6Als37f63rU1dQz7nskuuv2dj74RNTjq5l66vihv9upuXU/lVJ6vsyC0RERERkYo4mxxT+cXXs/eSkHwzWgNnk3de82Lw15P3prt0kfU3IOgmt0IeWZm3uw0asXUtso7stCzsfsWjQSG83j6YXb/sJ6vh/QTcl8q6OUVTHCa5eKZrcea3EnVL5d3eqYhW5GdyrpS5qqbs9Gq/kHwhjdwSERERkdvibhyVcSvdraNgNHLrxrnV99Ddes9WhHPzPvR+zIPaJ/aybmP0DRndKWXT/V9xGrklIiIiIiIiImU6m/wdn92k0aYid4Iqu1uiiIiIiNzpbsgEArHK2rW9G653dehjdWgj3Pp76G69Z6Vq0v1fcVWjnQpuiYiIiMhtcenSnbLSR9Vj7dreDde7OvSxOrQRbv09dLfes1I16f6vuKrSTgW3REREROS2uGTKo6p843tn+cNyba92519v6/2uaqrH83Cr76G79Z6Vqkn3f8VVndddBbdERERE5Lb449JFTPnZXLpUQNV/A18d/MGlSwWY8rP549LFkmfv2Otddr+rmqr9PNzqe+huvWelatL9X3FV73VXuyWKiIiIiIiIiEiVcC27JWrkloiIiIiIiIiIVFsKbomIiIiIiIiISLWl4JaIiIiIiIiIiFRbCm6JiIiIiIiIiEi1peCWiIiIiIiIiIhUWwpuiYiIiIiIiIhItaXgloiIiIiIiIiIVFs3MLj1x40rSkRERERERERE7jLXFlu6YcGtSxcLblRRIiIiIiIiIiJyl7nW2NINC26ZTLlo9JaIiIiIiIiIiFTeH5bYUuXdsODWH5dM5OdlculiPgpyiYiIiIiIiIhI+f7g0sV88vMy+eOS6ZpKsLmhzblkoiA/60YWKSIiIiIiIiIiUirtligiIiIiIiIiItWWglsiIiIiIiIiIlJtKbglIiIiIiIiIiLVloJbIiIiIiIiIiJSbSm4JSIiIiIiIiIi1ZaCWyIiIiIiIiIiUm0puCUiIiIiIiIiItWWglsiIiIiIiIiIlJtKbglIiIiIiIiIiLVloJbIiIiIiIiIiJSbSm4JSIiIiIiIiIi1ZaCWyIiIiIiIiIiUm0puCUiIiIiIiIiItWWglsiIiIiIiIiIlJtKbglIiIiIiIiIiLV1v8H2MVuKiTgXXsAAAAASUVORK5CYII=;" vertex="1" parent="1">
          <mxGeometry x="-302" y="275" width="154" height="100.03" as="geometry" />
        </mxCell>
        <mxCell id="QqtFe9Oyp5fte1WvcNWB-37" value="" style="group" vertex="1" connectable="0" parent="1">
          <mxGeometry x="-263" y="399" width="172" height="139" as="geometry" />
        </mxCell>
        <mxCell id="QqtFe9Oyp5fte1WvcNWB-31" value="" style="shape=note;whiteSpace=wrap;html=1;backgroundOutline=1;darkOpacity=0.05;sketch=1;hachureGap=4;jiggle=2;curveFitting=1;fontFamily=Architects Daughter;fontSource=https%3A%2F%2Ffonts.googleapis.com%2Fcss%3Ffamily%3DArchitects%2BDaughter;fontSize=20;" vertex="1" parent="QqtFe9Oyp5fte1WvcNWB-37">
          <mxGeometry width="162" height="135" as="geometry" />
        </mxCell>
        <mxCell id="QqtFe9Oyp5fte1WvcNWB-32" value="&lt;font style=&quot;font-size: 19px;&quot;&gt;Counter&lt;/font&gt;" style="text;html=1;align=center;verticalAlign=middle;resizable=0;points=[];autosize=1;strokeColor=none;fillColor=none;fontSize=20;fontFamily=Architects Daughter;" vertex="1" parent="QqtFe9Oyp5fte1WvcNWB-37">
          <mxGeometry x="31" y="4" width="90" height="37" as="geometry" />
        </mxCell>
        <mxCell id="QqtFe9Oyp5fte1WvcNWB-33" value="&lt;p style=&quot;line-height: 100%; font-size: 9px;&quot;&gt;&amp;gt; Counter Specifies, what is your&lt;/p&gt;&lt;p style=&quot;line-height: 100%; font-size: 9px;&quot;&gt;threshold for number of NFTs&amp;nbsp;&lt;/p&gt;&lt;p style=&quot;line-height: 100%; font-size: 9px;&quot;&gt;(which are in Addresses Contracts)&lt;/p&gt;&lt;p style=&quot;line-height: 100%; font-size: 9px;&quot;&gt;that the user must own, in order&lt;/p&gt;&lt;p style=&quot;line-height: 100%; font-size: 9px;&quot;&gt;to pass this rule&lt;/p&gt;" style="text;html=1;align=left;verticalAlign=middle;resizable=0;points=[];autosize=1;strokeColor=none;fillColor=none;fontSize=9;fontFamily=Architects Daughter;rounded=0;shadow=0;horizontal=1;" vertex="1" parent="QqtFe9Oyp5fte1WvcNWB-37">
          <mxGeometry x="4" y="28" width="168" height="111" as="geometry" />
        </mxCell>
        <mxCell id="QqtFe9Oyp5fte1WvcNWB-40" value="" style="curved=1;endArrow=classic;html=1;rounded=0;sketch=1;hachureGap=4;jiggle=2;curveFitting=1;fontFamily=Architects Daughter;fontSource=https%3A%2F%2Ffonts.googleapis.com%2Fcss%3Ffamily%3DArchitects%2BDaughter;fontSize=16;exitX=-0.013;exitY=0.493;exitDx=0;exitDy=0;exitPerimeter=0;" edge="1" parent="1" source="QqtFe9Oyp5fte1WvcNWB-10">
          <mxGeometry width="50" height="50" relative="1" as="geometry">
            <mxPoint x="-52" y="396.0000000000002" as="sourcePoint" />
            <mxPoint x="-102" y="446.0000000000002" as="targetPoint" />
            <Array as="points">
              <mxPoint x="-84" y="310" />
              <mxPoint x="-43" y="389" />
            </Array>
          </mxGeometry>
        </mxCell>
      </root>
    </mxGraphModel>
  </diagram>
</mxfile>
